M48
; DRILL file {KiCad 8.0.5-8.0.5-0~ubuntu20.04.1} date 2025-01-20T10:50:11+0000
; FORMAT={-:-/ absolute / metric / decimal}
; #@! TF.CreationDate,2025-01-20T10:50:11+00:00
; #@! TF.GenerationSoftware,Kicad,Pcbnew,8.0.5-8.0.5-0~ubuntu20.04.1
; #@! TF.FileFunction,Plated,1,4,PTH
FMAT,2
METRIC
; #@! TA.AperFunction,Plated,PTH,ViaDrill
T1C0.300
; #@! TA.AperFunction,Plated,PTH,ComponentDrill
T2C0.700
%
G90
G05
T1
X41.25Y-49.75
X41.25Y-50.5
X43.05Y-53.368
X43.5Y-49.5
X43.5Y-50.5
X43.6Y-44.4
X43.6Y-45.2
X44.0Y-50.0
X44.4Y-43.6
X44.4Y-44.4
X44.5Y-49.5
X44.5Y-50.5
X44.55Y-54.0
X45.24Y-54.265
X45.4Y-44.6
X45.5Y-24.85
X46.0Y-54.0
X46.014Y-53.236
X46.25Y-55.25
X46.4Y-44.8
X46.4Y-45.6
X46.4Y-46.4
X46.75Y-42.75
X46.75Y-43.75
X47.0Y-48.5
X47.0Y-52.75
X47.0Y-59.4
X47.0Y-60.2
X47.0Y-61.0
X47.0Y-61.8
X47.75Y-42.75
X47.75Y-43.75
X47.8Y-60.2
X47.8Y-61.0
X47.8Y-61.8
X48.0Y-39.5
X48.0Y-40.25
X48.23Y-48.32
X48.6Y-60.2
X48.6Y-61.0
X49.0Y-38.75
X49.0Y-39.5
X49.0Y-40.25
X49.4Y-60.2
X49.4Y-61.0
X49.5Y-43.75
X49.75Y-38.75
X49.75Y-39.5
X49.75Y-40.25
X50.0Y-50.0
X50.0Y-55.35
X50.2Y-60.2
X50.2Y-61.0
X50.264Y-43.736
X50.814Y-44.25
X51.332Y-44.918
X51.8Y-48.32
X52.0Y-22.35
X52.4Y-58.5
X52.5Y-49.75
X52.514Y-50.764
X52.75Y-57.75
X54.014Y-51.4
X54.289Y-52.539
X54.6Y-48.6
X55.6Y-47.6
X56.0Y-55.0
X56.0Y-56.0
X56.6Y-47.6
X56.6Y-52.6
X56.75Y-22.35
X57.6Y-48.6
X57.6Y-51.6
T2
G00X35.881Y-18.78
M15
G01X36.481Y-18.78
M16
G05
G00X35.881Y-27.42
M15
G01X36.481Y-27.42
M16
G05
G00X39.861Y-18.78
M15
G01X40.861Y-18.78
M16
G05
G00X39.861Y-27.42
M15
G01X40.861Y-27.42
M16
G05
M30
