%TF.GenerationSoftware,KiCad,Pcbnew,8.0.5-8.0.5-0~ubuntu20.04.1*%
%TF.CreationDate,2025-01-20T10:50:11+00:00*%
%TF.ProjectId,servo,73657276-6f2e-46b6-9963-61645f706362,rev?*%
%TF.SameCoordinates,Original*%
%TF.FileFunction,Legend,Top*%
%TF.FilePolarity,Positive*%
%FSLAX46Y46*%
G04 Gerber Fmt 4.6, Leading zero omitted, Abs format (unit mm)*
G04 Created by KiCad (PCBNEW 8.0.5-8.0.5-0~ubuntu20.04.1) date 2025-01-20 10:50:11*
%MOMM*%
%LPD*%
G01*
G04 APERTURE LIST*
%ADD10C,0.250000*%
%ADD11C,0.120000*%
%ADD12C,0.203200*%
%ADD13C,0.127000*%
%ADD14C,0.254000*%
%ADD15C,0.152400*%
G04 APERTURE END LIST*
D10*
%TO.C,FPC2*%
X46450000Y-37362500D02*
X46450000Y-37672500D01*
X46450000Y-40652500D02*
X46450000Y-41362500D01*
X46450000Y-41362500D02*
X47340000Y-41362500D01*
X53550000Y-37362500D02*
X46450000Y-37362500D01*
X53550000Y-37362500D02*
X53550000Y-37672500D01*
X53550000Y-40652500D02*
X53550000Y-41362500D01*
X53550000Y-41362500D02*
X52660000Y-41362500D01*
D11*
%TO.C,TP1*%
X49050000Y-45700000D02*
G75*
G02*
X47150000Y-45700000I-950000J0D01*
G01*
X47150000Y-45700000D02*
G75*
G02*
X49050000Y-45700000I950000J0D01*
G01*
%TO.C,U1*%
X47390000Y-52740000D02*
X47865000Y-52740000D01*
X47390000Y-53215000D02*
X47390000Y-52740000D01*
X47390000Y-57485000D02*
X47390000Y-57960000D01*
X47390000Y-57960000D02*
X47865000Y-57960000D01*
X52135000Y-52740000D02*
X52370000Y-52740000D01*
X52610000Y-53215000D02*
X52610000Y-53040000D01*
X52610000Y-57485000D02*
X52610000Y-57960000D01*
X52610000Y-57960000D02*
X52135000Y-57960000D01*
X52940000Y-52980000D02*
X52610000Y-52740000D01*
X52940000Y-52500000D01*
X52940000Y-52980000D01*
G36*
X52940000Y-52980000D02*
G01*
X52610000Y-52740000D01*
X52940000Y-52500000D01*
X52940000Y-52980000D01*
G37*
%TO.C,U5*%
X44700000Y-24000000D02*
X46600000Y-24000000D01*
X46300000Y-22200000D02*
X44700000Y-22200000D01*
%TO.C,U4*%
X55290000Y-50622000D02*
X55290000Y-49482000D01*
X56910000Y-50782000D02*
X56910000Y-49482000D01*
X55370000Y-51232000D02*
X55090000Y-50952000D01*
X55370000Y-50952000D01*
X55370000Y-51232000D01*
G36*
X55370000Y-51232000D02*
G01*
X55090000Y-50952000D01*
X55370000Y-50952000D01*
X55370000Y-51232000D01*
G37*
%TO.C,C1*%
X54607836Y-55890000D02*
X54392164Y-55890000D01*
X54607836Y-56610000D02*
X54392164Y-56610000D01*
%TO.C,TP2*%
X43550000Y-46550000D02*
G75*
G02*
X41650000Y-46550000I-950000J0D01*
G01*
X41650000Y-46550000D02*
G75*
G02*
X43550000Y-46550000I950000J0D01*
G01*
D12*
%TO.C,S1*%
X47850000Y-20220000D02*
X47850000Y-20480000D01*
X48612000Y-18950000D02*
X51288000Y-18950000D01*
X51288000Y-21750000D02*
X48612000Y-21750000D01*
X52050000Y-20480000D02*
X52050000Y-20220000D01*
D13*
X50755000Y-20350000D02*
G75*
G02*
X49145000Y-20350000I-805000J0D01*
G01*
X49145000Y-20350000D02*
G75*
G02*
X50755000Y-20350000I805000J0D01*
G01*
D11*
%TO.C,C4*%
X56207836Y-51272000D02*
X55992164Y-51272000D01*
X56207836Y-51992000D02*
X55992164Y-51992000D01*
%TO.C,U3*%
X48390000Y-48390000D02*
X48865000Y-48390000D01*
X48390000Y-48865000D02*
X48390000Y-48390000D01*
X48390000Y-51135000D02*
X48390000Y-51310000D01*
X48865000Y-51610000D02*
X48630000Y-51610000D01*
X51610000Y-48390000D02*
X51135000Y-48390000D01*
X51610000Y-48865000D02*
X51610000Y-48390000D01*
X51610000Y-51135000D02*
X51610000Y-51610000D01*
X51610000Y-51610000D02*
X51135000Y-51610000D01*
X48390000Y-51610000D02*
X48060000Y-51850000D01*
X48060000Y-51370000D01*
X48390000Y-51610000D01*
G36*
X48390000Y-51610000D02*
G01*
X48060000Y-51850000D01*
X48060000Y-51370000D01*
X48390000Y-51610000D01*
G37*
%TO.C,C5*%
X46640000Y-49857836D02*
X46640000Y-49642164D01*
X47360000Y-49857836D02*
X47360000Y-49642164D01*
D14*
%TO.C,U2*%
X42200000Y-48600000D02*
G75*
G02*
X42000000Y-48600000I-100000J0D01*
G01*
X42000000Y-48600000D02*
G75*
G02*
X42200000Y-48600000I100000J0D01*
G01*
D11*
%TO.C,R1*%
X54653641Y-53120000D02*
X54346359Y-53120000D01*
X54653641Y-53880000D02*
X54346359Y-53880000D01*
D15*
%TO.C,J5*%
X39075600Y-18780000D02*
X37275600Y-18780000D01*
X39075600Y-27420000D02*
X37275600Y-27420000D01*
D11*
%TO.C,TP3*%
X51550000Y-46400000D02*
G75*
G02*
X49650000Y-46400000I-950000J0D01*
G01*
X49650000Y-46400000D02*
G75*
G02*
X51550000Y-46400000I950000J0D01*
G01*
D10*
%TO.C,FPC1*%
X46450000Y-31187500D02*
X47340000Y-31187500D01*
X46450000Y-31897500D02*
X46450000Y-31187500D01*
X46450000Y-35187500D02*
X46450000Y-34877500D01*
X46450000Y-35187500D02*
X53550000Y-35187500D01*
X53550000Y-31187500D02*
X52660000Y-31187500D01*
X53550000Y-31897500D02*
X53550000Y-31187500D01*
X53550000Y-35187500D02*
X53550000Y-34877500D01*
D11*
%TO.C,C6*%
X44812164Y-46440000D02*
X45027836Y-46440000D01*
X44812164Y-47160000D02*
X45027836Y-47160000D01*
%TO.C,C3*%
X56207836Y-48190000D02*
X55992164Y-48190000D01*
X56207836Y-48910000D02*
X55992164Y-48910000D01*
%TO.C,R3*%
X44403641Y-20720000D02*
X44096359Y-20720000D01*
X44403641Y-21480000D02*
X44096359Y-21480000D01*
%TO.C,C2*%
X54392164Y-54640000D02*
X54607836Y-54640000D01*
X54392164Y-55360000D02*
X54607836Y-55360000D01*
%TO.C,R2*%
X44403641Y-24470000D02*
X44096359Y-24470000D01*
X44403641Y-25230000D02*
X44096359Y-25230000D01*
%TO.C,J1*%
X56385000Y-24120000D02*
X56385000Y-24755000D01*
X56385000Y-24755000D02*
X55750000Y-24755000D01*
%TO.C,J2*%
X46590000Y-59044277D02*
X47640000Y-59044277D01*
X46590000Y-62374277D02*
X46590000Y-59044277D01*
X47640000Y-59044277D02*
X47640000Y-58834277D01*
X47660000Y-63764277D02*
X48160000Y-63764277D01*
X47950000Y-57980724D02*
X48200000Y-58334277D01*
X48160000Y-63764277D02*
X48460000Y-63264277D01*
X48200000Y-58334277D02*
X48450000Y-57980724D01*
X48450000Y-57980724D02*
X47950000Y-57980724D01*
X48460000Y-63264277D02*
X51540000Y-63264277D01*
X51540000Y-63264277D02*
X51840000Y-63764277D01*
X51840000Y-63764277D02*
X52340000Y-63764277D01*
X53410000Y-59044277D02*
X52360000Y-59044277D01*
X53410000Y-62374277D02*
X53410000Y-59044277D01*
%TO.C,C7*%
X45007836Y-45190000D02*
X44792164Y-45190000D01*
X45007836Y-45910000D02*
X44792164Y-45910000D01*
%TD*%
M02*
