  0
SECTION
  2
HEADER
  9
$ANGBASE
  50
0.0
  9
$ANGDIR
  70
1
  9
$MEASUREMENT
  70
1
  0
ENDSEC
  0
SECTION
  2
TABLES
  0
TABLE
  2
LTYPE
  70
4
  0
LTYPE
  5
40F
  2
CONTINUOUS
  70
0
  3
Solid line
  72
65
  73
0
  40
0.0
  0
LTYPE
  5
410
  2
DASHDOT
 70
0
  3
Dash Dot ____ _ ____ _
 72
65
 73
4
 40
2.0
 49
1.25
 49
-0.25
 49
0.25
 49
-0.25
  0
LTYPE
  5
411
  2
DASHED
 70
0
  3
Dashed __ __ __ __ __
 72
65
 73
2
 40
0.75
 49
0.5
 49
-0.25
  0
LTYPE
  5
43B
  2
DOTTED
 70
0
  3
Dotted .  .  .  .
 72
65
 73
2
 40
0.2
 49
0.0
 49
-0.2
  0
ENDTAB
  0
TABLE
  2
STYLE
  70
4
  0
STYLE
  2
KICAD
  70
0
  40
0
  41
1
  42
1
  50
0
  71
0
  3
isocp.shx
  0
STYLE
  2
KICADB
  70
0
  40
0
  41
1
  42
1
  50
0
  71
0
  3
isocp.shx
  0
STYLE
  2
KICADI
  70
0
  40
0
  41
1
  42
1
  50
15
  71
0
  3
isocp.shx
  0
STYLE
  2
KICADBI
  70
0
  40
0
  41
1
  42
1
  50
15
  71
0
  3
isocp.shx
  0
ENDTAB
  0
TABLE
  2
LAYER
  70
1
  0
LAYER
  2
BLACK
  70
0
  62
7
  6
CONTINUOUS
  0
ENDTAB
  0
ENDSEC
  0
SECTION
  2
ENTITIES
0
LINE
8
BLACK
6
CONTINUOUS
10
35.
20
-29.8499999999999979
11
46.
21
-29.8499999999999979
0
LINE
8
BLACK
6
CONTINUOUS
10
46.
20
-63.25
11
46.
21
-58.6099999999999994
0
CIRCLE
8
BLACK
10
46.7999999999999972
20
-36.6000000000000014
40
0.5
0
LINE
8
BLACK
6
CONTINUOUS
10
46.
20
-29.8499999999999979
11
46.
21
-37.
0
CIRCLE
8
BLACK
10
51.5999999999999943
20
-36.6000000000000014
40
0.5
0
CIRCLE
8
BLACK
10
50.
20
-36.6000000000000014
40
0.5
0
LINE
8
BLACK
6
CONTINUOUS
10
54.
20
-29.8499999999999979
11
57.5
21
-29.8499999999999979
0
CIRCLE
8
BLACK
10
53.1999999999999957
20
-36.6000000000000014
40
0.5
0
CIRCLE
8
BLACK
10
48.3999999999999986
20
-36.6000000000000014
40
0.5
0
LINE
8
BLACK
6
CONTINUOUS
10
35.
20
-17.3499999999999979
11
35.
21
-29.8499999999999979
0
LINE
8
BLACK
6
CONTINUOUS
10
54.
20
-63.25
11
46.
21
-63.25
0
ARC
8
BLACK
10
50.
20
-50.
40
9.4937918020146732
50
-245.08154397
51
-114.91845603
0
LINE
8
BLACK
6
CONTINUOUS
10
54.
20
-37.
11
54.
21
-29.8499999999999979
0
LINE
8
BLACK
6
CONTINUOUS
10
57.5
20
-17.3499999999999979
11
35.
21
-17.3499999999999979
0
LINE
8
BLACK
6
CONTINUOUS
10
46.
20
-41.3900000000000006
11
46.
21
-37.
0
LINE
8
BLACK
6
CONTINUOUS
10
54.
20
-63.25
11
54.
21
-58.6099999999999994
0
LINE
8
BLACK
6
CONTINUOUS
10
54.
20
-41.3900000000000006
11
54.
21
-37.
0
LINE
8
BLACK
6
CONTINUOUS
10
57.5
20
-29.8499999999999979
11
57.5
21
-17.3499999999999979
0
ARC
8
BLACK
10
50.
20
-50.
40
9.4937918020146732
50
-65.08154397
51
65.08154397
0
CIRCLE
8
BLACK
10
39.8305999999999969
20
-20.2100000000000009
40
0.324999
0
CIRCLE
8
BLACK
10
39.8305999999999969
20
-25.9899999999999984
40
0.324999
0
LINE
8
BLACK
6
CONTINUOUS
10
39.860599999999998
20
-19.129999999999999
11
40.860599999999998
21
-19.129999999999999
0
ARC
8
BLACK
10
40.860599999999998
20
-18.7799999999999976
40
0.35
50
-90.00000000
51
90.00000000
0
LINE
8
BLACK
6
CONTINUOUS
10
40.860599999999998
20
-18.4299999999999997
11
39.860599999999998
21
-18.4299999999999997
0
ARC
8
BLACK
10
39.860599999999998
20
-18.7799999999999976
40
0.35
50
90.00000000
51
270.00000000
0
LINE
8
BLACK
6
CONTINUOUS
10
35.8806000000000012
20
-19.129999999999999
11
36.4805999999999955
21
-19.129999999999999
0
ARC
8
BLACK
10
36.4805999999999955
20
-18.7799999999999976
40
0.35
50
-90.00000000
51
90.00000000
0
LINE
8
BLACK
6
CONTINUOUS
10
36.4805999999999955
20
-18.4299999999999997
11
35.8806000000000012
21
-18.4299999999999997
0
ARC
8
BLACK
10
35.8806000000000012
20
-18.7799999999999976
40
0.35
50
90.00000000
51
270.00000000
0
LINE
8
BLACK
6
CONTINUOUS
10
39.860599999999998
20
-27.7699999999999996
11
40.860599999999998
21
-27.7699999999999996
0
ARC
8
BLACK
10
40.860599999999998
20
-27.4199999999999982
40
0.35
50
-90.00000000
51
90.00000000
0
LINE
8
BLACK
6
CONTINUOUS
10
40.860599999999998
20
-27.0700000000000003
11
39.860599999999998
21
-27.0700000000000003
0
ARC
8
BLACK
10
39.860599999999998
20
-27.4199999999999982
40
0.35
50
90.00000000
51
270.00000000
0
LINE
8
BLACK
6
CONTINUOUS
10
35.8806000000000012
20
-27.7699999999999996
11
36.4805999999999955
21
-27.7699999999999996
0
ARC
8
BLACK
10
36.4805999999999955
20
-27.4199999999999982
40
0.35
50
-90.00000000
51
90.00000000
0
LINE
8
BLACK
6
CONTINUOUS
10
36.4805999999999955
20
-27.0700000000000003
11
35.8806000000000012
21
-27.0700000000000003
0
ARC
8
BLACK
10
35.8806000000000012
20
-27.4199999999999982
40
0.35
50
90.00000000
51
270.00000000
0
CIRCLE
8
BLACK
10
55.1149999999999949
20
-25.3900000000000006
40
0.495299
0
CIRCLE
8
BLACK
10
54.0989999999999966
20
-20.3099999999999987
40
0.495299
0
CIRCLE
8
BLACK
10
56.1310000000000002
20
-20.3099999999999987
40
0.495299
0
CIRCLE
8
BLACK
10
39.8305999999999969
20
-20.2100000000000009
40
0.324999
0
CIRCLE
8
BLACK
10
39.8305999999999969
20
-25.9899999999999984
40
0.324999
0
LINE
8
BLACK
6
CONTINUOUS
10
39.860599999999998
20
-19.129999999999999
11
40.860599999999998
21
-19.129999999999999
0
ARC
8
BLACK
10
40.860599999999998
20
-18.7799999999999976
40
0.35
50
-90.00000000
51
90.00000000
0
LINE
8
BLACK
6
CONTINUOUS
10
40.860599999999998
20
-18.4299999999999997
11
39.860599999999998
21
-18.4299999999999997
0
ARC
8
BLACK
10
39.860599999999998
20
-18.7799999999999976
40
0.35
50
90.00000000
51
270.00000000
0
LINE
8
BLACK
6
CONTINUOUS
10
35.8806000000000012
20
-19.129999999999999
11
36.4805999999999955
21
-19.129999999999999
0
ARC
8
BLACK
10
36.4805999999999955
20
-18.7799999999999976
40
0.35
50
-90.00000000
51
90.00000000
0
LINE
8
BLACK
6
CONTINUOUS
10
36.4805999999999955
20
-18.4299999999999997
11
35.8806000000000012
21
-18.4299999999999997
0
ARC
8
BLACK
10
35.8806000000000012
20
-18.7799999999999976
40
0.35
50
90.00000000
51
270.00000000
0
LINE
8
BLACK
6
CONTINUOUS
10
39.860599999999998
20
-27.7699999999999996
11
40.860599999999998
21
-27.7699999999999996
0
ARC
8
BLACK
10
40.860599999999998
20
-27.4199999999999982
40
0.35
50
-90.00000000
51
90.00000000
0
LINE
8
BLACK
6
CONTINUOUS
10
40.860599999999998
20
-27.0700000000000003
11
39.860599999999998
21
-27.0700000000000003
0
ARC
8
BLACK
10
39.860599999999998
20
-27.4199999999999982
40
0.35
50
90.00000000
51
270.00000000
0
LINE
8
BLACK
6
CONTINUOUS
10
35.8806000000000012
20
-27.7699999999999996
11
36.4805999999999955
21
-27.7699999999999996
0
ARC
8
BLACK
10
36.4805999999999955
20
-27.4199999999999982
40
0.35
50
-90.00000000
51
90.00000000
0
LINE
8
BLACK
6
CONTINUOUS
10
36.4805999999999955
20
-27.0700000000000003
11
35.8806000000000012
21
-27.0700000000000003
0
ARC
8
BLACK
10
35.8806000000000012
20
-27.4199999999999982
40
0.35
50
90.00000000
51
270.00000000
0
CIRCLE
8
BLACK
10
55.1149999999999949
20
-25.3900000000000006
40
0.495299
0
CIRCLE
8
BLACK
10
54.0989999999999966
20
-20.3099999999999987
40
0.495299
0
CIRCLE
8
BLACK
10
56.1310000000000002
20
-20.3099999999999987
40
0.495299
  0
ENDSEC
  0
EOF
