%TF.GenerationSoftware,KiCad,Pcbnew,8.0.5-8.0.5-0~ubuntu20.04.1*%
%TF.CreationDate,2025-01-20T10:50:09+00:00*%
%TF.ProjectId,servo,73657276-6f2e-46b6-9963-61645f706362,rev?*%
%TF.SameCoordinates,Original*%
%TF.FileFunction,Drillmap*%
%TF.FilePolarity,Positive*%
%FSLAX45Y45*%
G04 Gerber Fmt 4.5, Leading zero omitted, Abs format (unit mm)*
G04 Created by KiCad (PCBNEW 8.0.5-8.0.5-0~ubuntu20.04.1) date 2025-01-20 10:50:09*
%MOMM*%
%LPD*%
G01*
G04 APERTURE LIST*
%ADD10C,0.050000*%
%ADD11C,0.200000*%
%ADD12C,0.100000*%
G04 APERTURE END LIST*
D10*
X3500000Y-2985000D02*
X4600000Y-2985000D01*
X4600000Y-6325000D02*
X4600000Y-5861000D01*
X4730000Y-3660000D02*
G75*
G02*
X4630000Y-3660000I-50000J0D01*
G01*
X4630000Y-3660000D02*
G75*
G02*
X4730000Y-3660000I50000J0D01*
G01*
X4600000Y-2985000D02*
X4600000Y-3700000D01*
X5210000Y-3660000D02*
G75*
G02*
X5110000Y-3660000I-50000J0D01*
G01*
X5110000Y-3660000D02*
G75*
G02*
X5210000Y-3660000I50000J0D01*
G01*
X5050000Y-3660000D02*
G75*
G02*
X4950000Y-3660000I-50000J0D01*
G01*
X4950000Y-3660000D02*
G75*
G02*
X5050000Y-3660000I50000J0D01*
G01*
X5400000Y-2985000D02*
X5750000Y-2985000D01*
X5370000Y-3660000D02*
G75*
G02*
X5270000Y-3660000I-50000J0D01*
G01*
X5270000Y-3660000D02*
G75*
G02*
X5370000Y-3660000I50000J0D01*
G01*
X4890000Y-3660000D02*
G75*
G02*
X4790000Y-3660000I-50000J0D01*
G01*
X4790000Y-3660000D02*
G75*
G02*
X4890000Y-3660000I50000J0D01*
G01*
X3500000Y-1735000D02*
X3500000Y-2985000D01*
X5400000Y-6325000D02*
X4600000Y-6325000D01*
X4600000Y-5861000D02*
G75*
G02*
X4600000Y-4139000I400000J861000D01*
G01*
X5400000Y-3700000D02*
X5400000Y-2985000D01*
X5750000Y-1735000D02*
X3500000Y-1735000D01*
X4600000Y-4139000D02*
X4600000Y-3700000D01*
X5400000Y-6325000D02*
X5400000Y-5861000D01*
X5400000Y-4139000D02*
X5400000Y-3700000D01*
X5750000Y-2985000D02*
X5750000Y-1735000D01*
X5400000Y-4139000D02*
G75*
G02*
X5400000Y-5861000I-400000J-861000D01*
G01*
D11*
D12*
X3950560Y-1988500D02*
X4015560Y-2053500D01*
X4015560Y-1988500D02*
X3950560Y-2053500D01*
X3950560Y-2566500D02*
X4015560Y-2631500D01*
X4015560Y-2566500D02*
X3950560Y-2631500D01*
X5459430Y-2031000D02*
G75*
G02*
X5360370Y-2031000I-49530J0D01*
G01*
X5360370Y-2031000D02*
G75*
G02*
X5459430Y-2031000I49530J0D01*
G01*
X5561030Y-2539000D02*
G75*
G02*
X5461970Y-2539000I-49530J0D01*
G01*
X5461970Y-2539000D02*
G75*
G02*
X5561030Y-2539000I49530J0D01*
G01*
X5662630Y-2031000D02*
G75*
G02*
X5563570Y-2031000I-49530J0D01*
G01*
X5563570Y-2031000D02*
G75*
G02*
X5662630Y-2031000I49530J0D01*
G01*
D11*
X3758277Y-6638984D02*
X3758277Y-6438984D01*
X3758277Y-6438984D02*
X3805896Y-6438984D01*
X3805896Y-6438984D02*
X3834467Y-6448508D01*
X3834467Y-6448508D02*
X3853515Y-6467555D01*
X3853515Y-6467555D02*
X3863039Y-6486603D01*
X3863039Y-6486603D02*
X3872562Y-6524698D01*
X3872562Y-6524698D02*
X3872562Y-6553269D01*
X3872562Y-6553269D02*
X3863039Y-6591365D01*
X3863039Y-6591365D02*
X3853515Y-6610412D01*
X3853515Y-6610412D02*
X3834467Y-6629460D01*
X3834467Y-6629460D02*
X3805896Y-6638984D01*
X3805896Y-6638984D02*
X3758277Y-6638984D01*
X3958277Y-6638984D02*
X3958277Y-6505650D01*
X3958277Y-6543746D02*
X3967801Y-6524698D01*
X3967801Y-6524698D02*
X3977324Y-6515174D01*
X3977324Y-6515174D02*
X3996372Y-6505650D01*
X3996372Y-6505650D02*
X4015420Y-6505650D01*
X4082086Y-6638984D02*
X4082086Y-6505650D01*
X4082086Y-6438984D02*
X4072562Y-6448508D01*
X4072562Y-6448508D02*
X4082086Y-6458031D01*
X4082086Y-6458031D02*
X4091610Y-6448508D01*
X4091610Y-6448508D02*
X4082086Y-6438984D01*
X4082086Y-6438984D02*
X4082086Y-6458031D01*
X4205896Y-6638984D02*
X4186848Y-6629460D01*
X4186848Y-6629460D02*
X4177324Y-6610412D01*
X4177324Y-6610412D02*
X4177324Y-6438984D01*
X4310658Y-6638984D02*
X4291610Y-6629460D01*
X4291610Y-6629460D02*
X4282086Y-6610412D01*
X4282086Y-6610412D02*
X4282086Y-6438984D01*
X4539229Y-6638984D02*
X4539229Y-6438984D01*
X4539229Y-6438984D02*
X4605896Y-6581841D01*
X4605896Y-6581841D02*
X4672563Y-6438984D01*
X4672563Y-6438984D02*
X4672563Y-6638984D01*
X4853515Y-6638984D02*
X4853515Y-6534222D01*
X4853515Y-6534222D02*
X4843991Y-6515174D01*
X4843991Y-6515174D02*
X4824944Y-6505650D01*
X4824944Y-6505650D02*
X4786848Y-6505650D01*
X4786848Y-6505650D02*
X4767801Y-6515174D01*
X4853515Y-6629460D02*
X4834467Y-6638984D01*
X4834467Y-6638984D02*
X4786848Y-6638984D01*
X4786848Y-6638984D02*
X4767801Y-6629460D01*
X4767801Y-6629460D02*
X4758277Y-6610412D01*
X4758277Y-6610412D02*
X4758277Y-6591365D01*
X4758277Y-6591365D02*
X4767801Y-6572317D01*
X4767801Y-6572317D02*
X4786848Y-6562793D01*
X4786848Y-6562793D02*
X4834467Y-6562793D01*
X4834467Y-6562793D02*
X4853515Y-6553269D01*
X4948753Y-6505650D02*
X4948753Y-6705650D01*
X4948753Y-6515174D02*
X4967801Y-6505650D01*
X4967801Y-6505650D02*
X5005896Y-6505650D01*
X5005896Y-6505650D02*
X5024944Y-6515174D01*
X5024944Y-6515174D02*
X5034467Y-6524698D01*
X5034467Y-6524698D02*
X5043991Y-6543746D01*
X5043991Y-6543746D02*
X5043991Y-6600888D01*
X5043991Y-6600888D02*
X5034467Y-6619936D01*
X5034467Y-6619936D02*
X5024944Y-6629460D01*
X5024944Y-6629460D02*
X5005896Y-6638984D01*
X5005896Y-6638984D02*
X4967801Y-6638984D01*
X4967801Y-6638984D02*
X4948753Y-6629460D01*
X5129705Y-6619936D02*
X5139229Y-6629460D01*
X5139229Y-6629460D02*
X5129705Y-6638984D01*
X5129705Y-6638984D02*
X5120182Y-6629460D01*
X5120182Y-6629460D02*
X5129705Y-6619936D01*
X5129705Y-6619936D02*
X5129705Y-6638984D01*
X5129705Y-6515174D02*
X5139229Y-6524698D01*
X5139229Y-6524698D02*
X5129705Y-6534222D01*
X5129705Y-6534222D02*
X5120182Y-6524698D01*
X5120182Y-6524698D02*
X5129705Y-6515174D01*
X5129705Y-6515174D02*
X5129705Y-6534222D01*
D12*
X3432500Y-6935000D02*
X3497500Y-7000000D01*
X3497500Y-6935000D02*
X3432500Y-7000000D01*
D11*
X3796372Y-6858984D02*
X3815420Y-6858984D01*
X3815420Y-6858984D02*
X3834467Y-6868508D01*
X3834467Y-6868508D02*
X3843991Y-6878031D01*
X3843991Y-6878031D02*
X3853515Y-6897079D01*
X3853515Y-6897079D02*
X3863039Y-6935174D01*
X3863039Y-6935174D02*
X3863039Y-6982793D01*
X3863039Y-6982793D02*
X3853515Y-7020888D01*
X3853515Y-7020888D02*
X3843991Y-7039936D01*
X3843991Y-7039936D02*
X3834467Y-7049460D01*
X3834467Y-7049460D02*
X3815420Y-7058984D01*
X3815420Y-7058984D02*
X3796372Y-7058984D01*
X3796372Y-7058984D02*
X3777324Y-7049460D01*
X3777324Y-7049460D02*
X3767801Y-7039936D01*
X3767801Y-7039936D02*
X3758277Y-7020888D01*
X3758277Y-7020888D02*
X3748753Y-6982793D01*
X3748753Y-6982793D02*
X3748753Y-6935174D01*
X3748753Y-6935174D02*
X3758277Y-6897079D01*
X3758277Y-6897079D02*
X3767801Y-6878031D01*
X3767801Y-6878031D02*
X3777324Y-6868508D01*
X3777324Y-6868508D02*
X3796372Y-6858984D01*
X3948753Y-7039936D02*
X3958277Y-7049460D01*
X3958277Y-7049460D02*
X3948753Y-7058984D01*
X3948753Y-7058984D02*
X3939229Y-7049460D01*
X3939229Y-7049460D02*
X3948753Y-7039936D01*
X3948753Y-7039936D02*
X3948753Y-7058984D01*
X4129705Y-6858984D02*
X4091610Y-6858984D01*
X4091610Y-6858984D02*
X4072562Y-6868508D01*
X4072562Y-6868508D02*
X4063039Y-6878031D01*
X4063039Y-6878031D02*
X4043991Y-6906603D01*
X4043991Y-6906603D02*
X4034467Y-6944698D01*
X4034467Y-6944698D02*
X4034467Y-7020888D01*
X4034467Y-7020888D02*
X4043991Y-7039936D01*
X4043991Y-7039936D02*
X4053515Y-7049460D01*
X4053515Y-7049460D02*
X4072562Y-7058984D01*
X4072562Y-7058984D02*
X4110658Y-7058984D01*
X4110658Y-7058984D02*
X4129705Y-7049460D01*
X4129705Y-7049460D02*
X4139229Y-7039936D01*
X4139229Y-7039936D02*
X4148753Y-7020888D01*
X4148753Y-7020888D02*
X4148753Y-6973269D01*
X4148753Y-6973269D02*
X4139229Y-6954222D01*
X4139229Y-6954222D02*
X4129705Y-6944698D01*
X4129705Y-6944698D02*
X4110658Y-6935174D01*
X4110658Y-6935174D02*
X4072562Y-6935174D01*
X4072562Y-6935174D02*
X4053515Y-6944698D01*
X4053515Y-6944698D02*
X4043991Y-6954222D01*
X4043991Y-6954222D02*
X4034467Y-6973269D01*
X4329705Y-6858984D02*
X4234467Y-6858984D01*
X4234467Y-6858984D02*
X4224944Y-6954222D01*
X4224944Y-6954222D02*
X4234467Y-6944698D01*
X4234467Y-6944698D02*
X4253515Y-6935174D01*
X4253515Y-6935174D02*
X4301134Y-6935174D01*
X4301134Y-6935174D02*
X4320182Y-6944698D01*
X4320182Y-6944698D02*
X4329705Y-6954222D01*
X4329705Y-6954222D02*
X4339229Y-6973269D01*
X4339229Y-6973269D02*
X4339229Y-7020888D01*
X4339229Y-7020888D02*
X4329705Y-7039936D01*
X4329705Y-7039936D02*
X4320182Y-7049460D01*
X4320182Y-7049460D02*
X4301134Y-7058984D01*
X4301134Y-7058984D02*
X4253515Y-7058984D01*
X4253515Y-7058984D02*
X4234467Y-7049460D01*
X4234467Y-7049460D02*
X4224944Y-7039936D01*
X4463039Y-6858984D02*
X4482086Y-6858984D01*
X4482086Y-6858984D02*
X4501134Y-6868508D01*
X4501134Y-6868508D02*
X4510658Y-6878031D01*
X4510658Y-6878031D02*
X4520182Y-6897079D01*
X4520182Y-6897079D02*
X4529705Y-6935174D01*
X4529705Y-6935174D02*
X4529705Y-6982793D01*
X4529705Y-6982793D02*
X4520182Y-7020888D01*
X4520182Y-7020888D02*
X4510658Y-7039936D01*
X4510658Y-7039936D02*
X4501134Y-7049460D01*
X4501134Y-7049460D02*
X4482086Y-7058984D01*
X4482086Y-7058984D02*
X4463039Y-7058984D01*
X4463039Y-7058984D02*
X4443991Y-7049460D01*
X4443991Y-7049460D02*
X4434467Y-7039936D01*
X4434467Y-7039936D02*
X4424944Y-7020888D01*
X4424944Y-7020888D02*
X4415420Y-6982793D01*
X4415420Y-6982793D02*
X4415420Y-6935174D01*
X4415420Y-6935174D02*
X4424944Y-6897079D01*
X4424944Y-6897079D02*
X4434467Y-6878031D01*
X4434467Y-6878031D02*
X4443991Y-6868508D01*
X4443991Y-6868508D02*
X4463039Y-6858984D01*
X4615420Y-7058984D02*
X4615420Y-6925650D01*
X4615420Y-6944698D02*
X4624944Y-6935174D01*
X4624944Y-6935174D02*
X4643991Y-6925650D01*
X4643991Y-6925650D02*
X4672563Y-6925650D01*
X4672563Y-6925650D02*
X4691610Y-6935174D01*
X4691610Y-6935174D02*
X4701134Y-6954222D01*
X4701134Y-6954222D02*
X4701134Y-7058984D01*
X4701134Y-6954222D02*
X4710658Y-6935174D01*
X4710658Y-6935174D02*
X4729705Y-6925650D01*
X4729705Y-6925650D02*
X4758277Y-6925650D01*
X4758277Y-6925650D02*
X4777325Y-6935174D01*
X4777325Y-6935174D02*
X4786848Y-6954222D01*
X4786848Y-6954222D02*
X4786848Y-7058984D01*
X4882086Y-7058984D02*
X4882086Y-6925650D01*
X4882086Y-6944698D02*
X4891610Y-6935174D01*
X4891610Y-6935174D02*
X4910658Y-6925650D01*
X4910658Y-6925650D02*
X4939229Y-6925650D01*
X4939229Y-6925650D02*
X4958277Y-6935174D01*
X4958277Y-6935174D02*
X4967801Y-6954222D01*
X4967801Y-6954222D02*
X4967801Y-7058984D01*
X4967801Y-6954222D02*
X4977325Y-6935174D01*
X4977325Y-6935174D02*
X4996372Y-6925650D01*
X4996372Y-6925650D02*
X5024944Y-6925650D01*
X5024944Y-6925650D02*
X5043991Y-6935174D01*
X5043991Y-6935174D02*
X5053515Y-6954222D01*
X5053515Y-6954222D02*
X5053515Y-7058984D01*
X5443991Y-6849460D02*
X5272563Y-7106603D01*
X5701134Y-6858984D02*
X5720182Y-6858984D01*
X5720182Y-6858984D02*
X5739229Y-6868508D01*
X5739229Y-6868508D02*
X5748753Y-6878031D01*
X5748753Y-6878031D02*
X5758277Y-6897079D01*
X5758277Y-6897079D02*
X5767801Y-6935174D01*
X5767801Y-6935174D02*
X5767801Y-6982793D01*
X5767801Y-6982793D02*
X5758277Y-7020888D01*
X5758277Y-7020888D02*
X5748753Y-7039936D01*
X5748753Y-7039936D02*
X5739229Y-7049460D01*
X5739229Y-7049460D02*
X5720182Y-7058984D01*
X5720182Y-7058984D02*
X5701134Y-7058984D01*
X5701134Y-7058984D02*
X5682086Y-7049460D01*
X5682086Y-7049460D02*
X5672563Y-7039936D01*
X5672563Y-7039936D02*
X5663039Y-7020888D01*
X5663039Y-7020888D02*
X5653515Y-6982793D01*
X5653515Y-6982793D02*
X5653515Y-6935174D01*
X5653515Y-6935174D02*
X5663039Y-6897079D01*
X5663039Y-6897079D02*
X5672563Y-6878031D01*
X5672563Y-6878031D02*
X5682086Y-6868508D01*
X5682086Y-6868508D02*
X5701134Y-6858984D01*
X5853515Y-7039936D02*
X5863039Y-7049460D01*
X5863039Y-7049460D02*
X5853515Y-7058984D01*
X5853515Y-7058984D02*
X5843991Y-7049460D01*
X5843991Y-7049460D02*
X5853515Y-7039936D01*
X5853515Y-7039936D02*
X5853515Y-7058984D01*
X5986848Y-6858984D02*
X6005896Y-6858984D01*
X6005896Y-6858984D02*
X6024944Y-6868508D01*
X6024944Y-6868508D02*
X6034467Y-6878031D01*
X6034467Y-6878031D02*
X6043991Y-6897079D01*
X6043991Y-6897079D02*
X6053515Y-6935174D01*
X6053515Y-6935174D02*
X6053515Y-6982793D01*
X6053515Y-6982793D02*
X6043991Y-7020888D01*
X6043991Y-7020888D02*
X6034467Y-7039936D01*
X6034467Y-7039936D02*
X6024944Y-7049460D01*
X6024944Y-7049460D02*
X6005896Y-7058984D01*
X6005896Y-7058984D02*
X5986848Y-7058984D01*
X5986848Y-7058984D02*
X5967801Y-7049460D01*
X5967801Y-7049460D02*
X5958277Y-7039936D01*
X5958277Y-7039936D02*
X5948753Y-7020888D01*
X5948753Y-7020888D02*
X5939229Y-6982793D01*
X5939229Y-6982793D02*
X5939229Y-6935174D01*
X5939229Y-6935174D02*
X5948753Y-6897079D01*
X5948753Y-6897079D02*
X5958277Y-6878031D01*
X5958277Y-6878031D02*
X5967801Y-6868508D01*
X5967801Y-6868508D02*
X5986848Y-6858984D01*
X6129706Y-6878031D02*
X6139229Y-6868508D01*
X6139229Y-6868508D02*
X6158277Y-6858984D01*
X6158277Y-6858984D02*
X6205896Y-6858984D01*
X6205896Y-6858984D02*
X6224944Y-6868508D01*
X6224944Y-6868508D02*
X6234467Y-6878031D01*
X6234467Y-6878031D02*
X6243991Y-6897079D01*
X6243991Y-6897079D02*
X6243991Y-6916127D01*
X6243991Y-6916127D02*
X6234467Y-6944698D01*
X6234467Y-6944698D02*
X6120182Y-7058984D01*
X6120182Y-7058984D02*
X6243991Y-7058984D01*
X6424944Y-6858984D02*
X6329706Y-6858984D01*
X6329706Y-6858984D02*
X6320182Y-6954222D01*
X6320182Y-6954222D02*
X6329706Y-6944698D01*
X6329706Y-6944698D02*
X6348753Y-6935174D01*
X6348753Y-6935174D02*
X6396372Y-6935174D01*
X6396372Y-6935174D02*
X6415420Y-6944698D01*
X6415420Y-6944698D02*
X6424944Y-6954222D01*
X6424944Y-6954222D02*
X6434467Y-6973269D01*
X6434467Y-6973269D02*
X6434467Y-7020888D01*
X6434467Y-7020888D02*
X6424944Y-7039936D01*
X6424944Y-7039936D02*
X6415420Y-7049460D01*
X6415420Y-7049460D02*
X6396372Y-7058984D01*
X6396372Y-7058984D02*
X6348753Y-7058984D01*
X6348753Y-7058984D02*
X6329706Y-7049460D01*
X6329706Y-7049460D02*
X6320182Y-7039936D01*
X6605896Y-6858984D02*
X6567801Y-6858984D01*
X6567801Y-6858984D02*
X6548753Y-6868508D01*
X6548753Y-6868508D02*
X6539229Y-6878031D01*
X6539229Y-6878031D02*
X6520182Y-6906603D01*
X6520182Y-6906603D02*
X6510658Y-6944698D01*
X6510658Y-6944698D02*
X6510658Y-7020888D01*
X6510658Y-7020888D02*
X6520182Y-7039936D01*
X6520182Y-7039936D02*
X6529706Y-7049460D01*
X6529706Y-7049460D02*
X6548753Y-7058984D01*
X6548753Y-7058984D02*
X6586848Y-7058984D01*
X6586848Y-7058984D02*
X6605896Y-7049460D01*
X6605896Y-7049460D02*
X6615420Y-7039936D01*
X6615420Y-7039936D02*
X6624944Y-7020888D01*
X6624944Y-7020888D02*
X6624944Y-6973269D01*
X6624944Y-6973269D02*
X6615420Y-6954222D01*
X6615420Y-6954222D02*
X6605896Y-6944698D01*
X6605896Y-6944698D02*
X6586848Y-6935174D01*
X6586848Y-6935174D02*
X6548753Y-6935174D01*
X6548753Y-6935174D02*
X6529706Y-6944698D01*
X6529706Y-6944698D02*
X6520182Y-6954222D01*
X6520182Y-6954222D02*
X6510658Y-6973269D01*
X6701134Y-6858984D02*
X6701134Y-6897079D01*
X6777325Y-6858984D02*
X6777325Y-6897079D01*
X7072563Y-7135174D02*
X7063039Y-7125650D01*
X7063039Y-7125650D02*
X7043991Y-7097079D01*
X7043991Y-7097079D02*
X7034468Y-7078031D01*
X7034468Y-7078031D02*
X7024944Y-7049460D01*
X7024944Y-7049460D02*
X7015420Y-7001841D01*
X7015420Y-7001841D02*
X7015420Y-6963746D01*
X7015420Y-6963746D02*
X7024944Y-6916127D01*
X7024944Y-6916127D02*
X7034468Y-6887555D01*
X7034468Y-6887555D02*
X7043991Y-6868508D01*
X7043991Y-6868508D02*
X7063039Y-6839936D01*
X7063039Y-6839936D02*
X7072563Y-6830412D01*
X7139229Y-6878031D02*
X7148753Y-6868508D01*
X7148753Y-6868508D02*
X7167801Y-6858984D01*
X7167801Y-6858984D02*
X7215420Y-6858984D01*
X7215420Y-6858984D02*
X7234468Y-6868508D01*
X7234468Y-6868508D02*
X7243991Y-6878031D01*
X7243991Y-6878031D02*
X7253515Y-6897079D01*
X7253515Y-6897079D02*
X7253515Y-6916127D01*
X7253515Y-6916127D02*
X7243991Y-6944698D01*
X7243991Y-6944698D02*
X7129706Y-7058984D01*
X7129706Y-7058984D02*
X7253515Y-7058984D01*
X7491610Y-7058984D02*
X7491610Y-6858984D01*
X7577325Y-7058984D02*
X7577325Y-6954222D01*
X7577325Y-6954222D02*
X7567801Y-6935174D01*
X7567801Y-6935174D02*
X7548753Y-6925650D01*
X7548753Y-6925650D02*
X7520182Y-6925650D01*
X7520182Y-6925650D02*
X7501134Y-6935174D01*
X7501134Y-6935174D02*
X7491610Y-6944698D01*
X7701134Y-7058984D02*
X7682087Y-7049460D01*
X7682087Y-7049460D02*
X7672563Y-7039936D01*
X7672563Y-7039936D02*
X7663039Y-7020888D01*
X7663039Y-7020888D02*
X7663039Y-6963746D01*
X7663039Y-6963746D02*
X7672563Y-6944698D01*
X7672563Y-6944698D02*
X7682087Y-6935174D01*
X7682087Y-6935174D02*
X7701134Y-6925650D01*
X7701134Y-6925650D02*
X7729706Y-6925650D01*
X7729706Y-6925650D02*
X7748753Y-6935174D01*
X7748753Y-6935174D02*
X7758277Y-6944698D01*
X7758277Y-6944698D02*
X7767801Y-6963746D01*
X7767801Y-6963746D02*
X7767801Y-7020888D01*
X7767801Y-7020888D02*
X7758277Y-7039936D01*
X7758277Y-7039936D02*
X7748753Y-7049460D01*
X7748753Y-7049460D02*
X7729706Y-7058984D01*
X7729706Y-7058984D02*
X7701134Y-7058984D01*
X7882087Y-7058984D02*
X7863039Y-7049460D01*
X7863039Y-7049460D02*
X7853515Y-7030412D01*
X7853515Y-7030412D02*
X7853515Y-6858984D01*
X8034468Y-7049460D02*
X8015420Y-7058984D01*
X8015420Y-7058984D02*
X7977325Y-7058984D01*
X7977325Y-7058984D02*
X7958277Y-7049460D01*
X7958277Y-7049460D02*
X7948753Y-7030412D01*
X7948753Y-7030412D02*
X7948753Y-6954222D01*
X7948753Y-6954222D02*
X7958277Y-6935174D01*
X7958277Y-6935174D02*
X7977325Y-6925650D01*
X7977325Y-6925650D02*
X8015420Y-6925650D01*
X8015420Y-6925650D02*
X8034468Y-6935174D01*
X8034468Y-6935174D02*
X8043991Y-6954222D01*
X8043991Y-6954222D02*
X8043991Y-6973269D01*
X8043991Y-6973269D02*
X7948753Y-6992317D01*
X8120182Y-7049460D02*
X8139230Y-7058984D01*
X8139230Y-7058984D02*
X8177325Y-7058984D01*
X8177325Y-7058984D02*
X8196372Y-7049460D01*
X8196372Y-7049460D02*
X8205896Y-7030412D01*
X8205896Y-7030412D02*
X8205896Y-7020888D01*
X8205896Y-7020888D02*
X8196372Y-7001841D01*
X8196372Y-7001841D02*
X8177325Y-6992317D01*
X8177325Y-6992317D02*
X8148753Y-6992317D01*
X8148753Y-6992317D02*
X8129706Y-6982793D01*
X8129706Y-6982793D02*
X8120182Y-6963746D01*
X8120182Y-6963746D02*
X8120182Y-6954222D01*
X8120182Y-6954222D02*
X8129706Y-6935174D01*
X8129706Y-6935174D02*
X8148753Y-6925650D01*
X8148753Y-6925650D02*
X8177325Y-6925650D01*
X8177325Y-6925650D02*
X8196372Y-6935174D01*
X8272563Y-7135174D02*
X8282087Y-7125650D01*
X8282087Y-7125650D02*
X8301134Y-7097079D01*
X8301134Y-7097079D02*
X8310658Y-7078031D01*
X8310658Y-7078031D02*
X8320182Y-7049460D01*
X8320182Y-7049460D02*
X8329706Y-7001841D01*
X8329706Y-7001841D02*
X8329706Y-6963746D01*
X8329706Y-6963746D02*
X8320182Y-6916127D01*
X8320182Y-6916127D02*
X8310658Y-6887555D01*
X8310658Y-6887555D02*
X8301134Y-6868508D01*
X8301134Y-6868508D02*
X8282087Y-6839936D01*
X8282087Y-6839936D02*
X8272563Y-6830412D01*
X8634468Y-7135174D02*
X8624944Y-7125650D01*
X8624944Y-7125650D02*
X8605896Y-7097079D01*
X8605896Y-7097079D02*
X8596373Y-7078031D01*
X8596373Y-7078031D02*
X8586849Y-7049460D01*
X8586849Y-7049460D02*
X8577325Y-7001841D01*
X8577325Y-7001841D02*
X8577325Y-6963746D01*
X8577325Y-6963746D02*
X8586849Y-6916127D01*
X8586849Y-6916127D02*
X8596373Y-6887555D01*
X8596373Y-6887555D02*
X8605896Y-6868508D01*
X8605896Y-6868508D02*
X8624944Y-6839936D01*
X8624944Y-6839936D02*
X8634468Y-6830412D01*
X8710658Y-6925650D02*
X8710658Y-7058984D01*
X8710658Y-6944698D02*
X8720182Y-6935174D01*
X8720182Y-6935174D02*
X8739230Y-6925650D01*
X8739230Y-6925650D02*
X8767801Y-6925650D01*
X8767801Y-6925650D02*
X8786849Y-6935174D01*
X8786849Y-6935174D02*
X8796373Y-6954222D01*
X8796373Y-6954222D02*
X8796373Y-7058984D01*
X8920182Y-7058984D02*
X8901134Y-7049460D01*
X8901134Y-7049460D02*
X8891611Y-7039936D01*
X8891611Y-7039936D02*
X8882087Y-7020888D01*
X8882087Y-7020888D02*
X8882087Y-6963746D01*
X8882087Y-6963746D02*
X8891611Y-6944698D01*
X8891611Y-6944698D02*
X8901134Y-6935174D01*
X8901134Y-6935174D02*
X8920182Y-6925650D01*
X8920182Y-6925650D02*
X8948754Y-6925650D01*
X8948754Y-6925650D02*
X8967801Y-6935174D01*
X8967801Y-6935174D02*
X8977325Y-6944698D01*
X8977325Y-6944698D02*
X8986849Y-6963746D01*
X8986849Y-6963746D02*
X8986849Y-7020888D01*
X8986849Y-7020888D02*
X8977325Y-7039936D01*
X8977325Y-7039936D02*
X8967801Y-7049460D01*
X8967801Y-7049460D02*
X8948754Y-7058984D01*
X8948754Y-7058984D02*
X8920182Y-7058984D01*
X9043992Y-6925650D02*
X9120182Y-6925650D01*
X9072563Y-6858984D02*
X9072563Y-7030412D01*
X9072563Y-7030412D02*
X9082087Y-7049460D01*
X9082087Y-7049460D02*
X9101134Y-7058984D01*
X9101134Y-7058984D02*
X9120182Y-7058984D01*
X9339230Y-6925650D02*
X9339230Y-7125650D01*
X9339230Y-6935174D02*
X9358277Y-6925650D01*
X9358277Y-6925650D02*
X9396373Y-6925650D01*
X9396373Y-6925650D02*
X9415420Y-6935174D01*
X9415420Y-6935174D02*
X9424944Y-6944698D01*
X9424944Y-6944698D02*
X9434468Y-6963746D01*
X9434468Y-6963746D02*
X9434468Y-7020888D01*
X9434468Y-7020888D02*
X9424944Y-7039936D01*
X9424944Y-7039936D02*
X9415420Y-7049460D01*
X9415420Y-7049460D02*
X9396373Y-7058984D01*
X9396373Y-7058984D02*
X9358277Y-7058984D01*
X9358277Y-7058984D02*
X9339230Y-7049460D01*
X9548754Y-7058984D02*
X9529706Y-7049460D01*
X9529706Y-7049460D02*
X9520182Y-7030412D01*
X9520182Y-7030412D02*
X9520182Y-6858984D01*
X9710658Y-7058984D02*
X9710658Y-6954222D01*
X9710658Y-6954222D02*
X9701135Y-6935174D01*
X9701135Y-6935174D02*
X9682087Y-6925650D01*
X9682087Y-6925650D02*
X9643992Y-6925650D01*
X9643992Y-6925650D02*
X9624944Y-6935174D01*
X9710658Y-7049460D02*
X9691611Y-7058984D01*
X9691611Y-7058984D02*
X9643992Y-7058984D01*
X9643992Y-7058984D02*
X9624944Y-7049460D01*
X9624944Y-7049460D02*
X9615420Y-7030412D01*
X9615420Y-7030412D02*
X9615420Y-7011365D01*
X9615420Y-7011365D02*
X9624944Y-6992317D01*
X9624944Y-6992317D02*
X9643992Y-6982793D01*
X9643992Y-6982793D02*
X9691611Y-6982793D01*
X9691611Y-6982793D02*
X9710658Y-6973269D01*
X9777325Y-6925650D02*
X9853515Y-6925650D01*
X9805896Y-6858984D02*
X9805896Y-7030412D01*
X9805896Y-7030412D02*
X9815420Y-7049460D01*
X9815420Y-7049460D02*
X9834468Y-7058984D01*
X9834468Y-7058984D02*
X9853515Y-7058984D01*
X9996373Y-7049460D02*
X9977325Y-7058984D01*
X9977325Y-7058984D02*
X9939230Y-7058984D01*
X9939230Y-7058984D02*
X9920182Y-7049460D01*
X9920182Y-7049460D02*
X9910658Y-7030412D01*
X9910658Y-7030412D02*
X9910658Y-6954222D01*
X9910658Y-6954222D02*
X9920182Y-6935174D01*
X9920182Y-6935174D02*
X9939230Y-6925650D01*
X9939230Y-6925650D02*
X9977325Y-6925650D01*
X9977325Y-6925650D02*
X9996373Y-6935174D01*
X9996373Y-6935174D02*
X10005896Y-6954222D01*
X10005896Y-6954222D02*
X10005896Y-6973269D01*
X10005896Y-6973269D02*
X9910658Y-6992317D01*
X10177325Y-7058984D02*
X10177325Y-6858984D01*
X10177325Y-7049460D02*
X10158277Y-7058984D01*
X10158277Y-7058984D02*
X10120182Y-7058984D01*
X10120182Y-7058984D02*
X10101135Y-7049460D01*
X10101135Y-7049460D02*
X10091611Y-7039936D01*
X10091611Y-7039936D02*
X10082087Y-7020888D01*
X10082087Y-7020888D02*
X10082087Y-6963746D01*
X10082087Y-6963746D02*
X10091611Y-6944698D01*
X10091611Y-6944698D02*
X10101135Y-6935174D01*
X10101135Y-6935174D02*
X10120182Y-6925650D01*
X10120182Y-6925650D02*
X10158277Y-6925650D01*
X10158277Y-6925650D02*
X10177325Y-6935174D01*
X10253516Y-7135174D02*
X10263039Y-7125650D01*
X10263039Y-7125650D02*
X10282087Y-7097079D01*
X10282087Y-7097079D02*
X10291611Y-7078031D01*
X10291611Y-7078031D02*
X10301135Y-7049460D01*
X10301135Y-7049460D02*
X10310658Y-7001841D01*
X10310658Y-7001841D02*
X10310658Y-6963746D01*
X10310658Y-6963746D02*
X10301135Y-6916127D01*
X10301135Y-6916127D02*
X10291611Y-6887555D01*
X10291611Y-6887555D02*
X10282087Y-6868508D01*
X10282087Y-6868508D02*
X10263039Y-6839936D01*
X10263039Y-6839936D02*
X10253516Y-6830412D01*
D12*
X3497500Y-7231500D02*
G75*
G02*
X3398440Y-7231500I-49530J0D01*
G01*
X3398440Y-7231500D02*
G75*
G02*
X3497500Y-7231500I49530J0D01*
G01*
D11*
X3796372Y-7122984D02*
X3815420Y-7122984D01*
X3815420Y-7122984D02*
X3834467Y-7132508D01*
X3834467Y-7132508D02*
X3843991Y-7142031D01*
X3843991Y-7142031D02*
X3853515Y-7161079D01*
X3853515Y-7161079D02*
X3863039Y-7199174D01*
X3863039Y-7199174D02*
X3863039Y-7246793D01*
X3863039Y-7246793D02*
X3853515Y-7284888D01*
X3853515Y-7284888D02*
X3843991Y-7303936D01*
X3843991Y-7303936D02*
X3834467Y-7313460D01*
X3834467Y-7313460D02*
X3815420Y-7322984D01*
X3815420Y-7322984D02*
X3796372Y-7322984D01*
X3796372Y-7322984D02*
X3777324Y-7313460D01*
X3777324Y-7313460D02*
X3767801Y-7303936D01*
X3767801Y-7303936D02*
X3758277Y-7284888D01*
X3758277Y-7284888D02*
X3748753Y-7246793D01*
X3748753Y-7246793D02*
X3748753Y-7199174D01*
X3748753Y-7199174D02*
X3758277Y-7161079D01*
X3758277Y-7161079D02*
X3767801Y-7142031D01*
X3767801Y-7142031D02*
X3777324Y-7132508D01*
X3777324Y-7132508D02*
X3796372Y-7122984D01*
X3948753Y-7303936D02*
X3958277Y-7313460D01*
X3958277Y-7313460D02*
X3948753Y-7322984D01*
X3948753Y-7322984D02*
X3939229Y-7313460D01*
X3939229Y-7313460D02*
X3948753Y-7303936D01*
X3948753Y-7303936D02*
X3948753Y-7322984D01*
X4053515Y-7322984D02*
X4091610Y-7322984D01*
X4091610Y-7322984D02*
X4110658Y-7313460D01*
X4110658Y-7313460D02*
X4120182Y-7303936D01*
X4120182Y-7303936D02*
X4139229Y-7275365D01*
X4139229Y-7275365D02*
X4148753Y-7237269D01*
X4148753Y-7237269D02*
X4148753Y-7161079D01*
X4148753Y-7161079D02*
X4139229Y-7142031D01*
X4139229Y-7142031D02*
X4129705Y-7132508D01*
X4129705Y-7132508D02*
X4110658Y-7122984D01*
X4110658Y-7122984D02*
X4072562Y-7122984D01*
X4072562Y-7122984D02*
X4053515Y-7132508D01*
X4053515Y-7132508D02*
X4043991Y-7142031D01*
X4043991Y-7142031D02*
X4034467Y-7161079D01*
X4034467Y-7161079D02*
X4034467Y-7208698D01*
X4034467Y-7208698D02*
X4043991Y-7227746D01*
X4043991Y-7227746D02*
X4053515Y-7237269D01*
X4053515Y-7237269D02*
X4072562Y-7246793D01*
X4072562Y-7246793D02*
X4110658Y-7246793D01*
X4110658Y-7246793D02*
X4129705Y-7237269D01*
X4129705Y-7237269D02*
X4139229Y-7227746D01*
X4139229Y-7227746D02*
X4148753Y-7208698D01*
X4243991Y-7322984D02*
X4282086Y-7322984D01*
X4282086Y-7322984D02*
X4301134Y-7313460D01*
X4301134Y-7313460D02*
X4310658Y-7303936D01*
X4310658Y-7303936D02*
X4329705Y-7275365D01*
X4329705Y-7275365D02*
X4339229Y-7237269D01*
X4339229Y-7237269D02*
X4339229Y-7161079D01*
X4339229Y-7161079D02*
X4329705Y-7142031D01*
X4329705Y-7142031D02*
X4320182Y-7132508D01*
X4320182Y-7132508D02*
X4301134Y-7122984D01*
X4301134Y-7122984D02*
X4263039Y-7122984D01*
X4263039Y-7122984D02*
X4243991Y-7132508D01*
X4243991Y-7132508D02*
X4234467Y-7142031D01*
X4234467Y-7142031D02*
X4224944Y-7161079D01*
X4224944Y-7161079D02*
X4224944Y-7208698D01*
X4224944Y-7208698D02*
X4234467Y-7227746D01*
X4234467Y-7227746D02*
X4243991Y-7237269D01*
X4243991Y-7237269D02*
X4263039Y-7246793D01*
X4263039Y-7246793D02*
X4301134Y-7246793D01*
X4301134Y-7246793D02*
X4320182Y-7237269D01*
X4320182Y-7237269D02*
X4329705Y-7227746D01*
X4329705Y-7227746D02*
X4339229Y-7208698D01*
X4529705Y-7322984D02*
X4415420Y-7322984D01*
X4472563Y-7322984D02*
X4472563Y-7122984D01*
X4472563Y-7122984D02*
X4453515Y-7151555D01*
X4453515Y-7151555D02*
X4434467Y-7170603D01*
X4434467Y-7170603D02*
X4415420Y-7180127D01*
X4615420Y-7322984D02*
X4615420Y-7189650D01*
X4615420Y-7208698D02*
X4624944Y-7199174D01*
X4624944Y-7199174D02*
X4643991Y-7189650D01*
X4643991Y-7189650D02*
X4672563Y-7189650D01*
X4672563Y-7189650D02*
X4691610Y-7199174D01*
X4691610Y-7199174D02*
X4701134Y-7218222D01*
X4701134Y-7218222D02*
X4701134Y-7322984D01*
X4701134Y-7218222D02*
X4710658Y-7199174D01*
X4710658Y-7199174D02*
X4729705Y-7189650D01*
X4729705Y-7189650D02*
X4758277Y-7189650D01*
X4758277Y-7189650D02*
X4777325Y-7199174D01*
X4777325Y-7199174D02*
X4786848Y-7218222D01*
X4786848Y-7218222D02*
X4786848Y-7322984D01*
X4882086Y-7322984D02*
X4882086Y-7189650D01*
X4882086Y-7208698D02*
X4891610Y-7199174D01*
X4891610Y-7199174D02*
X4910658Y-7189650D01*
X4910658Y-7189650D02*
X4939229Y-7189650D01*
X4939229Y-7189650D02*
X4958277Y-7199174D01*
X4958277Y-7199174D02*
X4967801Y-7218222D01*
X4967801Y-7218222D02*
X4967801Y-7322984D01*
X4967801Y-7218222D02*
X4977325Y-7199174D01*
X4977325Y-7199174D02*
X4996372Y-7189650D01*
X4996372Y-7189650D02*
X5024944Y-7189650D01*
X5024944Y-7189650D02*
X5043991Y-7199174D01*
X5043991Y-7199174D02*
X5053515Y-7218222D01*
X5053515Y-7218222D02*
X5053515Y-7322984D01*
X5443991Y-7113460D02*
X5272563Y-7370603D01*
X5701134Y-7122984D02*
X5720182Y-7122984D01*
X5720182Y-7122984D02*
X5739229Y-7132508D01*
X5739229Y-7132508D02*
X5748753Y-7142031D01*
X5748753Y-7142031D02*
X5758277Y-7161079D01*
X5758277Y-7161079D02*
X5767801Y-7199174D01*
X5767801Y-7199174D02*
X5767801Y-7246793D01*
X5767801Y-7246793D02*
X5758277Y-7284888D01*
X5758277Y-7284888D02*
X5748753Y-7303936D01*
X5748753Y-7303936D02*
X5739229Y-7313460D01*
X5739229Y-7313460D02*
X5720182Y-7322984D01*
X5720182Y-7322984D02*
X5701134Y-7322984D01*
X5701134Y-7322984D02*
X5682086Y-7313460D01*
X5682086Y-7313460D02*
X5672563Y-7303936D01*
X5672563Y-7303936D02*
X5663039Y-7284888D01*
X5663039Y-7284888D02*
X5653515Y-7246793D01*
X5653515Y-7246793D02*
X5653515Y-7199174D01*
X5653515Y-7199174D02*
X5663039Y-7161079D01*
X5663039Y-7161079D02*
X5672563Y-7142031D01*
X5672563Y-7142031D02*
X5682086Y-7132508D01*
X5682086Y-7132508D02*
X5701134Y-7122984D01*
X5853515Y-7303936D02*
X5863039Y-7313460D01*
X5863039Y-7313460D02*
X5853515Y-7322984D01*
X5853515Y-7322984D02*
X5843991Y-7313460D01*
X5843991Y-7313460D02*
X5853515Y-7303936D01*
X5853515Y-7303936D02*
X5853515Y-7322984D01*
X5986848Y-7122984D02*
X6005896Y-7122984D01*
X6005896Y-7122984D02*
X6024944Y-7132508D01*
X6024944Y-7132508D02*
X6034467Y-7142031D01*
X6034467Y-7142031D02*
X6043991Y-7161079D01*
X6043991Y-7161079D02*
X6053515Y-7199174D01*
X6053515Y-7199174D02*
X6053515Y-7246793D01*
X6053515Y-7246793D02*
X6043991Y-7284888D01*
X6043991Y-7284888D02*
X6034467Y-7303936D01*
X6034467Y-7303936D02*
X6024944Y-7313460D01*
X6024944Y-7313460D02*
X6005896Y-7322984D01*
X6005896Y-7322984D02*
X5986848Y-7322984D01*
X5986848Y-7322984D02*
X5967801Y-7313460D01*
X5967801Y-7313460D02*
X5958277Y-7303936D01*
X5958277Y-7303936D02*
X5948753Y-7284888D01*
X5948753Y-7284888D02*
X5939229Y-7246793D01*
X5939229Y-7246793D02*
X5939229Y-7199174D01*
X5939229Y-7199174D02*
X5948753Y-7161079D01*
X5948753Y-7161079D02*
X5958277Y-7142031D01*
X5958277Y-7142031D02*
X5967801Y-7132508D01*
X5967801Y-7132508D02*
X5986848Y-7122984D01*
X6120182Y-7122984D02*
X6243991Y-7122984D01*
X6243991Y-7122984D02*
X6177325Y-7199174D01*
X6177325Y-7199174D02*
X6205896Y-7199174D01*
X6205896Y-7199174D02*
X6224944Y-7208698D01*
X6224944Y-7208698D02*
X6234467Y-7218222D01*
X6234467Y-7218222D02*
X6243991Y-7237269D01*
X6243991Y-7237269D02*
X6243991Y-7284888D01*
X6243991Y-7284888D02*
X6234467Y-7303936D01*
X6234467Y-7303936D02*
X6224944Y-7313460D01*
X6224944Y-7313460D02*
X6205896Y-7322984D01*
X6205896Y-7322984D02*
X6148753Y-7322984D01*
X6148753Y-7322984D02*
X6129706Y-7313460D01*
X6129706Y-7313460D02*
X6120182Y-7303936D01*
X6339229Y-7322984D02*
X6377325Y-7322984D01*
X6377325Y-7322984D02*
X6396372Y-7313460D01*
X6396372Y-7313460D02*
X6405896Y-7303936D01*
X6405896Y-7303936D02*
X6424944Y-7275365D01*
X6424944Y-7275365D02*
X6434467Y-7237269D01*
X6434467Y-7237269D02*
X6434467Y-7161079D01*
X6434467Y-7161079D02*
X6424944Y-7142031D01*
X6424944Y-7142031D02*
X6415420Y-7132508D01*
X6415420Y-7132508D02*
X6396372Y-7122984D01*
X6396372Y-7122984D02*
X6358277Y-7122984D01*
X6358277Y-7122984D02*
X6339229Y-7132508D01*
X6339229Y-7132508D02*
X6329706Y-7142031D01*
X6329706Y-7142031D02*
X6320182Y-7161079D01*
X6320182Y-7161079D02*
X6320182Y-7208698D01*
X6320182Y-7208698D02*
X6329706Y-7227746D01*
X6329706Y-7227746D02*
X6339229Y-7237269D01*
X6339229Y-7237269D02*
X6358277Y-7246793D01*
X6358277Y-7246793D02*
X6396372Y-7246793D01*
X6396372Y-7246793D02*
X6415420Y-7237269D01*
X6415420Y-7237269D02*
X6424944Y-7227746D01*
X6424944Y-7227746D02*
X6434467Y-7208698D01*
X6558277Y-7122984D02*
X6577325Y-7122984D01*
X6577325Y-7122984D02*
X6596372Y-7132508D01*
X6596372Y-7132508D02*
X6605896Y-7142031D01*
X6605896Y-7142031D02*
X6615420Y-7161079D01*
X6615420Y-7161079D02*
X6624944Y-7199174D01*
X6624944Y-7199174D02*
X6624944Y-7246793D01*
X6624944Y-7246793D02*
X6615420Y-7284888D01*
X6615420Y-7284888D02*
X6605896Y-7303936D01*
X6605896Y-7303936D02*
X6596372Y-7313460D01*
X6596372Y-7313460D02*
X6577325Y-7322984D01*
X6577325Y-7322984D02*
X6558277Y-7322984D01*
X6558277Y-7322984D02*
X6539229Y-7313460D01*
X6539229Y-7313460D02*
X6529706Y-7303936D01*
X6529706Y-7303936D02*
X6520182Y-7284888D01*
X6520182Y-7284888D02*
X6510658Y-7246793D01*
X6510658Y-7246793D02*
X6510658Y-7199174D01*
X6510658Y-7199174D02*
X6520182Y-7161079D01*
X6520182Y-7161079D02*
X6529706Y-7142031D01*
X6529706Y-7142031D02*
X6539229Y-7132508D01*
X6539229Y-7132508D02*
X6558277Y-7122984D01*
X6701134Y-7122984D02*
X6701134Y-7161079D01*
X6777325Y-7122984D02*
X6777325Y-7161079D01*
X7072563Y-7399174D02*
X7063039Y-7389650D01*
X7063039Y-7389650D02*
X7043991Y-7361079D01*
X7043991Y-7361079D02*
X7034468Y-7342031D01*
X7034468Y-7342031D02*
X7024944Y-7313460D01*
X7024944Y-7313460D02*
X7015420Y-7265841D01*
X7015420Y-7265841D02*
X7015420Y-7227746D01*
X7015420Y-7227746D02*
X7024944Y-7180127D01*
X7024944Y-7180127D02*
X7034468Y-7151555D01*
X7034468Y-7151555D02*
X7043991Y-7132508D01*
X7043991Y-7132508D02*
X7063039Y-7103936D01*
X7063039Y-7103936D02*
X7072563Y-7094412D01*
X7129706Y-7122984D02*
X7253515Y-7122984D01*
X7253515Y-7122984D02*
X7186848Y-7199174D01*
X7186848Y-7199174D02*
X7215420Y-7199174D01*
X7215420Y-7199174D02*
X7234468Y-7208698D01*
X7234468Y-7208698D02*
X7243991Y-7218222D01*
X7243991Y-7218222D02*
X7253515Y-7237269D01*
X7253515Y-7237269D02*
X7253515Y-7284888D01*
X7253515Y-7284888D02*
X7243991Y-7303936D01*
X7243991Y-7303936D02*
X7234468Y-7313460D01*
X7234468Y-7313460D02*
X7215420Y-7322984D01*
X7215420Y-7322984D02*
X7158277Y-7322984D01*
X7158277Y-7322984D02*
X7139229Y-7313460D01*
X7139229Y-7313460D02*
X7129706Y-7303936D01*
X7491610Y-7322984D02*
X7491610Y-7122984D01*
X7577325Y-7322984D02*
X7577325Y-7218222D01*
X7577325Y-7218222D02*
X7567801Y-7199174D01*
X7567801Y-7199174D02*
X7548753Y-7189650D01*
X7548753Y-7189650D02*
X7520182Y-7189650D01*
X7520182Y-7189650D02*
X7501134Y-7199174D01*
X7501134Y-7199174D02*
X7491610Y-7208698D01*
X7701134Y-7322984D02*
X7682087Y-7313460D01*
X7682087Y-7313460D02*
X7672563Y-7303936D01*
X7672563Y-7303936D02*
X7663039Y-7284888D01*
X7663039Y-7284888D02*
X7663039Y-7227746D01*
X7663039Y-7227746D02*
X7672563Y-7208698D01*
X7672563Y-7208698D02*
X7682087Y-7199174D01*
X7682087Y-7199174D02*
X7701134Y-7189650D01*
X7701134Y-7189650D02*
X7729706Y-7189650D01*
X7729706Y-7189650D02*
X7748753Y-7199174D01*
X7748753Y-7199174D02*
X7758277Y-7208698D01*
X7758277Y-7208698D02*
X7767801Y-7227746D01*
X7767801Y-7227746D02*
X7767801Y-7284888D01*
X7767801Y-7284888D02*
X7758277Y-7303936D01*
X7758277Y-7303936D02*
X7748753Y-7313460D01*
X7748753Y-7313460D02*
X7729706Y-7322984D01*
X7729706Y-7322984D02*
X7701134Y-7322984D01*
X7882087Y-7322984D02*
X7863039Y-7313460D01*
X7863039Y-7313460D02*
X7853515Y-7294412D01*
X7853515Y-7294412D02*
X7853515Y-7122984D01*
X8034468Y-7313460D02*
X8015420Y-7322984D01*
X8015420Y-7322984D02*
X7977325Y-7322984D01*
X7977325Y-7322984D02*
X7958277Y-7313460D01*
X7958277Y-7313460D02*
X7948753Y-7294412D01*
X7948753Y-7294412D02*
X7948753Y-7218222D01*
X7948753Y-7218222D02*
X7958277Y-7199174D01*
X7958277Y-7199174D02*
X7977325Y-7189650D01*
X7977325Y-7189650D02*
X8015420Y-7189650D01*
X8015420Y-7189650D02*
X8034468Y-7199174D01*
X8034468Y-7199174D02*
X8043991Y-7218222D01*
X8043991Y-7218222D02*
X8043991Y-7237269D01*
X8043991Y-7237269D02*
X7948753Y-7256317D01*
X8120182Y-7313460D02*
X8139230Y-7322984D01*
X8139230Y-7322984D02*
X8177325Y-7322984D01*
X8177325Y-7322984D02*
X8196372Y-7313460D01*
X8196372Y-7313460D02*
X8205896Y-7294412D01*
X8205896Y-7294412D02*
X8205896Y-7284888D01*
X8205896Y-7284888D02*
X8196372Y-7265841D01*
X8196372Y-7265841D02*
X8177325Y-7256317D01*
X8177325Y-7256317D02*
X8148753Y-7256317D01*
X8148753Y-7256317D02*
X8129706Y-7246793D01*
X8129706Y-7246793D02*
X8120182Y-7227746D01*
X8120182Y-7227746D02*
X8120182Y-7218222D01*
X8120182Y-7218222D02*
X8129706Y-7199174D01*
X8129706Y-7199174D02*
X8148753Y-7189650D01*
X8148753Y-7189650D02*
X8177325Y-7189650D01*
X8177325Y-7189650D02*
X8196372Y-7199174D01*
X8272563Y-7399174D02*
X8282087Y-7389650D01*
X8282087Y-7389650D02*
X8301134Y-7361079D01*
X8301134Y-7361079D02*
X8310658Y-7342031D01*
X8310658Y-7342031D02*
X8320182Y-7313460D01*
X8320182Y-7313460D02*
X8329706Y-7265841D01*
X8329706Y-7265841D02*
X8329706Y-7227746D01*
X8329706Y-7227746D02*
X8320182Y-7180127D01*
X8320182Y-7180127D02*
X8310658Y-7151555D01*
X8310658Y-7151555D02*
X8301134Y-7132508D01*
X8301134Y-7132508D02*
X8282087Y-7103936D01*
X8282087Y-7103936D02*
X8272563Y-7094412D01*
X8634468Y-7399174D02*
X8624944Y-7389650D01*
X8624944Y-7389650D02*
X8605896Y-7361079D01*
X8605896Y-7361079D02*
X8596373Y-7342031D01*
X8596373Y-7342031D02*
X8586849Y-7313460D01*
X8586849Y-7313460D02*
X8577325Y-7265841D01*
X8577325Y-7265841D02*
X8577325Y-7227746D01*
X8577325Y-7227746D02*
X8586849Y-7180127D01*
X8586849Y-7180127D02*
X8596373Y-7151555D01*
X8596373Y-7151555D02*
X8605896Y-7132508D01*
X8605896Y-7132508D02*
X8624944Y-7103936D01*
X8624944Y-7103936D02*
X8634468Y-7094412D01*
X8710658Y-7189650D02*
X8710658Y-7322984D01*
X8710658Y-7208698D02*
X8720182Y-7199174D01*
X8720182Y-7199174D02*
X8739230Y-7189650D01*
X8739230Y-7189650D02*
X8767801Y-7189650D01*
X8767801Y-7189650D02*
X8786849Y-7199174D01*
X8786849Y-7199174D02*
X8796373Y-7218222D01*
X8796373Y-7218222D02*
X8796373Y-7322984D01*
X8920182Y-7322984D02*
X8901134Y-7313460D01*
X8901134Y-7313460D02*
X8891611Y-7303936D01*
X8891611Y-7303936D02*
X8882087Y-7284888D01*
X8882087Y-7284888D02*
X8882087Y-7227746D01*
X8882087Y-7227746D02*
X8891611Y-7208698D01*
X8891611Y-7208698D02*
X8901134Y-7199174D01*
X8901134Y-7199174D02*
X8920182Y-7189650D01*
X8920182Y-7189650D02*
X8948754Y-7189650D01*
X8948754Y-7189650D02*
X8967801Y-7199174D01*
X8967801Y-7199174D02*
X8977325Y-7208698D01*
X8977325Y-7208698D02*
X8986849Y-7227746D01*
X8986849Y-7227746D02*
X8986849Y-7284888D01*
X8986849Y-7284888D02*
X8977325Y-7303936D01*
X8977325Y-7303936D02*
X8967801Y-7313460D01*
X8967801Y-7313460D02*
X8948754Y-7322984D01*
X8948754Y-7322984D02*
X8920182Y-7322984D01*
X9043992Y-7189650D02*
X9120182Y-7189650D01*
X9072563Y-7122984D02*
X9072563Y-7294412D01*
X9072563Y-7294412D02*
X9082087Y-7313460D01*
X9082087Y-7313460D02*
X9101134Y-7322984D01*
X9101134Y-7322984D02*
X9120182Y-7322984D01*
X9339230Y-7189650D02*
X9339230Y-7389650D01*
X9339230Y-7199174D02*
X9358277Y-7189650D01*
X9358277Y-7189650D02*
X9396373Y-7189650D01*
X9396373Y-7189650D02*
X9415420Y-7199174D01*
X9415420Y-7199174D02*
X9424944Y-7208698D01*
X9424944Y-7208698D02*
X9434468Y-7227746D01*
X9434468Y-7227746D02*
X9434468Y-7284888D01*
X9434468Y-7284888D02*
X9424944Y-7303936D01*
X9424944Y-7303936D02*
X9415420Y-7313460D01*
X9415420Y-7313460D02*
X9396373Y-7322984D01*
X9396373Y-7322984D02*
X9358277Y-7322984D01*
X9358277Y-7322984D02*
X9339230Y-7313460D01*
X9548754Y-7322984D02*
X9529706Y-7313460D01*
X9529706Y-7313460D02*
X9520182Y-7294412D01*
X9520182Y-7294412D02*
X9520182Y-7122984D01*
X9710658Y-7322984D02*
X9710658Y-7218222D01*
X9710658Y-7218222D02*
X9701135Y-7199174D01*
X9701135Y-7199174D02*
X9682087Y-7189650D01*
X9682087Y-7189650D02*
X9643992Y-7189650D01*
X9643992Y-7189650D02*
X9624944Y-7199174D01*
X9710658Y-7313460D02*
X9691611Y-7322984D01*
X9691611Y-7322984D02*
X9643992Y-7322984D01*
X9643992Y-7322984D02*
X9624944Y-7313460D01*
X9624944Y-7313460D02*
X9615420Y-7294412D01*
X9615420Y-7294412D02*
X9615420Y-7275365D01*
X9615420Y-7275365D02*
X9624944Y-7256317D01*
X9624944Y-7256317D02*
X9643992Y-7246793D01*
X9643992Y-7246793D02*
X9691611Y-7246793D01*
X9691611Y-7246793D02*
X9710658Y-7237269D01*
X9777325Y-7189650D02*
X9853515Y-7189650D01*
X9805896Y-7122984D02*
X9805896Y-7294412D01*
X9805896Y-7294412D02*
X9815420Y-7313460D01*
X9815420Y-7313460D02*
X9834468Y-7322984D01*
X9834468Y-7322984D02*
X9853515Y-7322984D01*
X9996373Y-7313460D02*
X9977325Y-7322984D01*
X9977325Y-7322984D02*
X9939230Y-7322984D01*
X9939230Y-7322984D02*
X9920182Y-7313460D01*
X9920182Y-7313460D02*
X9910658Y-7294412D01*
X9910658Y-7294412D02*
X9910658Y-7218222D01*
X9910658Y-7218222D02*
X9920182Y-7199174D01*
X9920182Y-7199174D02*
X9939230Y-7189650D01*
X9939230Y-7189650D02*
X9977325Y-7189650D01*
X9977325Y-7189650D02*
X9996373Y-7199174D01*
X9996373Y-7199174D02*
X10005896Y-7218222D01*
X10005896Y-7218222D02*
X10005896Y-7237269D01*
X10005896Y-7237269D02*
X9910658Y-7256317D01*
X10177325Y-7322984D02*
X10177325Y-7122984D01*
X10177325Y-7313460D02*
X10158277Y-7322984D01*
X10158277Y-7322984D02*
X10120182Y-7322984D01*
X10120182Y-7322984D02*
X10101135Y-7313460D01*
X10101135Y-7313460D02*
X10091611Y-7303936D01*
X10091611Y-7303936D02*
X10082087Y-7284888D01*
X10082087Y-7284888D02*
X10082087Y-7227746D01*
X10082087Y-7227746D02*
X10091611Y-7208698D01*
X10091611Y-7208698D02*
X10101135Y-7199174D01*
X10101135Y-7199174D02*
X10120182Y-7189650D01*
X10120182Y-7189650D02*
X10158277Y-7189650D01*
X10158277Y-7189650D02*
X10177325Y-7199174D01*
X10253516Y-7399174D02*
X10263039Y-7389650D01*
X10263039Y-7389650D02*
X10282087Y-7361079D01*
X10282087Y-7361079D02*
X10291611Y-7342031D01*
X10291611Y-7342031D02*
X10301135Y-7313460D01*
X10301135Y-7313460D02*
X10310658Y-7265841D01*
X10310658Y-7265841D02*
X10310658Y-7227746D01*
X10310658Y-7227746D02*
X10301135Y-7180127D01*
X10301135Y-7180127D02*
X10291611Y-7151555D01*
X10291611Y-7151555D02*
X10282087Y-7132508D01*
X10282087Y-7132508D02*
X10263039Y-7103936D01*
X10263039Y-7103936D02*
X10253516Y-7094412D01*
M02*
