G04 #@! TF.GenerationSoftware,KiCad,Pcbnew,8.0.5-8.0.5-0~ubuntu20.04.1*
G04 #@! TF.CreationDate,2025-01-20T10:50:09+00:00*
G04 #@! TF.ProjectId,servo,73657276-6f2e-46b6-9963-61645f706362,rev?*
G04 #@! TF.SameCoordinates,Original*
G04 #@! TF.FileFunction,Copper,L2,Inr*
G04 #@! TF.FilePolarity,Positive*
%FSLAX46Y46*%
G04 Gerber Fmt 4.6, Leading zero omitted, Abs format (unit mm)*
G04 Created by KiCad (PCBNEW 8.0.5-8.0.5-0~ubuntu20.04.1) date 2025-01-20 10:50:09*
%MOMM*%
%LPD*%
G01*
G04 APERTURE LIST*
G04 #@! TA.AperFunction,ViaPad*
%ADD10C,0.500000*%
G04 #@! TD*
G04 APERTURE END LIST*
G04 #@! TA.AperFunction,ComponentPad*
G36*
G01*
X40910600Y-19280000D02*
X39810600Y-19280000D01*
G75*
G02*
X39310600Y-18780000I0J500000D01*
G01*
X39310600Y-18780000D01*
G75*
G02*
X39810600Y-18280000I500000J0D01*
G01*
X40910600Y-18280000D01*
G75*
G02*
X41410600Y-18780000I0J-500000D01*
G01*
X41410600Y-18780000D01*
G75*
G02*
X40910600Y-19280000I-500000J0D01*
G01*
G37*
G04 #@! TD.AperFunction*
G04 #@! TA.AperFunction,ComponentPad*
G36*
G01*
X36480600Y-19280000D02*
X35880600Y-19280000D01*
G75*
G02*
X35380600Y-18780000I0J500000D01*
G01*
X35380600Y-18780000D01*
G75*
G02*
X35880600Y-18280000I500000J0D01*
G01*
X36480600Y-18280000D01*
G75*
G02*
X36980600Y-18780000I0J-500000D01*
G01*
X36980600Y-18780000D01*
G75*
G02*
X36480600Y-19280000I-500000J0D01*
G01*
G37*
G04 #@! TD.AperFunction*
G04 #@! TA.AperFunction,ComponentPad*
G36*
G01*
X40910600Y-27920000D02*
X39810600Y-27920000D01*
G75*
G02*
X39310600Y-27420000I0J500000D01*
G01*
X39310600Y-27420000D01*
G75*
G02*
X39810600Y-26920000I500000J0D01*
G01*
X40910600Y-26920000D01*
G75*
G02*
X41410600Y-27420000I0J-500000D01*
G01*
X41410600Y-27420000D01*
G75*
G02*
X40910600Y-27920000I-500000J0D01*
G01*
G37*
G04 #@! TD.AperFunction*
G04 #@! TA.AperFunction,ComponentPad*
G36*
G01*
X36480600Y-27920000D02*
X35880600Y-27920000D01*
G75*
G02*
X35380600Y-27420000I0J500000D01*
G01*
X35380600Y-27420000D01*
G75*
G02*
X35880600Y-26920000I500000J0D01*
G01*
X36480600Y-26920000D01*
G75*
G02*
X36980600Y-27420000I0J-500000D01*
G01*
X36980600Y-27420000D01*
G75*
G02*
X36480600Y-27920000I-500000J0D01*
G01*
G37*
G04 #@! TD.AperFunction*
D10*
X50000000Y-55350000D03*
X48000000Y-40250000D03*
X49400000Y-61000000D03*
X44500000Y-50500000D03*
X50000000Y-50000000D03*
X57600000Y-48600000D03*
X46750000Y-42750000D03*
X50200000Y-60200000D03*
X56000000Y-55000000D03*
X43500000Y-49500000D03*
X47750000Y-43750000D03*
X46400000Y-44800000D03*
X46400000Y-46400000D03*
X56600000Y-52600000D03*
X46750000Y-43750000D03*
X45500000Y-24850000D03*
X49400000Y-60200000D03*
X44000000Y-50000000D03*
X48600000Y-61000000D03*
X48600000Y-60200000D03*
X57600000Y-51600000D03*
X56000000Y-56000000D03*
X43500000Y-50500000D03*
X47000000Y-48500000D03*
X44500000Y-49500000D03*
X46400000Y-45600000D03*
X48000000Y-39500000D03*
X45400000Y-44600000D03*
X47750000Y-42750000D03*
X50200000Y-61000000D03*
X56600000Y-47600000D03*
X48229841Y-48320159D03*
X51800000Y-48320159D03*
X47000000Y-52750000D03*
X55600000Y-47600000D03*
X44400000Y-43600000D03*
X47800000Y-61800000D03*
X47000000Y-60200000D03*
X49000000Y-39500000D03*
X43600000Y-45200000D03*
X47000000Y-61800000D03*
X49750000Y-40250000D03*
X43600000Y-44400000D03*
X47000000Y-59400000D03*
X54600000Y-48600000D03*
X44400000Y-44400000D03*
X49000000Y-38750000D03*
X49750000Y-39500000D03*
X47800000Y-60200000D03*
X47000000Y-61000000D03*
X49750000Y-38750000D03*
X47800000Y-61000000D03*
X49000000Y-40250000D03*
X50813909Y-44250000D03*
X54288909Y-52538909D03*
X56750000Y-22350000D03*
X52000000Y-22350000D03*
X51331954Y-44918045D03*
X54013909Y-51400000D03*
X50263909Y-43736091D03*
X52400000Y-58500000D03*
X52750000Y-57750000D03*
X49500000Y-43750000D03*
X46000000Y-54000000D03*
X41250000Y-50500000D03*
X44550000Y-54000000D03*
X43050001Y-53367940D03*
X46250000Y-55250000D03*
X52513909Y-50763909D03*
X45239878Y-54265002D03*
X52500000Y-49750000D03*
X41250000Y-49750000D03*
X46013909Y-53236091D03*
G04 #@! TA.AperFunction,Conductor*
G36*
X52480243Y-36969948D02*
G01*
X52504992Y-36998509D01*
X52570184Y-37102262D01*
X52697738Y-37229816D01*
X52850478Y-37325789D01*
X53008353Y-37381032D01*
X53020745Y-37385368D01*
X53020750Y-37385369D01*
X53199996Y-37405565D01*
X53200000Y-37405565D01*
X53200004Y-37405565D01*
X53379249Y-37385369D01*
X53379251Y-37385368D01*
X53379255Y-37385368D01*
X53379258Y-37385366D01*
X53379262Y-37385366D01*
X53534545Y-37331030D01*
X53604324Y-37327468D01*
X53664951Y-37362196D01*
X53697179Y-37424190D01*
X53699500Y-37448071D01*
X53699500Y-41364341D01*
X53698597Y-41379279D01*
X53695954Y-41401051D01*
X53697188Y-41407347D01*
X53698902Y-41425021D01*
X53699500Y-41429561D01*
X53705981Y-41453751D01*
X53707892Y-41462005D01*
X53714249Y-41494459D01*
X53714250Y-41494462D01*
X53714251Y-41494466D01*
X53714253Y-41494470D01*
X53714254Y-41494472D01*
X53714531Y-41494971D01*
X53719224Y-41504684D01*
X53738044Y-41537281D01*
X53738995Y-41538957D01*
X53760518Y-41577655D01*
X53760519Y-41577656D01*
X53760520Y-41577657D01*
X53789740Y-41604827D01*
X53792958Y-41607929D01*
X53815486Y-41630457D01*
X53815491Y-41630462D01*
X53821237Y-41634871D01*
X53830182Y-41642433D01*
X53830227Y-41642474D01*
X53856323Y-41654597D01*
X53866068Y-41659661D01*
X53884011Y-41670021D01*
X53884013Y-41670022D01*
X53891519Y-41673131D01*
X53891470Y-41673247D01*
X53904440Y-41678197D01*
X54242882Y-41848992D01*
X54402429Y-41929508D01*
X54409492Y-41933365D01*
X54916617Y-42232048D01*
X54923416Y-42236354D01*
X55410139Y-42567328D01*
X55416616Y-42572047D01*
X55648727Y-42752966D01*
X55880824Y-42933876D01*
X55887007Y-42939026D01*
X56326772Y-43330205D01*
X56332608Y-43335746D01*
X56746064Y-43754615D01*
X56751528Y-43760522D01*
X57136957Y-44205342D01*
X57142026Y-44211592D01*
X57497772Y-44680448D01*
X57502426Y-44687013D01*
X57827024Y-45177976D01*
X57831242Y-45184829D01*
X58123312Y-45695816D01*
X58127076Y-45702929D01*
X58385380Y-46231766D01*
X58388676Y-46239107D01*
X58612143Y-46783604D01*
X58614955Y-46791144D01*
X58802630Y-47348979D01*
X58804947Y-47356685D01*
X58956043Y-47925512D01*
X58957856Y-47933353D01*
X59071741Y-48510797D01*
X59073041Y-48518738D01*
X59149231Y-49102349D01*
X59150013Y-49110358D01*
X59188189Y-49697678D01*
X59188450Y-49705721D01*
X59188450Y-50294278D01*
X59188189Y-50302321D01*
X59150013Y-50889641D01*
X59149231Y-50897650D01*
X59073041Y-51481261D01*
X59071741Y-51489202D01*
X58957856Y-52066646D01*
X58956043Y-52074487D01*
X58804947Y-52643314D01*
X58802630Y-52651020D01*
X58614955Y-53208855D01*
X58612143Y-53216395D01*
X58388676Y-53760892D01*
X58385380Y-53768233D01*
X58127076Y-54297070D01*
X58123312Y-54304183D01*
X57831242Y-54815170D01*
X57827024Y-54822023D01*
X57502426Y-55312986D01*
X57497772Y-55319551D01*
X57142026Y-55788407D01*
X57136957Y-55794657D01*
X56751528Y-56239477D01*
X56746064Y-56245384D01*
X56332608Y-56664253D01*
X56326772Y-56669794D01*
X55887007Y-57060973D01*
X55880824Y-57066123D01*
X55416630Y-57427942D01*
X55410126Y-57432681D01*
X54923415Y-57763645D01*
X54916617Y-57767951D01*
X54409492Y-58066634D01*
X54402429Y-58070491D01*
X53904439Y-58321802D01*
X53891470Y-58326752D01*
X53891519Y-58326869D01*
X53884005Y-58329981D01*
X53866069Y-58340336D01*
X53856324Y-58345400D01*
X53830234Y-58357522D01*
X53830221Y-58357530D01*
X53830179Y-58357570D01*
X53821252Y-58365117D01*
X53815485Y-58369542D01*
X53792993Y-58392034D01*
X53789756Y-58395156D01*
X53760521Y-58422341D01*
X53760515Y-58422349D01*
X53739029Y-58460979D01*
X53738054Y-58462700D01*
X53719226Y-58495314D01*
X53714533Y-58505025D01*
X53714252Y-58505528D01*
X53714250Y-58505536D01*
X53707892Y-58537996D01*
X53705981Y-58546251D01*
X53699499Y-58570441D01*
X53698902Y-58574979D01*
X53697188Y-58592651D01*
X53695954Y-58598947D01*
X53698597Y-58620719D01*
X53699500Y-58635658D01*
X53699500Y-62825500D01*
X53679815Y-62892539D01*
X53627011Y-62938294D01*
X53575500Y-62949500D01*
X46424500Y-62949500D01*
X46357461Y-62929815D01*
X46311706Y-62877011D01*
X46300500Y-62825500D01*
X46300500Y-62461229D01*
X46320185Y-62394190D01*
X46372989Y-62348435D01*
X46442147Y-62338491D01*
X46505703Y-62367516D01*
X46512181Y-62373548D01*
X46529109Y-62390476D01*
X46529115Y-62390481D01*
X46672302Y-62480452D01*
X46672305Y-62480454D01*
X46672309Y-62480455D01*
X46672310Y-62480456D01*
X46744913Y-62505860D01*
X46831943Y-62536314D01*
X46999997Y-62555249D01*
X47000000Y-62555249D01*
X47000003Y-62555249D01*
X47100835Y-62543887D01*
X47168059Y-62536313D01*
X47327690Y-62480456D01*
X47334024Y-62476475D01*
X47401258Y-62457472D01*
X47465975Y-62476475D01*
X47472304Y-62480452D01*
X47472312Y-62480457D01*
X47546020Y-62506248D01*
X47631941Y-62536313D01*
X47673955Y-62541047D01*
X47799997Y-62555249D01*
X47800000Y-62555249D01*
X47800003Y-62555249D01*
X47968056Y-62536314D01*
X47968059Y-62536313D01*
X48127690Y-62480456D01*
X48127692Y-62480454D01*
X48127694Y-62480454D01*
X48127697Y-62480452D01*
X48270884Y-62390481D01*
X48270885Y-62390480D01*
X48270890Y-62390477D01*
X48390477Y-62270890D01*
X48480452Y-62127697D01*
X48480454Y-62127694D01*
X48480454Y-62127692D01*
X48480456Y-62127690D01*
X48536313Y-61968059D01*
X48536313Y-61968058D01*
X48536314Y-61968056D01*
X48555249Y-61800002D01*
X48555249Y-61799997D01*
X48536313Y-61631942D01*
X48480457Y-61472312D01*
X48480456Y-61472310D01*
X48476475Y-61465975D01*
X48457472Y-61398742D01*
X48476475Y-61334024D01*
X48480456Y-61327690D01*
X48536313Y-61168059D01*
X48555249Y-61000000D01*
X48536313Y-60831941D01*
X48480456Y-60672310D01*
X48476475Y-60665975D01*
X48457472Y-60598742D01*
X48476475Y-60534024D01*
X48480456Y-60527690D01*
X48536313Y-60368059D01*
X48555249Y-60200000D01*
X48555249Y-60199997D01*
X48536314Y-60031943D01*
X48480454Y-59872305D01*
X48480452Y-59872302D01*
X48390481Y-59729115D01*
X48390476Y-59729109D01*
X48270890Y-59609523D01*
X48270884Y-59609518D01*
X48127697Y-59519547D01*
X48127694Y-59519545D01*
X47968055Y-59463685D01*
X47858045Y-59451290D01*
X47793631Y-59424223D01*
X47754076Y-59366628D01*
X47748709Y-59341953D01*
X47736314Y-59231944D01*
X47718296Y-59180452D01*
X47680456Y-59072310D01*
X47680455Y-59072309D01*
X47680454Y-59072305D01*
X47680452Y-59072302D01*
X47590481Y-58929115D01*
X47590476Y-58929109D01*
X47470890Y-58809523D01*
X47470884Y-58809518D01*
X47327697Y-58719547D01*
X47327694Y-58719545D01*
X47168056Y-58663685D01*
X47000003Y-58644751D01*
X46999997Y-58644751D01*
X46831943Y-58663685D01*
X46672305Y-58719545D01*
X46672302Y-58719547D01*
X46529115Y-58809518D01*
X46529109Y-58809523D01*
X46512181Y-58826452D01*
X46450858Y-58859937D01*
X46381166Y-58854953D01*
X46325233Y-58813081D01*
X46300816Y-58747617D01*
X46300500Y-58738771D01*
X46300500Y-58635658D01*
X46301403Y-58620719D01*
X46304045Y-58598947D01*
X46302812Y-58592651D01*
X46301096Y-58574966D01*
X46300500Y-58570437D01*
X46294018Y-58546250D01*
X46292106Y-58537996D01*
X46285749Y-58505536D01*
X46285749Y-58505534D01*
X46285481Y-58505053D01*
X46283038Y-58499997D01*
X51644751Y-58499997D01*
X51644751Y-58500002D01*
X51663685Y-58668056D01*
X51719545Y-58827694D01*
X51719547Y-58827697D01*
X51809518Y-58970884D01*
X51809523Y-58970890D01*
X51929109Y-59090476D01*
X51929115Y-59090481D01*
X52072302Y-59180452D01*
X52072305Y-59180454D01*
X52072309Y-59180455D01*
X52072310Y-59180456D01*
X52144913Y-59205860D01*
X52231943Y-59236314D01*
X52399997Y-59255249D01*
X52400000Y-59255249D01*
X52400003Y-59255249D01*
X52568056Y-59236314D01*
X52580545Y-59231944D01*
X52727690Y-59180456D01*
X52727692Y-59180454D01*
X52727694Y-59180454D01*
X52727697Y-59180452D01*
X52870884Y-59090481D01*
X52870885Y-59090480D01*
X52870890Y-59090477D01*
X52990477Y-58970890D01*
X53016726Y-58929115D01*
X53080452Y-58827697D01*
X53080454Y-58827694D01*
X53080454Y-58827692D01*
X53080456Y-58827690D01*
X53136313Y-58668059D01*
X53136313Y-58668058D01*
X53136314Y-58668056D01*
X53155249Y-58500002D01*
X53155249Y-58499997D01*
X53151527Y-58466966D01*
X53163581Y-58398144D01*
X53208775Y-58348089D01*
X53220890Y-58340477D01*
X53340477Y-58220890D01*
X53430452Y-58077697D01*
X53430454Y-58077694D01*
X53430454Y-58077692D01*
X53430456Y-58077690D01*
X53486313Y-57918059D01*
X53486313Y-57918058D01*
X53486314Y-57918056D01*
X53505249Y-57750002D01*
X53505249Y-57749997D01*
X53486314Y-57581943D01*
X53433294Y-57430421D01*
X53430456Y-57422310D01*
X53430455Y-57422309D01*
X53430454Y-57422305D01*
X53430452Y-57422302D01*
X53340481Y-57279115D01*
X53340476Y-57279109D01*
X53220890Y-57159523D01*
X53220884Y-57159518D01*
X53077697Y-57069547D01*
X53077694Y-57069545D01*
X52918056Y-57013685D01*
X52750003Y-56994751D01*
X52749997Y-56994751D01*
X52581943Y-57013685D01*
X52422305Y-57069545D01*
X52422302Y-57069547D01*
X52279115Y-57159518D01*
X52279109Y-57159523D01*
X52159523Y-57279109D01*
X52159518Y-57279115D01*
X52069547Y-57422302D01*
X52069545Y-57422305D01*
X52013685Y-57581943D01*
X51994751Y-57749997D01*
X51994751Y-57750000D01*
X51996543Y-57765903D01*
X51998473Y-57783036D01*
X51986417Y-57851857D01*
X51941228Y-57901908D01*
X51929113Y-57909520D01*
X51929107Y-57909525D01*
X51809523Y-58029109D01*
X51809518Y-58029115D01*
X51719547Y-58172302D01*
X51719545Y-58172305D01*
X51663685Y-58331943D01*
X51644751Y-58499997D01*
X46283038Y-58499997D01*
X46280785Y-58495334D01*
X46277176Y-58489084D01*
X46261912Y-58462646D01*
X46261044Y-58461115D01*
X46239482Y-58422345D01*
X46210229Y-58395144D01*
X46207014Y-58392043D01*
X46184513Y-58369542D01*
X46184511Y-58369540D01*
X46184508Y-58369538D01*
X46178760Y-58365127D01*
X46169819Y-58357568D01*
X46169778Y-58357530D01*
X46169773Y-58357526D01*
X46143674Y-58345401D01*
X46133921Y-58340332D01*
X46115987Y-58329978D01*
X46108480Y-58326868D01*
X46108528Y-58326751D01*
X46095556Y-58321801D01*
X45597570Y-58070491D01*
X45590507Y-58066634D01*
X45083382Y-57767951D01*
X45076584Y-57763645D01*
X44809373Y-57581941D01*
X44589865Y-57432675D01*
X44583377Y-57427948D01*
X44392424Y-57279109D01*
X44119175Y-57066123D01*
X44112992Y-57060973D01*
X43673227Y-56669794D01*
X43667391Y-56664253D01*
X43253935Y-56245384D01*
X43248471Y-56239477D01*
X42863042Y-55794657D01*
X42857973Y-55788407D01*
X42502227Y-55319551D01*
X42497573Y-55312986D01*
X42172968Y-54822013D01*
X42168757Y-54815170D01*
X42151768Y-54785448D01*
X41876687Y-54304183D01*
X41872923Y-54297070D01*
X41614619Y-53768233D01*
X41611323Y-53760892D01*
X41450050Y-53367937D01*
X42294752Y-53367937D01*
X42294752Y-53367942D01*
X42313686Y-53535996D01*
X42369546Y-53695634D01*
X42369548Y-53695637D01*
X42459519Y-53838824D01*
X42459524Y-53838830D01*
X42579110Y-53958416D01*
X42579116Y-53958421D01*
X42722303Y-54048392D01*
X42722306Y-54048394D01*
X42722310Y-54048395D01*
X42722311Y-54048396D01*
X42794914Y-54073800D01*
X42881944Y-54104254D01*
X43049998Y-54123189D01*
X43050001Y-54123189D01*
X43050004Y-54123189D01*
X43218057Y-54104254D01*
X43278606Y-54083067D01*
X43377691Y-54048396D01*
X43377693Y-54048394D01*
X43377695Y-54048394D01*
X43377698Y-54048392D01*
X43520885Y-53958421D01*
X43520885Y-53958420D01*
X43520891Y-53958417D01*
X43584230Y-53895077D01*
X43645549Y-53861595D01*
X43715241Y-53866579D01*
X43771175Y-53908450D01*
X43795592Y-53973914D01*
X43795129Y-53996636D01*
X43794751Y-53999992D01*
X43794751Y-54000002D01*
X43813685Y-54168056D01*
X43869545Y-54327694D01*
X43869547Y-54327697D01*
X43959518Y-54470884D01*
X43959523Y-54470890D01*
X44079109Y-54590476D01*
X44079115Y-54590481D01*
X44222302Y-54680452D01*
X44222305Y-54680454D01*
X44222309Y-54680455D01*
X44222310Y-54680456D01*
X44294913Y-54705860D01*
X44381943Y-54736314D01*
X44549997Y-54755249D01*
X44550000Y-54755249D01*
X44550001Y-54755249D01*
X44565513Y-54753501D01*
X44597391Y-54749909D01*
X44666213Y-54761963D01*
X44698957Y-54785448D01*
X44768987Y-54855478D01*
X44768993Y-54855483D01*
X44912180Y-54945454D01*
X44912183Y-54945456D01*
X44912187Y-54945457D01*
X44912188Y-54945458D01*
X44984791Y-54970862D01*
X45071821Y-55001316D01*
X45239875Y-55020251D01*
X45239878Y-55020251D01*
X45239881Y-55020251D01*
X45369733Y-55005620D01*
X45438555Y-55017674D01*
X45489935Y-55065023D01*
X45507559Y-55132634D01*
X45506837Y-55142723D01*
X45494751Y-55249995D01*
X45494751Y-55250002D01*
X45513685Y-55418056D01*
X45569545Y-55577694D01*
X45569547Y-55577697D01*
X45659518Y-55720884D01*
X45659523Y-55720890D01*
X45779109Y-55840476D01*
X45779115Y-55840481D01*
X45922302Y-55930452D01*
X45922305Y-55930454D01*
X45922309Y-55930455D01*
X45922310Y-55930456D01*
X45994913Y-55955860D01*
X46081943Y-55986314D01*
X46249997Y-56005249D01*
X46250000Y-56005249D01*
X46250003Y-56005249D01*
X46418056Y-55986314D01*
X46418059Y-55986313D01*
X46577690Y-55930456D01*
X46577692Y-55930454D01*
X46577694Y-55930454D01*
X46577697Y-55930452D01*
X46720884Y-55840481D01*
X46720885Y-55840480D01*
X46720890Y-55840477D01*
X46840477Y-55720890D01*
X46930452Y-55577697D01*
X46930454Y-55577694D01*
X46930454Y-55577692D01*
X46930456Y-55577690D01*
X46986313Y-55418059D01*
X46986313Y-55418058D01*
X46986314Y-55418056D01*
X47005249Y-55250002D01*
X47005249Y-55249997D01*
X46986314Y-55081943D01*
X46930454Y-54922305D01*
X46930452Y-54922302D01*
X46840481Y-54779115D01*
X46840476Y-54779109D01*
X46720890Y-54659523D01*
X46647408Y-54613351D01*
X46601118Y-54561017D01*
X46590470Y-54491964D01*
X46608388Y-54442385D01*
X46621917Y-54420853D01*
X46680456Y-54327690D01*
X46736313Y-54168059D01*
X46736313Y-54168058D01*
X46736314Y-54168056D01*
X46755249Y-54000002D01*
X46755249Y-53999997D01*
X46736313Y-53831940D01*
X46736313Y-53831938D01*
X46680762Y-53673183D01*
X46677200Y-53603404D01*
X46692814Y-53566249D01*
X46694365Y-53563781D01*
X46694365Y-53563779D01*
X46694367Y-53563777D01*
X46697388Y-53557505D01*
X46699524Y-53558533D01*
X46733733Y-53510807D01*
X46798677Y-53485039D01*
X46824880Y-53486782D01*
X46825021Y-53485534D01*
X46999997Y-53505249D01*
X47000000Y-53505249D01*
X47000003Y-53505249D01*
X47168056Y-53486314D01*
X47171700Y-53485039D01*
X47327690Y-53430456D01*
X47327692Y-53430454D01*
X47327694Y-53430454D01*
X47327697Y-53430452D01*
X47470884Y-53340481D01*
X47470885Y-53340480D01*
X47470890Y-53340477D01*
X47590477Y-53220890D01*
X47591435Y-53219365D01*
X47680452Y-53077697D01*
X47680454Y-53077694D01*
X47680454Y-53077692D01*
X47680456Y-53077690D01*
X47736313Y-52918059D01*
X47736313Y-52918058D01*
X47736314Y-52918056D01*
X47755249Y-52750002D01*
X47755249Y-52749997D01*
X47736314Y-52581943D01*
X47680454Y-52422305D01*
X47680452Y-52422302D01*
X47590481Y-52279115D01*
X47590476Y-52279109D01*
X47470890Y-52159523D01*
X47470884Y-52159518D01*
X47327697Y-52069547D01*
X47327694Y-52069545D01*
X47168056Y-52013685D01*
X47000003Y-51994751D01*
X46999997Y-51994751D01*
X46831943Y-52013685D01*
X46672305Y-52069545D01*
X46672302Y-52069547D01*
X46529115Y-52159518D01*
X46529109Y-52159523D01*
X46409523Y-52279109D01*
X46409518Y-52279115D01*
X46319548Y-52422300D01*
X46316526Y-52428578D01*
X46314402Y-52427555D01*
X46280113Y-52475332D01*
X46215152Y-52501058D01*
X46189025Y-52499323D01*
X46188887Y-52500557D01*
X46013912Y-52480842D01*
X46013906Y-52480842D01*
X45845852Y-52499776D01*
X45686214Y-52555636D01*
X45686211Y-52555638D01*
X45543024Y-52645609D01*
X45543018Y-52645614D01*
X45423432Y-52765200D01*
X45423427Y-52765206D01*
X45333456Y-52908393D01*
X45333454Y-52908396D01*
X45277594Y-53068034D01*
X45258660Y-53236088D01*
X45258660Y-53236094D01*
X45271197Y-53347365D01*
X45259142Y-53416186D01*
X45211793Y-53467566D01*
X45144183Y-53485190D01*
X45077777Y-53463463D01*
X45060296Y-53448929D01*
X45020890Y-53409523D01*
X45020884Y-53409518D01*
X44877697Y-53319547D01*
X44877694Y-53319545D01*
X44718056Y-53263685D01*
X44550003Y-53244751D01*
X44549997Y-53244751D01*
X44381943Y-53263685D01*
X44222305Y-53319545D01*
X44222302Y-53319547D01*
X44079115Y-53409518D01*
X44015773Y-53472860D01*
X43954449Y-53506344D01*
X43884758Y-53501359D01*
X43828824Y-53459488D01*
X43804408Y-53394023D01*
X43804871Y-53371295D01*
X43805250Y-53367940D01*
X43794803Y-53275222D01*
X43786315Y-53199883D01*
X43730455Y-53040245D01*
X43730453Y-53040242D01*
X43640482Y-52897055D01*
X43640477Y-52897049D01*
X43520891Y-52777463D01*
X43520885Y-52777458D01*
X43377698Y-52687487D01*
X43377695Y-52687485D01*
X43218057Y-52631625D01*
X43050004Y-52612691D01*
X43049998Y-52612691D01*
X42881944Y-52631625D01*
X42722306Y-52687485D01*
X42722303Y-52687487D01*
X42579116Y-52777458D01*
X42579110Y-52777463D01*
X42459524Y-52897049D01*
X42459519Y-52897055D01*
X42369548Y-53040242D01*
X42369546Y-53040245D01*
X42313686Y-53199883D01*
X42294752Y-53367937D01*
X41450050Y-53367937D01*
X41438782Y-53340481D01*
X41387854Y-53216391D01*
X41385044Y-53208855D01*
X41337666Y-53068032D01*
X41197367Y-52651015D01*
X41195052Y-52643314D01*
X41171762Y-52555636D01*
X41043954Y-52074482D01*
X41042143Y-52066646D01*
X41032246Y-52016464D01*
X40928253Y-51489177D01*
X40926962Y-51481286D01*
X40912084Y-51367324D01*
X40922925Y-51298303D01*
X40969362Y-51246098D01*
X41036651Y-51227285D01*
X41075994Y-51234233D01*
X41081940Y-51236313D01*
X41249997Y-51255249D01*
X41250000Y-51255249D01*
X41250003Y-51255249D01*
X41418056Y-51236314D01*
X41430548Y-51231943D01*
X41577690Y-51180456D01*
X41577692Y-51180454D01*
X41577694Y-51180454D01*
X41577697Y-51180452D01*
X41720884Y-51090481D01*
X41720885Y-51090480D01*
X41720890Y-51090477D01*
X41840477Y-50970890D01*
X41840481Y-50970884D01*
X41930452Y-50827697D01*
X41930454Y-50827694D01*
X41930454Y-50827692D01*
X41930456Y-50827690D01*
X41986313Y-50668059D01*
X41986313Y-50668058D01*
X41986314Y-50668056D01*
X42005249Y-50500002D01*
X42005249Y-50499997D01*
X41986313Y-50331940D01*
X41986313Y-50331939D01*
X41928232Y-50165955D01*
X41924670Y-50096176D01*
X41928232Y-50084045D01*
X41986313Y-49918060D01*
X41986313Y-49918059D01*
X42005249Y-49750002D01*
X42005249Y-49749997D01*
X41986314Y-49581943D01*
X41930454Y-49422305D01*
X41930452Y-49422302D01*
X41840481Y-49279115D01*
X41840476Y-49279109D01*
X41720890Y-49159523D01*
X41720884Y-49159518D01*
X41577697Y-49069547D01*
X41577694Y-49069545D01*
X41418056Y-49013685D01*
X41250003Y-48994751D01*
X41249997Y-48994751D01*
X41081940Y-49013686D01*
X41081937Y-49013687D01*
X41041794Y-49027733D01*
X40972016Y-49031294D01*
X40911389Y-48996564D01*
X40879163Y-48934570D01*
X40877885Y-48894639D01*
X40890976Y-48794362D01*
X40926962Y-48518708D01*
X40928252Y-48510827D01*
X40965857Y-48320156D01*
X47474592Y-48320156D01*
X47474592Y-48320161D01*
X47493526Y-48488215D01*
X47549386Y-48647853D01*
X47549388Y-48647856D01*
X47639359Y-48791043D01*
X47639364Y-48791049D01*
X47758950Y-48910635D01*
X47758956Y-48910640D01*
X47902143Y-49000611D01*
X47902146Y-49000613D01*
X47902150Y-49000614D01*
X47902151Y-49000615D01*
X47939503Y-49013685D01*
X48061784Y-49056473D01*
X48229838Y-49075408D01*
X48229841Y-49075408D01*
X48229844Y-49075408D01*
X48397897Y-49056473D01*
X48397900Y-49056472D01*
X48557531Y-49000615D01*
X48557533Y-49000613D01*
X48557535Y-49000613D01*
X48557538Y-49000611D01*
X48700725Y-48910640D01*
X48700726Y-48910639D01*
X48700731Y-48910636D01*
X48820318Y-48791049D01*
X48910293Y-48647856D01*
X48910295Y-48647853D01*
X48910295Y-48647851D01*
X48910297Y-48647849D01*
X48966154Y-48488218D01*
X48966154Y-48488217D01*
X48966155Y-48488215D01*
X48985090Y-48320161D01*
X48985090Y-48320156D01*
X51044751Y-48320156D01*
X51044751Y-48320161D01*
X51063685Y-48488215D01*
X51119545Y-48647853D01*
X51119547Y-48647856D01*
X51209518Y-48791043D01*
X51209523Y-48791049D01*
X51329109Y-48910635D01*
X51329115Y-48910640D01*
X51472302Y-49000611D01*
X51472305Y-49000613D01*
X51472309Y-49000614D01*
X51472310Y-49000615D01*
X51509662Y-49013685D01*
X51631943Y-49056473D01*
X51739417Y-49068581D01*
X51800000Y-49075408D01*
X51801335Y-49075257D01*
X51802195Y-49075408D01*
X51806964Y-49075408D01*
X51806964Y-49076243D01*
X51870156Y-49087309D01*
X51921537Y-49134655D01*
X51939165Y-49202264D01*
X51917442Y-49268671D01*
X51912175Y-49275784D01*
X51909519Y-49279113D01*
X51819547Y-49422302D01*
X51819545Y-49422305D01*
X51763685Y-49581943D01*
X51744751Y-49749997D01*
X51744751Y-49750002D01*
X51763685Y-49918056D01*
X51819545Y-50077692D01*
X51897685Y-50202050D01*
X51916685Y-50269286D01*
X51897685Y-50333994D01*
X51833454Y-50436216D01*
X51777594Y-50595852D01*
X51758660Y-50763906D01*
X51758660Y-50763911D01*
X51777594Y-50931965D01*
X51833454Y-51091603D01*
X51833456Y-51091606D01*
X51923427Y-51234793D01*
X51923432Y-51234799D01*
X52043018Y-51354385D01*
X52043024Y-51354390D01*
X52186211Y-51444361D01*
X52186214Y-51444363D01*
X52186218Y-51444364D01*
X52186219Y-51444365D01*
X52258822Y-51469769D01*
X52345852Y-51500223D01*
X52513906Y-51519158D01*
X52513909Y-51519158D01*
X52513912Y-51519158D01*
X52681965Y-51500223D01*
X52681968Y-51500222D01*
X52841599Y-51444365D01*
X52841601Y-51444363D01*
X52841603Y-51444363D01*
X52841606Y-51444361D01*
X52984793Y-51354390D01*
X52984793Y-51354389D01*
X52984799Y-51354386D01*
X53048651Y-51290533D01*
X53109970Y-51257051D01*
X53179662Y-51262035D01*
X53235596Y-51303906D01*
X53260013Y-51369370D01*
X53259550Y-51392095D01*
X53258660Y-51399997D01*
X53258660Y-51400002D01*
X53277594Y-51568056D01*
X53333454Y-51727694D01*
X53333456Y-51727697D01*
X53423427Y-51870884D01*
X53423432Y-51870890D01*
X53543019Y-51990477D01*
X53584379Y-52016465D01*
X53630669Y-52068798D01*
X53641318Y-52137852D01*
X53623401Y-52187428D01*
X53608453Y-52211217D01*
X53552594Y-52370852D01*
X53533660Y-52538906D01*
X53533660Y-52538911D01*
X53552594Y-52706965D01*
X53608454Y-52866603D01*
X53608456Y-52866606D01*
X53698427Y-53009793D01*
X53698432Y-53009799D01*
X53818018Y-53129385D01*
X53818024Y-53129390D01*
X53961211Y-53219361D01*
X53961214Y-53219363D01*
X53961218Y-53219364D01*
X53961219Y-53219365D01*
X54009028Y-53236094D01*
X54120852Y-53275223D01*
X54288906Y-53294158D01*
X54288909Y-53294158D01*
X54288912Y-53294158D01*
X54456965Y-53275223D01*
X54489939Y-53263685D01*
X54616599Y-53219365D01*
X54616601Y-53219363D01*
X54616603Y-53219363D01*
X54616606Y-53219361D01*
X54759793Y-53129390D01*
X54759794Y-53129389D01*
X54759799Y-53129386D01*
X54879386Y-53009799D01*
X54879390Y-53009793D01*
X54969361Y-52866606D01*
X54969363Y-52866603D01*
X54969363Y-52866601D01*
X54969365Y-52866599D01*
X55025222Y-52706968D01*
X55025222Y-52706967D01*
X55025223Y-52706965D01*
X55044158Y-52538911D01*
X55044158Y-52538906D01*
X55025223Y-52370852D01*
X54969363Y-52211214D01*
X54969361Y-52211211D01*
X54879390Y-52068024D01*
X54879385Y-52068018D01*
X54759800Y-51948433D01*
X54759799Y-51948432D01*
X54739755Y-51935837D01*
X54718437Y-51922442D01*
X54672147Y-51870106D01*
X54661500Y-51801053D01*
X54679418Y-51751477D01*
X54694365Y-51727690D01*
X54750222Y-51568059D01*
X54764159Y-51444365D01*
X54769158Y-51400002D01*
X54769158Y-51399997D01*
X54750223Y-51231943D01*
X54700722Y-51090477D01*
X54694365Y-51072310D01*
X54694364Y-51072309D01*
X54694363Y-51072305D01*
X54694361Y-51072302D01*
X54604390Y-50929115D01*
X54604385Y-50929109D01*
X54484799Y-50809523D01*
X54484793Y-50809518D01*
X54341606Y-50719547D01*
X54341603Y-50719545D01*
X54181965Y-50663685D01*
X54013912Y-50644751D01*
X54013906Y-50644751D01*
X53845852Y-50663685D01*
X53686214Y-50719545D01*
X53686211Y-50719547D01*
X53543024Y-50809518D01*
X53479169Y-50873373D01*
X53417845Y-50906857D01*
X53348154Y-50901872D01*
X53292220Y-50860001D01*
X53267804Y-50794536D01*
X53268268Y-50771804D01*
X53269158Y-50763911D01*
X53269158Y-50763909D01*
X53264160Y-50719547D01*
X53250223Y-50595852D01*
X53231603Y-50542639D01*
X53194365Y-50436219D01*
X53194363Y-50436216D01*
X53194363Y-50436215D01*
X53116224Y-50311859D01*
X53097223Y-50244622D01*
X53116223Y-50179915D01*
X53180456Y-50077690D01*
X53236313Y-49918059D01*
X53236313Y-49918058D01*
X53236314Y-49918056D01*
X53255249Y-49750002D01*
X53255249Y-49749997D01*
X53236314Y-49581943D01*
X53180454Y-49422305D01*
X53180452Y-49422302D01*
X53090481Y-49279115D01*
X53090476Y-49279109D01*
X52970890Y-49159523D01*
X52970884Y-49159518D01*
X52827697Y-49069547D01*
X52827694Y-49069545D01*
X52668056Y-49013685D01*
X52500003Y-48994751D01*
X52499991Y-48994751D01*
X52498650Y-48994902D01*
X52497788Y-48994751D01*
X52493036Y-48994751D01*
X52493036Y-48993918D01*
X52429829Y-48982842D01*
X52378453Y-48935489D01*
X52360834Y-48867877D01*
X52382566Y-48801473D01*
X52387834Y-48794362D01*
X52390466Y-48791059D01*
X52390477Y-48791049D01*
X52480452Y-48647856D01*
X52480454Y-48647853D01*
X52480454Y-48647851D01*
X52480456Y-48647849D01*
X52497200Y-48599997D01*
X53844751Y-48599997D01*
X53844751Y-48600002D01*
X53863685Y-48768056D01*
X53919545Y-48927694D01*
X53919547Y-48927697D01*
X54009518Y-49070884D01*
X54009523Y-49070890D01*
X54129109Y-49190476D01*
X54129115Y-49190481D01*
X54272302Y-49280452D01*
X54272305Y-49280454D01*
X54272309Y-49280455D01*
X54272310Y-49280456D01*
X54344913Y-49305860D01*
X54431943Y-49336314D01*
X54599997Y-49355249D01*
X54600000Y-49355249D01*
X54600003Y-49355249D01*
X54768056Y-49336314D01*
X54768059Y-49336313D01*
X54927690Y-49280456D01*
X54927692Y-49280454D01*
X54927694Y-49280454D01*
X54927697Y-49280452D01*
X55070884Y-49190481D01*
X55070885Y-49190480D01*
X55070890Y-49190477D01*
X55190477Y-49070890D01*
X55199536Y-49056473D01*
X55280452Y-48927697D01*
X55280454Y-48927694D01*
X55280454Y-48927692D01*
X55280456Y-48927690D01*
X55336313Y-48768059D01*
X55336313Y-48768058D01*
X55336314Y-48768056D01*
X55355249Y-48600002D01*
X55355249Y-48599997D01*
X55341580Y-48478684D01*
X55353634Y-48409862D01*
X55400983Y-48358482D01*
X55468594Y-48340858D01*
X55478684Y-48341580D01*
X55599997Y-48355249D01*
X55600000Y-48355249D01*
X55600003Y-48355249D01*
X55768056Y-48336314D01*
X55768059Y-48336313D01*
X55927690Y-48280456D01*
X55927692Y-48280454D01*
X55927694Y-48280454D01*
X55927697Y-48280452D01*
X56070884Y-48190481D01*
X56070885Y-48190480D01*
X56070890Y-48190477D01*
X56190477Y-48070890D01*
X56229040Y-48009518D01*
X56280452Y-47927697D01*
X56280454Y-47927694D01*
X56280454Y-47927692D01*
X56280456Y-47927690D01*
X56336313Y-47768059D01*
X56336313Y-47768058D01*
X56336314Y-47768056D01*
X56355249Y-47600002D01*
X56355249Y-47599997D01*
X56336314Y-47431943D01*
X56280454Y-47272305D01*
X56280452Y-47272302D01*
X56190481Y-47129115D01*
X56190476Y-47129109D01*
X56070890Y-47009523D01*
X56070884Y-47009518D01*
X55927697Y-46919547D01*
X55927694Y-46919545D01*
X55768056Y-46863685D01*
X55600003Y-46844751D01*
X55599997Y-46844751D01*
X55431943Y-46863685D01*
X55272305Y-46919545D01*
X55272302Y-46919547D01*
X55129115Y-47009518D01*
X55129109Y-47009523D01*
X55009523Y-47129109D01*
X55009518Y-47129115D01*
X54919547Y-47272302D01*
X54919545Y-47272305D01*
X54863685Y-47431943D01*
X54844751Y-47599997D01*
X54844751Y-47600003D01*
X54858419Y-47721316D01*
X54846364Y-47790138D01*
X54799015Y-47841517D01*
X54731405Y-47859141D01*
X54721316Y-47858419D01*
X54600004Y-47844751D01*
X54599997Y-47844751D01*
X54431943Y-47863685D01*
X54272305Y-47919545D01*
X54272302Y-47919547D01*
X54129115Y-48009518D01*
X54129109Y-48009523D01*
X54009523Y-48129109D01*
X54009518Y-48129115D01*
X53919547Y-48272302D01*
X53919545Y-48272305D01*
X53863685Y-48431943D01*
X53844751Y-48599997D01*
X52497200Y-48599997D01*
X52536313Y-48488218D01*
X52536313Y-48488217D01*
X52536314Y-48488215D01*
X52555249Y-48320161D01*
X52555249Y-48320156D01*
X52536314Y-48152102D01*
X52486423Y-48009523D01*
X52480456Y-47992469D01*
X52480455Y-47992468D01*
X52480454Y-47992464D01*
X52480452Y-47992461D01*
X52390481Y-47849274D01*
X52390476Y-47849268D01*
X52270890Y-47729682D01*
X52270884Y-47729677D01*
X52127697Y-47639706D01*
X52127694Y-47639704D01*
X51968056Y-47583844D01*
X51800003Y-47564910D01*
X51799997Y-47564910D01*
X51631943Y-47583844D01*
X51472305Y-47639704D01*
X51472302Y-47639706D01*
X51329115Y-47729677D01*
X51329109Y-47729682D01*
X51209523Y-47849268D01*
X51209518Y-47849274D01*
X51119547Y-47992461D01*
X51119545Y-47992464D01*
X51063685Y-48152102D01*
X51044751Y-48320156D01*
X48985090Y-48320156D01*
X48966155Y-48152102D01*
X48916264Y-48009523D01*
X48910297Y-47992469D01*
X48910296Y-47992468D01*
X48910295Y-47992464D01*
X48910293Y-47992461D01*
X48820322Y-47849274D01*
X48820317Y-47849268D01*
X48700731Y-47729682D01*
X48700725Y-47729677D01*
X48557538Y-47639706D01*
X48557535Y-47639704D01*
X48397897Y-47583844D01*
X48229844Y-47564910D01*
X48229838Y-47564910D01*
X48061784Y-47583844D01*
X47902146Y-47639704D01*
X47902143Y-47639706D01*
X47758956Y-47729677D01*
X47758950Y-47729682D01*
X47639364Y-47849268D01*
X47639359Y-47849274D01*
X47549388Y-47992461D01*
X47549386Y-47992464D01*
X47493526Y-48152102D01*
X47474592Y-48320156D01*
X40965857Y-48320156D01*
X41042145Y-47933342D01*
X41043956Y-47925512D01*
X41195055Y-47356672D01*
X41197369Y-47348979D01*
X41223164Y-47272310D01*
X41385049Y-46791130D01*
X41387850Y-46783618D01*
X41611324Y-46239104D01*
X41614619Y-46231766D01*
X41872923Y-45702929D01*
X41876687Y-45695816D01*
X42168771Y-45184805D01*
X42172960Y-45178000D01*
X42497585Y-44686995D01*
X42502214Y-44680465D01*
X42640669Y-44497988D01*
X42696873Y-44456481D01*
X42766595Y-44451948D01*
X42827700Y-44485830D01*
X42860787Y-44547369D01*
X42862672Y-44559057D01*
X42863685Y-44568056D01*
X42896853Y-44662844D01*
X42919544Y-44727690D01*
X42921173Y-44730284D01*
X42923529Y-44734033D01*
X42942525Y-44801270D01*
X42923529Y-44865967D01*
X42919545Y-44872308D01*
X42863685Y-45031943D01*
X42844751Y-45199997D01*
X42844751Y-45200002D01*
X42863685Y-45368056D01*
X42919545Y-45527694D01*
X42919547Y-45527697D01*
X43009518Y-45670884D01*
X43009523Y-45670890D01*
X43129109Y-45790476D01*
X43129115Y-45790481D01*
X43272302Y-45880452D01*
X43272305Y-45880454D01*
X43272309Y-45880455D01*
X43272310Y-45880456D01*
X43344913Y-45905860D01*
X43431943Y-45936314D01*
X43599997Y-45955249D01*
X43600000Y-45955249D01*
X43600003Y-45955249D01*
X43768056Y-45936314D01*
X43768059Y-45936313D01*
X43927690Y-45880456D01*
X43927692Y-45880454D01*
X43927694Y-45880454D01*
X43927697Y-45880452D01*
X44070884Y-45790481D01*
X44070885Y-45790480D01*
X44070890Y-45790477D01*
X44190477Y-45670890D01*
X44200865Y-45654358D01*
X44280452Y-45527697D01*
X44280454Y-45527694D01*
X44280454Y-45527692D01*
X44280456Y-45527690D01*
X44336313Y-45368059D01*
X44336313Y-45368057D01*
X44336314Y-45368055D01*
X44348709Y-45258046D01*
X44375775Y-45193632D01*
X44433370Y-45154077D01*
X44458046Y-45148709D01*
X44568055Y-45136314D01*
X44568057Y-45136313D01*
X44568059Y-45136313D01*
X44727690Y-45080456D01*
X44727692Y-45080454D01*
X44727694Y-45080454D01*
X44727697Y-45080452D01*
X44870884Y-44990481D01*
X44870885Y-44990480D01*
X44870890Y-44990477D01*
X44990477Y-44870890D01*
X44990481Y-44870884D01*
X45080452Y-44727697D01*
X45080454Y-44727694D01*
X45080455Y-44727691D01*
X45080456Y-44727690D01*
X45136313Y-44568059D01*
X45136313Y-44568058D01*
X45136314Y-44568056D01*
X45155249Y-44400002D01*
X45155249Y-44399997D01*
X45136313Y-44231942D01*
X45129192Y-44211592D01*
X45080456Y-44072310D01*
X45076475Y-44065975D01*
X45057472Y-43998742D01*
X45076475Y-43934024D01*
X45080456Y-43927690D01*
X45136313Y-43768059D01*
X45138348Y-43749997D01*
X48744751Y-43749997D01*
X48744751Y-43750002D01*
X48763685Y-43918056D01*
X48819545Y-44077694D01*
X48819547Y-44077697D01*
X48909518Y-44220884D01*
X48909523Y-44220890D01*
X49029109Y-44340476D01*
X49029115Y-44340481D01*
X49172302Y-44430452D01*
X49172305Y-44430454D01*
X49172309Y-44430455D01*
X49172310Y-44430456D01*
X49220048Y-44447160D01*
X49331943Y-44486314D01*
X49499997Y-44505249D01*
X49500000Y-44505249D01*
X49500003Y-44505249D01*
X49602445Y-44493706D01*
X49668059Y-44486313D01*
X49827690Y-44430456D01*
X49830158Y-44428904D01*
X49831978Y-44428390D01*
X49833960Y-44427436D01*
X49834127Y-44427783D01*
X49897393Y-44409900D01*
X49937090Y-44416851D01*
X50040353Y-44452985D01*
X50097128Y-44493706D01*
X50116439Y-44529070D01*
X50133453Y-44577692D01*
X50223427Y-44720884D01*
X50223432Y-44720890D01*
X50343018Y-44840476D01*
X50343024Y-44840481D01*
X50486211Y-44930452D01*
X50486221Y-44930457D01*
X50508330Y-44938193D01*
X50565107Y-44978913D01*
X50590598Y-45041349D01*
X50595641Y-45086103D01*
X50651498Y-45245737D01*
X50651501Y-45245742D01*
X50741472Y-45388929D01*
X50741477Y-45388935D01*
X50861063Y-45508521D01*
X50861069Y-45508526D01*
X51004256Y-45598497D01*
X51004259Y-45598499D01*
X51004263Y-45598500D01*
X51004264Y-45598501D01*
X51076867Y-45623905D01*
X51163897Y-45654359D01*
X51331951Y-45673294D01*
X51331954Y-45673294D01*
X51331957Y-45673294D01*
X51500010Y-45654359D01*
X51500013Y-45654358D01*
X51659644Y-45598501D01*
X51659646Y-45598499D01*
X51659648Y-45598499D01*
X51659651Y-45598497D01*
X51802838Y-45508526D01*
X51802839Y-45508525D01*
X51802844Y-45508522D01*
X51922431Y-45388935D01*
X51929276Y-45378042D01*
X52012406Y-45245742D01*
X52012408Y-45245739D01*
X52012408Y-45245737D01*
X52012410Y-45245735D01*
X52068267Y-45086104D01*
X52068267Y-45086103D01*
X52068268Y-45086101D01*
X52087203Y-44918047D01*
X52087203Y-44918042D01*
X52068268Y-44749988D01*
X52012408Y-44590350D01*
X52012406Y-44590347D01*
X51922435Y-44447160D01*
X51922430Y-44447154D01*
X51802844Y-44327568D01*
X51802838Y-44327563D01*
X51659653Y-44237593D01*
X51659647Y-44237590D01*
X51643503Y-44231941D01*
X51637526Y-44229849D01*
X51580752Y-44189127D01*
X51555264Y-44126693D01*
X51550222Y-44081941D01*
X51494365Y-43922310D01*
X51494364Y-43922309D01*
X51494363Y-43922305D01*
X51494361Y-43922302D01*
X51404390Y-43779115D01*
X51404385Y-43779109D01*
X51284799Y-43659523D01*
X51284793Y-43659518D01*
X51141606Y-43569547D01*
X51141595Y-43569542D01*
X51037463Y-43533104D01*
X50980687Y-43492382D01*
X50961376Y-43457017D01*
X50952602Y-43431943D01*
X50944365Y-43408401D01*
X50944364Y-43408398D01*
X50944361Y-43408393D01*
X50854390Y-43265206D01*
X50854385Y-43265200D01*
X50734799Y-43145614D01*
X50734793Y-43145609D01*
X50591606Y-43055638D01*
X50591603Y-43055636D01*
X50431965Y-42999776D01*
X50263912Y-42980842D01*
X50263906Y-42980842D01*
X50095852Y-42999776D01*
X49936215Y-43055636D01*
X49933733Y-43057196D01*
X49931903Y-43057712D01*
X49929947Y-43058655D01*
X49929781Y-43058312D01*
X49866494Y-43076189D01*
X49826817Y-43069238D01*
X49668057Y-43013686D01*
X49500003Y-42994751D01*
X49499997Y-42994751D01*
X49331943Y-43013685D01*
X49172305Y-43069545D01*
X49172302Y-43069547D01*
X49029115Y-43159518D01*
X49029109Y-43159523D01*
X48909523Y-43279109D01*
X48909518Y-43279115D01*
X48819547Y-43422302D01*
X48819545Y-43422305D01*
X48763685Y-43581943D01*
X48744751Y-43749997D01*
X45138348Y-43749997D01*
X45148543Y-43659518D01*
X45155249Y-43600002D01*
X45155249Y-43599997D01*
X45136314Y-43431943D01*
X45080454Y-43272305D01*
X45080452Y-43272302D01*
X44990481Y-43129115D01*
X44990476Y-43129109D01*
X44870890Y-43009523D01*
X44870884Y-43009518D01*
X44727697Y-42919547D01*
X44727694Y-42919545D01*
X44568056Y-42863686D01*
X44556759Y-42862413D01*
X44492346Y-42835345D01*
X44452792Y-42777749D01*
X44450656Y-42707912D01*
X44486616Y-42648006D01*
X44494403Y-42641402D01*
X44583397Y-42572036D01*
X44589845Y-42567338D01*
X45076597Y-42236345D01*
X45083369Y-42232055D01*
X45590514Y-41933360D01*
X45597563Y-41929511D01*
X46095559Y-41678196D01*
X46108522Y-41673251D01*
X46108474Y-41673134D01*
X46115983Y-41670023D01*
X46115984Y-41670022D01*
X46115989Y-41670021D01*
X46133941Y-41659655D01*
X46143675Y-41654597D01*
X46169773Y-41642474D01*
X46169817Y-41642433D01*
X46178781Y-41634855D01*
X46184503Y-41630464D01*
X46184511Y-41630460D01*
X46207026Y-41607943D01*
X46210211Y-41604871D01*
X46239482Y-41577655D01*
X46261060Y-41538855D01*
X46261864Y-41537436D01*
X46280021Y-41505989D01*
X46280022Y-41505983D01*
X46280793Y-41504649D01*
X46285474Y-41494959D01*
X46285749Y-41494466D01*
X46292106Y-41462005D01*
X46294021Y-41453740D01*
X46300500Y-41429564D01*
X46301095Y-41425038D01*
X46302812Y-41407347D01*
X46304045Y-41401051D01*
X46301403Y-41379279D01*
X46300500Y-41364341D01*
X46300500Y-38749997D01*
X48244751Y-38749997D01*
X48244751Y-38750002D01*
X48263685Y-38918056D01*
X48321768Y-39084045D01*
X48325329Y-39153824D01*
X48321768Y-39165955D01*
X48263685Y-39331943D01*
X48244751Y-39499997D01*
X48244751Y-39500002D01*
X48263685Y-39668056D01*
X48321768Y-39834045D01*
X48325329Y-39903824D01*
X48321768Y-39915955D01*
X48263685Y-40081943D01*
X48244751Y-40249997D01*
X48244751Y-40250002D01*
X48263685Y-40418056D01*
X48319545Y-40577694D01*
X48319547Y-40577697D01*
X48409518Y-40720884D01*
X48409523Y-40720890D01*
X48529109Y-40840476D01*
X48529115Y-40840481D01*
X48672302Y-40930452D01*
X48672305Y-40930454D01*
X48672309Y-40930455D01*
X48672310Y-40930456D01*
X48744913Y-40955860D01*
X48831943Y-40986314D01*
X48999997Y-41005249D01*
X49000000Y-41005249D01*
X49000003Y-41005249D01*
X49168059Y-40986313D01*
X49168060Y-40986313D01*
X49257237Y-40955108D01*
X49327690Y-40930456D01*
X49327690Y-40930455D01*
X49334045Y-40928232D01*
X49403824Y-40924670D01*
X49415955Y-40928232D01*
X49422309Y-40930455D01*
X49422310Y-40930456D01*
X49465918Y-40945715D01*
X49581939Y-40986313D01*
X49749997Y-41005249D01*
X49750000Y-41005249D01*
X49750003Y-41005249D01*
X49918056Y-40986314D01*
X49918059Y-40986313D01*
X50077690Y-40930456D01*
X50077692Y-40930454D01*
X50077694Y-40930454D01*
X50077697Y-40930452D01*
X50220884Y-40840481D01*
X50220885Y-40840480D01*
X50220890Y-40840477D01*
X50340477Y-40720890D01*
X50430452Y-40577697D01*
X50430454Y-40577694D01*
X50430454Y-40577692D01*
X50430456Y-40577690D01*
X50486313Y-40418059D01*
X50486313Y-40418058D01*
X50486314Y-40418056D01*
X50505249Y-40250002D01*
X50505249Y-40249997D01*
X50486313Y-40081940D01*
X50486313Y-40081939D01*
X50428232Y-39915955D01*
X50424670Y-39846176D01*
X50428232Y-39834045D01*
X50486313Y-39668060D01*
X50486313Y-39668059D01*
X50505249Y-39500002D01*
X50505249Y-39499997D01*
X50486313Y-39331940D01*
X50486313Y-39331939D01*
X50428232Y-39165955D01*
X50424670Y-39096176D01*
X50428232Y-39084045D01*
X50486313Y-38918060D01*
X50486313Y-38918059D01*
X50505249Y-38750002D01*
X50505249Y-38749997D01*
X50486314Y-38581943D01*
X50430454Y-38422305D01*
X50430452Y-38422302D01*
X50340481Y-38279115D01*
X50340476Y-38279109D01*
X50220890Y-38159523D01*
X50220884Y-38159518D01*
X50077697Y-38069547D01*
X50077694Y-38069545D01*
X49918056Y-38013685D01*
X49750003Y-37994751D01*
X49749997Y-37994751D01*
X49581943Y-38013685D01*
X49447190Y-38060838D01*
X49422310Y-38069544D01*
X49422309Y-38069544D01*
X49415955Y-38071768D01*
X49346176Y-38075329D01*
X49334045Y-38071768D01*
X49327690Y-38069544D01*
X49294077Y-38057782D01*
X49168056Y-38013685D01*
X49000003Y-37994751D01*
X48999997Y-37994751D01*
X48831943Y-38013685D01*
X48672305Y-38069545D01*
X48672302Y-38069547D01*
X48529115Y-38159518D01*
X48529109Y-38159523D01*
X48409523Y-38279109D01*
X48409518Y-38279115D01*
X48319547Y-38422302D01*
X48319545Y-38422305D01*
X48263685Y-38581943D01*
X48244751Y-38749997D01*
X46300500Y-38749997D01*
X46300500Y-37448071D01*
X46320185Y-37381032D01*
X46372989Y-37335277D01*
X46442147Y-37325333D01*
X46465455Y-37331030D01*
X46620737Y-37385366D01*
X46620743Y-37385367D01*
X46620745Y-37385368D01*
X46620746Y-37385368D01*
X46620750Y-37385369D01*
X46799996Y-37405565D01*
X46800000Y-37405565D01*
X46800004Y-37405565D01*
X46979249Y-37385369D01*
X46979252Y-37385368D01*
X46979255Y-37385368D01*
X47149522Y-37325789D01*
X47302262Y-37229816D01*
X47429816Y-37102262D01*
X47495007Y-36998510D01*
X47547341Y-36952221D01*
X47616394Y-36941573D01*
X47680243Y-36969948D01*
X47704992Y-36998509D01*
X47770184Y-37102262D01*
X47897738Y-37229816D01*
X48050478Y-37325789D01*
X48208353Y-37381032D01*
X48220745Y-37385368D01*
X48220750Y-37385369D01*
X48399996Y-37405565D01*
X48400000Y-37405565D01*
X48400004Y-37405565D01*
X48579249Y-37385369D01*
X48579252Y-37385368D01*
X48579255Y-37385368D01*
X48749522Y-37325789D01*
X48902262Y-37229816D01*
X49029816Y-37102262D01*
X49095007Y-36998510D01*
X49147341Y-36952221D01*
X49216394Y-36941573D01*
X49280243Y-36969948D01*
X49304992Y-36998509D01*
X49370184Y-37102262D01*
X49497738Y-37229816D01*
X49650478Y-37325789D01*
X49808353Y-37381032D01*
X49820745Y-37385368D01*
X49820750Y-37385369D01*
X49999996Y-37405565D01*
X50000000Y-37405565D01*
X50000004Y-37405565D01*
X50179249Y-37385369D01*
X50179252Y-37385368D01*
X50179255Y-37385368D01*
X50349522Y-37325789D01*
X50502262Y-37229816D01*
X50629816Y-37102262D01*
X50695007Y-36998510D01*
X50747341Y-36952221D01*
X50816394Y-36941573D01*
X50880243Y-36969948D01*
X50904992Y-36998509D01*
X50970184Y-37102262D01*
X51097738Y-37229816D01*
X51250478Y-37325789D01*
X51408353Y-37381032D01*
X51420745Y-37385368D01*
X51420750Y-37385369D01*
X51599996Y-37405565D01*
X51600000Y-37405565D01*
X51600004Y-37405565D01*
X51779249Y-37385369D01*
X51779252Y-37385368D01*
X51779255Y-37385368D01*
X51949522Y-37325789D01*
X52102262Y-37229816D01*
X52229816Y-37102262D01*
X52295007Y-36998510D01*
X52347341Y-36952221D01*
X52416394Y-36941573D01*
X52480243Y-36969948D01*
G37*
G04 #@! TD.AperFunction*
G04 #@! TA.AperFunction,Conductor*
G36*
X39374903Y-17670185D02*
G01*
X39420658Y-17722989D01*
X39430602Y-17792147D01*
X39401577Y-17855703D01*
X39365275Y-17884409D01*
X39257470Y-17940721D01*
X39099846Y-18069246D01*
X38971321Y-18226870D01*
X38877157Y-18407137D01*
X38842003Y-18530000D01*
X39615625Y-18530000D01*
X39580530Y-18565095D01*
X39534452Y-18644905D01*
X39510600Y-18733922D01*
X39510600Y-18826078D01*
X39534452Y-18915095D01*
X39580530Y-18994905D01*
X39615625Y-19030000D01*
X38842003Y-19030000D01*
X38877157Y-19152862D01*
X38971321Y-19333129D01*
X39099846Y-19490753D01*
X39257468Y-19619277D01*
X39384130Y-19685440D01*
X39434437Y-19733927D01*
X39450544Y-19801915D01*
X39427337Y-19867818D01*
X39414404Y-19883026D01*
X39410094Y-19887335D01*
X39410092Y-19887338D01*
X39340913Y-20007161D01*
X39340912Y-20007164D01*
X39305100Y-20140817D01*
X39305100Y-20279182D01*
X39340912Y-20412835D01*
X39340913Y-20412838D01*
X39410092Y-20532661D01*
X39410094Y-20532664D01*
X39410095Y-20532665D01*
X39507935Y-20630505D01*
X39627764Y-20699688D01*
X39761417Y-20735500D01*
X39761419Y-20735500D01*
X39899781Y-20735500D01*
X39899783Y-20735500D01*
X40033436Y-20699688D01*
X40153265Y-20630505D01*
X40251105Y-20532665D01*
X40320288Y-20412836D01*
X40356100Y-20279183D01*
X40356100Y-20241465D01*
X53403200Y-20241465D01*
X53403200Y-20378534D01*
X53429937Y-20512949D01*
X53429940Y-20512961D01*
X53482386Y-20639578D01*
X53482393Y-20639591D01*
X53558536Y-20753546D01*
X53558539Y-20753550D01*
X53655449Y-20850460D01*
X53655453Y-20850463D01*
X53769408Y-20926606D01*
X53769421Y-20926613D01*
X53896038Y-20979059D01*
X53896043Y-20979061D01*
X54030465Y-21005799D01*
X54030469Y-21005800D01*
X54030470Y-21005800D01*
X54167531Y-21005800D01*
X54167532Y-21005799D01*
X54301957Y-20979061D01*
X54428585Y-20926610D01*
X54542547Y-20850463D01*
X54639463Y-20753547D01*
X54715610Y-20639585D01*
X54768061Y-20512957D01*
X54794800Y-20378530D01*
X54794800Y-20241470D01*
X54794799Y-20241465D01*
X55435200Y-20241465D01*
X55435200Y-20378534D01*
X55461937Y-20512949D01*
X55461940Y-20512961D01*
X55514386Y-20639578D01*
X55514393Y-20639591D01*
X55590536Y-20753546D01*
X55590539Y-20753550D01*
X55687449Y-20850460D01*
X55687453Y-20850463D01*
X55801408Y-20926606D01*
X55801421Y-20926613D01*
X55928038Y-20979059D01*
X55928043Y-20979061D01*
X56062465Y-21005799D01*
X56062469Y-21005800D01*
X56062470Y-21005800D01*
X56199531Y-21005800D01*
X56199532Y-21005799D01*
X56333957Y-20979061D01*
X56460585Y-20926610D01*
X56574547Y-20850463D01*
X56671463Y-20753547D01*
X56747610Y-20639585D01*
X56800061Y-20512957D01*
X56826800Y-20378530D01*
X56826800Y-20241470D01*
X56800061Y-20107043D01*
X56758689Y-20007161D01*
X56747613Y-19980421D01*
X56747606Y-19980408D01*
X56671463Y-19866453D01*
X56671460Y-19866449D01*
X56574550Y-19769539D01*
X56574546Y-19769536D01*
X56460591Y-19693393D01*
X56460578Y-19693386D01*
X56333961Y-19640940D01*
X56333949Y-19640937D01*
X56199534Y-19614200D01*
X56199530Y-19614200D01*
X56062470Y-19614200D01*
X56062465Y-19614200D01*
X55928050Y-19640937D01*
X55928038Y-19640940D01*
X55801421Y-19693386D01*
X55801408Y-19693393D01*
X55687453Y-19769536D01*
X55687449Y-19769539D01*
X55590539Y-19866449D01*
X55590536Y-19866453D01*
X55514393Y-19980408D01*
X55514386Y-19980421D01*
X55461940Y-20107038D01*
X55461937Y-20107050D01*
X55435200Y-20241465D01*
X54794799Y-20241465D01*
X54768061Y-20107043D01*
X54726689Y-20007161D01*
X54715613Y-19980421D01*
X54715606Y-19980408D01*
X54639463Y-19866453D01*
X54639460Y-19866449D01*
X54542550Y-19769539D01*
X54542546Y-19769536D01*
X54428591Y-19693393D01*
X54428578Y-19693386D01*
X54301961Y-19640940D01*
X54301949Y-19640937D01*
X54167534Y-19614200D01*
X54167530Y-19614200D01*
X54030470Y-19614200D01*
X54030465Y-19614200D01*
X53896050Y-19640937D01*
X53896038Y-19640940D01*
X53769421Y-19693386D01*
X53769408Y-19693393D01*
X53655453Y-19769536D01*
X53655449Y-19769539D01*
X53558539Y-19866449D01*
X53558536Y-19866453D01*
X53482393Y-19980408D01*
X53482386Y-19980421D01*
X53429940Y-20107038D01*
X53429937Y-20107050D01*
X53403200Y-20241465D01*
X40356100Y-20241465D01*
X40356100Y-20140817D01*
X40320288Y-20007164D01*
X40251105Y-19887335D01*
X40153265Y-19789495D01*
X40147518Y-19783748D01*
X40149895Y-19781370D01*
X40117894Y-19737509D01*
X40110600Y-19695607D01*
X40110600Y-19130000D01*
X40610600Y-19130000D01*
X40610600Y-19780000D01*
X40968598Y-19780000D01*
X40968600Y-19779999D01*
X41087925Y-19769391D01*
X41087928Y-19769390D01*
X41283461Y-19713442D01*
X41463729Y-19619278D01*
X41621353Y-19490753D01*
X41749878Y-19333129D01*
X41844042Y-19152862D01*
X41879197Y-19030000D01*
X41105575Y-19030000D01*
X41140670Y-18994905D01*
X41186748Y-18915095D01*
X41210600Y-18826078D01*
X41210600Y-18733922D01*
X41186748Y-18644905D01*
X41140670Y-18565095D01*
X41105575Y-18530000D01*
X41879197Y-18530000D01*
X41844042Y-18407137D01*
X41749878Y-18226870D01*
X41621353Y-18069246D01*
X41463729Y-17940721D01*
X41355925Y-17884409D01*
X41305617Y-17835922D01*
X41289510Y-17767935D01*
X41312716Y-17702031D01*
X41367869Y-17659136D01*
X41413336Y-17650500D01*
X57075500Y-17650500D01*
X57142539Y-17670185D01*
X57188294Y-17722989D01*
X57199500Y-17774500D01*
X57199500Y-21537405D01*
X57179815Y-21604444D01*
X57127011Y-21650199D01*
X57057853Y-21660143D01*
X57034546Y-21654447D01*
X56918057Y-21613686D01*
X56750003Y-21594751D01*
X56749997Y-21594751D01*
X56581943Y-21613685D01*
X56422305Y-21669545D01*
X56422302Y-21669547D01*
X56279115Y-21759518D01*
X56279109Y-21759523D01*
X56159523Y-21879109D01*
X56159518Y-21879115D01*
X56069547Y-22022302D01*
X56069545Y-22022305D01*
X56013685Y-22181943D01*
X55994751Y-22349997D01*
X55994751Y-22350002D01*
X56013685Y-22518056D01*
X56069545Y-22677694D01*
X56069547Y-22677697D01*
X56159518Y-22820884D01*
X56159523Y-22820890D01*
X56279109Y-22940476D01*
X56279115Y-22940481D01*
X56422302Y-23030452D01*
X56422305Y-23030454D01*
X56422309Y-23030455D01*
X56422310Y-23030456D01*
X56465455Y-23045553D01*
X56581943Y-23086314D01*
X56749997Y-23105249D01*
X56750000Y-23105249D01*
X56750003Y-23105249D01*
X56918059Y-23086313D01*
X56918060Y-23086313D01*
X57034545Y-23045553D01*
X57104324Y-23041991D01*
X57164951Y-23076719D01*
X57197179Y-23138712D01*
X57199500Y-23162594D01*
X57199500Y-29425500D01*
X57179815Y-29492539D01*
X57127011Y-29538294D01*
X57075500Y-29549500D01*
X54039562Y-29549500D01*
X53960438Y-29549500D01*
X53922224Y-29559739D01*
X53884009Y-29569979D01*
X53884004Y-29569982D01*
X53815495Y-29609535D01*
X53815487Y-29609541D01*
X53759541Y-29665487D01*
X53759535Y-29665495D01*
X53719982Y-29734004D01*
X53719979Y-29734009D01*
X53699500Y-29810439D01*
X53699500Y-35751928D01*
X53679815Y-35818967D01*
X53627011Y-35864722D01*
X53557853Y-35874666D01*
X53534546Y-35868970D01*
X53379257Y-35814632D01*
X53379249Y-35814630D01*
X53200004Y-35794435D01*
X53199996Y-35794435D01*
X53020750Y-35814630D01*
X53020745Y-35814631D01*
X52850476Y-35874211D01*
X52697737Y-35970184D01*
X52570184Y-36097737D01*
X52504994Y-36201487D01*
X52452659Y-36247778D01*
X52383605Y-36258426D01*
X52319757Y-36230051D01*
X52295006Y-36201487D01*
X52229815Y-36097737D01*
X52102262Y-35970184D01*
X51949523Y-35874211D01*
X51779254Y-35814631D01*
X51779249Y-35814630D01*
X51600004Y-35794435D01*
X51599996Y-35794435D01*
X51420750Y-35814630D01*
X51420745Y-35814631D01*
X51250476Y-35874211D01*
X51097737Y-35970184D01*
X50970184Y-36097737D01*
X50904994Y-36201487D01*
X50852659Y-36247778D01*
X50783605Y-36258426D01*
X50719757Y-36230051D01*
X50695006Y-36201487D01*
X50629815Y-36097737D01*
X50502262Y-35970184D01*
X50349523Y-35874211D01*
X50179254Y-35814631D01*
X50179249Y-35814630D01*
X50000004Y-35794435D01*
X49999996Y-35794435D01*
X49820750Y-35814630D01*
X49820745Y-35814631D01*
X49650476Y-35874211D01*
X49497737Y-35970184D01*
X49370184Y-36097737D01*
X49304994Y-36201487D01*
X49252659Y-36247778D01*
X49183605Y-36258426D01*
X49119757Y-36230051D01*
X49095006Y-36201487D01*
X49029815Y-36097737D01*
X48902262Y-35970184D01*
X48749523Y-35874211D01*
X48579254Y-35814631D01*
X48579249Y-35814630D01*
X48400004Y-35794435D01*
X48399996Y-35794435D01*
X48220750Y-35814630D01*
X48220745Y-35814631D01*
X48050476Y-35874211D01*
X47897737Y-35970184D01*
X47770184Y-36097737D01*
X47704994Y-36201487D01*
X47652659Y-36247778D01*
X47583605Y-36258426D01*
X47519757Y-36230051D01*
X47495006Y-36201487D01*
X47429815Y-36097737D01*
X47302262Y-35970184D01*
X47149523Y-35874211D01*
X46979254Y-35814631D01*
X46979249Y-35814630D01*
X46800004Y-35794435D01*
X46799996Y-35794435D01*
X46620750Y-35814630D01*
X46620742Y-35814632D01*
X46465454Y-35868970D01*
X46395676Y-35872531D01*
X46335048Y-35837802D01*
X46302821Y-35775809D01*
X46300500Y-35751928D01*
X46300500Y-29810439D01*
X46280020Y-29734009D01*
X46280017Y-29734004D01*
X46240464Y-29665495D01*
X46240458Y-29665487D01*
X46184512Y-29609541D01*
X46184504Y-29609535D01*
X46115995Y-29569982D01*
X46115990Y-29569979D01*
X46090513Y-29563152D01*
X46039562Y-29549500D01*
X46039560Y-29549500D01*
X35424500Y-29549500D01*
X35357461Y-29529815D01*
X35311706Y-29477011D01*
X35300500Y-29425500D01*
X35300500Y-28449860D01*
X35320185Y-28382821D01*
X35372989Y-28337066D01*
X35442147Y-28327122D01*
X35481913Y-28339952D01*
X35507738Y-28353442D01*
X35703271Y-28409390D01*
X35703274Y-28409391D01*
X35822599Y-28419999D01*
X35822602Y-28420000D01*
X35930600Y-28420000D01*
X35930600Y-27770000D01*
X36430600Y-27770000D01*
X36430600Y-28420000D01*
X36538598Y-28420000D01*
X36538600Y-28419999D01*
X36657925Y-28409391D01*
X36657928Y-28409390D01*
X36853461Y-28353442D01*
X37033729Y-28259278D01*
X37191353Y-28130753D01*
X37319878Y-27973129D01*
X37414042Y-27792862D01*
X37449197Y-27670000D01*
X36725575Y-27670000D01*
X36760670Y-27634905D01*
X36806748Y-27555095D01*
X36830600Y-27466078D01*
X36830600Y-27373922D01*
X36806748Y-27284905D01*
X36760670Y-27205095D01*
X36725575Y-27170000D01*
X37449197Y-27170000D01*
X38842003Y-27170000D01*
X39615625Y-27170000D01*
X39580530Y-27205095D01*
X39534452Y-27284905D01*
X39510600Y-27373922D01*
X39510600Y-27466078D01*
X39534452Y-27555095D01*
X39580530Y-27634905D01*
X39615625Y-27670000D01*
X38842003Y-27670000D01*
X38877157Y-27792862D01*
X38971321Y-27973129D01*
X39099846Y-28130753D01*
X39257470Y-28259278D01*
X39437738Y-28353442D01*
X39633271Y-28409390D01*
X39633274Y-28409391D01*
X39752599Y-28419999D01*
X39752602Y-28420000D01*
X40110600Y-28420000D01*
X40110600Y-27770000D01*
X40610600Y-27770000D01*
X40610600Y-28420000D01*
X40968598Y-28420000D01*
X40968600Y-28419999D01*
X41087925Y-28409391D01*
X41087928Y-28409390D01*
X41283461Y-28353442D01*
X41463729Y-28259278D01*
X41621353Y-28130753D01*
X41749878Y-27973129D01*
X41844042Y-27792862D01*
X41879197Y-27670000D01*
X41105575Y-27670000D01*
X41140670Y-27634905D01*
X41186748Y-27555095D01*
X41210600Y-27466078D01*
X41210600Y-27373922D01*
X41186748Y-27284905D01*
X41140670Y-27205095D01*
X41105575Y-27170000D01*
X41879197Y-27170000D01*
X41844042Y-27047137D01*
X41749878Y-26866870D01*
X41621353Y-26709246D01*
X41463729Y-26580721D01*
X41283461Y-26486557D01*
X41087928Y-26430609D01*
X41087925Y-26430608D01*
X40968600Y-26420000D01*
X40610600Y-26420000D01*
X40610600Y-27070000D01*
X40110600Y-27070000D01*
X40110600Y-26504392D01*
X40130285Y-26437353D01*
X40148659Y-26417393D01*
X40147518Y-26416252D01*
X40185478Y-26378292D01*
X40251105Y-26312665D01*
X40320288Y-26192836D01*
X40356100Y-26059183D01*
X40356100Y-25920817D01*
X40320288Y-25787164D01*
X40251105Y-25667335D01*
X40153265Y-25569495D01*
X40153264Y-25569494D01*
X40153261Y-25569492D01*
X40033438Y-25500313D01*
X40033437Y-25500312D01*
X40033436Y-25500312D01*
X39899783Y-25464500D01*
X39761417Y-25464500D01*
X39627764Y-25500312D01*
X39627761Y-25500313D01*
X39507938Y-25569492D01*
X39507933Y-25569496D01*
X39410096Y-25667333D01*
X39410092Y-25667338D01*
X39340913Y-25787161D01*
X39340912Y-25787164D01*
X39305100Y-25920817D01*
X39305100Y-26059182D01*
X39340912Y-26192835D01*
X39340913Y-26192838D01*
X39410092Y-26312661D01*
X39410096Y-26312666D01*
X39414399Y-26316969D01*
X39447884Y-26378292D01*
X39442900Y-26447984D01*
X39401028Y-26503917D01*
X39384130Y-26514558D01*
X39257472Y-26580719D01*
X39099846Y-26709246D01*
X38971321Y-26866870D01*
X38877157Y-27047137D01*
X38842003Y-27170000D01*
X37449197Y-27170000D01*
X37414042Y-27047137D01*
X37319878Y-26866870D01*
X37191353Y-26709246D01*
X37033729Y-26580721D01*
X36853461Y-26486557D01*
X36657928Y-26430609D01*
X36657925Y-26430608D01*
X36538600Y-26420000D01*
X36430600Y-26420000D01*
X36430600Y-27070000D01*
X35930600Y-27070000D01*
X35930600Y-26420000D01*
X35822599Y-26420000D01*
X35703274Y-26430608D01*
X35703271Y-26430609D01*
X35507735Y-26486558D01*
X35481910Y-26500048D01*
X35413375Y-26513639D01*
X35348372Y-26488019D01*
X35307539Y-26431323D01*
X35300500Y-26390139D01*
X35300500Y-25321465D01*
X54419200Y-25321465D01*
X54419200Y-25458534D01*
X54445937Y-25592949D01*
X54445940Y-25592961D01*
X54498386Y-25719578D01*
X54498393Y-25719591D01*
X54574536Y-25833546D01*
X54574539Y-25833550D01*
X54671449Y-25930460D01*
X54671453Y-25930463D01*
X54785408Y-26006606D01*
X54785421Y-26006613D01*
X54912038Y-26059059D01*
X54912043Y-26059061D01*
X55046465Y-26085799D01*
X55046469Y-26085800D01*
X55046470Y-26085800D01*
X55183531Y-26085800D01*
X55183532Y-26085799D01*
X55317957Y-26059061D01*
X55444585Y-26006610D01*
X55558547Y-25930463D01*
X55655463Y-25833547D01*
X55731610Y-25719585D01*
X55784061Y-25592957D01*
X55810800Y-25458530D01*
X55810800Y-25321470D01*
X55784061Y-25187043D01*
X55784059Y-25187038D01*
X55731613Y-25060421D01*
X55731606Y-25060408D01*
X55655463Y-24946453D01*
X55655460Y-24946449D01*
X55558550Y-24849539D01*
X55558546Y-24849536D01*
X55444591Y-24773393D01*
X55444578Y-24773386D01*
X55317961Y-24720940D01*
X55317949Y-24720937D01*
X55183534Y-24694200D01*
X55183530Y-24694200D01*
X55046470Y-24694200D01*
X55046465Y-24694200D01*
X54912050Y-24720937D01*
X54912038Y-24720940D01*
X54785421Y-24773386D01*
X54785408Y-24773393D01*
X54671453Y-24849536D01*
X54671449Y-24849539D01*
X54574539Y-24946449D01*
X54574536Y-24946453D01*
X54498393Y-25060408D01*
X54498386Y-25060421D01*
X54445940Y-25187038D01*
X54445937Y-25187050D01*
X54419200Y-25321465D01*
X35300500Y-25321465D01*
X35300500Y-22349997D01*
X51244751Y-22349997D01*
X51244751Y-22350002D01*
X51263685Y-22518056D01*
X51319545Y-22677694D01*
X51319547Y-22677697D01*
X51409518Y-22820884D01*
X51409523Y-22820890D01*
X51529109Y-22940476D01*
X51529115Y-22940481D01*
X51672302Y-23030452D01*
X51672305Y-23030454D01*
X51672309Y-23030455D01*
X51672310Y-23030456D01*
X51715455Y-23045553D01*
X51831943Y-23086314D01*
X51999997Y-23105249D01*
X52000000Y-23105249D01*
X52000003Y-23105249D01*
X52168056Y-23086314D01*
X52195477Y-23076719D01*
X52327690Y-23030456D01*
X52327692Y-23030454D01*
X52327694Y-23030454D01*
X52327697Y-23030452D01*
X52470884Y-22940481D01*
X52470885Y-22940480D01*
X52470890Y-22940477D01*
X52590477Y-22820890D01*
X52680452Y-22677697D01*
X52680454Y-22677694D01*
X52680454Y-22677692D01*
X52680456Y-22677690D01*
X52736313Y-22518059D01*
X52736313Y-22518058D01*
X52736314Y-22518056D01*
X52755249Y-22350002D01*
X52755249Y-22349997D01*
X52736314Y-22181943D01*
X52680454Y-22022305D01*
X52680452Y-22022302D01*
X52590481Y-21879115D01*
X52590476Y-21879109D01*
X52470890Y-21759523D01*
X52470884Y-21759518D01*
X52327697Y-21669547D01*
X52327694Y-21669545D01*
X52168056Y-21613685D01*
X52000003Y-21594751D01*
X51999997Y-21594751D01*
X51831943Y-21613685D01*
X51672305Y-21669545D01*
X51672302Y-21669547D01*
X51529115Y-21759518D01*
X51529109Y-21759523D01*
X51409523Y-21879109D01*
X51409518Y-21879115D01*
X51319547Y-22022302D01*
X51319545Y-22022305D01*
X51263685Y-22181943D01*
X51244751Y-22349997D01*
X35300500Y-22349997D01*
X35300500Y-19809860D01*
X35320185Y-19742821D01*
X35372989Y-19697066D01*
X35442147Y-19687122D01*
X35481913Y-19699952D01*
X35507738Y-19713442D01*
X35703271Y-19769390D01*
X35703274Y-19769391D01*
X35822599Y-19779999D01*
X35822602Y-19780000D01*
X35930600Y-19780000D01*
X35930600Y-19130000D01*
X36430600Y-19130000D01*
X36430600Y-19780000D01*
X36538598Y-19780000D01*
X36538600Y-19779999D01*
X36657925Y-19769391D01*
X36657928Y-19769390D01*
X36853461Y-19713442D01*
X37033729Y-19619278D01*
X37191353Y-19490753D01*
X37319878Y-19333129D01*
X37414042Y-19152862D01*
X37449197Y-19030000D01*
X36725575Y-19030000D01*
X36760670Y-18994905D01*
X36806748Y-18915095D01*
X36830600Y-18826078D01*
X36830600Y-18733922D01*
X36806748Y-18644905D01*
X36760670Y-18565095D01*
X36725575Y-18530000D01*
X37449197Y-18530000D01*
X37414042Y-18407137D01*
X37319878Y-18226870D01*
X37191353Y-18069246D01*
X37033729Y-17940721D01*
X36925925Y-17884409D01*
X36875617Y-17835922D01*
X36859510Y-17767935D01*
X36882716Y-17702031D01*
X36937869Y-17659136D01*
X36983336Y-17650500D01*
X39307864Y-17650500D01*
X39374903Y-17670185D01*
G37*
G04 #@! TD.AperFunction*
M02*
