G04 #@! TF.GenerationSoftware,KiCad,Pcbnew,8.0.5-8.0.5-0~ubuntu20.04.1*
G04 #@! TF.CreationDate,2025-01-20T10:50:09+00:00*
G04 #@! TF.ProjectId,servo,73657276-6f2e-46b6-9963-61645f706362,rev?*
G04 #@! TF.SameCoordinates,Original*
G04 #@! TF.FileFunction,Profile,NP*
%FSLAX46Y46*%
G04 Gerber Fmt 4.6, Leading zero omitted, Abs format (unit mm)*
G04 Created by KiCad (PCBNEW 8.0.5-8.0.5-0~ubuntu20.04.1) date 2025-01-20 10:50:09*
%MOMM*%
%LPD*%
G01*
G04 APERTURE LIST*
G04 #@! TA.AperFunction,Profile*
%ADD10C,0.050000*%
G04 #@! TD*
G04 APERTURE END LIST*
D10*
X35000000Y-29850000D02*
X46000000Y-29850000D01*
X46000000Y-63250000D02*
X46000000Y-58610000D01*
X47300000Y-36600000D02*
G75*
G02*
X46300000Y-36600000I-500000J0D01*
G01*
X46300000Y-36600000D02*
G75*
G02*
X47300000Y-36600000I500000J0D01*
G01*
X46000000Y-29850000D02*
X46000000Y-37000000D01*
X52100000Y-36600000D02*
G75*
G02*
X51100000Y-36600000I-500000J0D01*
G01*
X51100000Y-36600000D02*
G75*
G02*
X52100000Y-36600000I500000J0D01*
G01*
X50500000Y-36600000D02*
G75*
G02*
X49500000Y-36600000I-500000J0D01*
G01*
X49500000Y-36600000D02*
G75*
G02*
X50500000Y-36600000I500000J0D01*
G01*
X54000000Y-29850000D02*
X57500000Y-29850000D01*
X53700000Y-36600000D02*
G75*
G02*
X52700000Y-36600000I-500000J0D01*
G01*
X52700000Y-36600000D02*
G75*
G02*
X53700000Y-36600000I500000J0D01*
G01*
X48900000Y-36600000D02*
G75*
G02*
X47900000Y-36600000I-500000J0D01*
G01*
X47900000Y-36600000D02*
G75*
G02*
X48900000Y-36600000I500000J0D01*
G01*
X35000000Y-17350000D02*
X35000000Y-29850000D01*
X54000000Y-63250000D02*
X46000000Y-63250000D01*
X46000000Y-58609999D02*
G75*
G02*
X46000000Y-41390001I4000000J8609999D01*
G01*
X54000000Y-37000000D02*
X54000000Y-29850000D01*
X57500000Y-17350000D02*
X35000000Y-17350000D01*
X46000000Y-41390000D02*
X46000000Y-37000000D01*
X54000000Y-63250000D02*
X54000000Y-58610000D01*
X54000000Y-41390000D02*
X54000000Y-37000000D01*
X57500000Y-29850000D02*
X57500000Y-17350000D01*
X54000000Y-41390001D02*
G75*
G02*
X54000000Y-58609999I-4000000J-8609999D01*
G01*
M02*
