G04 #@! TF.GenerationSoftware,KiCad,Pcbnew,8.0.5-8.0.5-0~ubuntu20.04.1*
G04 #@! TF.CreationDate,2025-01-20T10:50:09+00:00*
G04 #@! TF.ProjectId,servo,73657276-6f2e-46b6-9963-61645f706362,rev?*
G04 #@! TF.SameCoordinates,Original*
G04 #@! TF.FileFunction,Paste,Top*
G04 #@! TF.FilePolarity,Positive*
%FSLAX46Y46*%
G04 Gerber Fmt 4.6, Leading zero omitted, Abs format (unit mm)*
G04 Created by KiCad (PCBNEW 8.0.5-8.0.5-0~ubuntu20.04.1) date 2025-01-20 10:50:09*
%MOMM*%
%LPD*%
G01*
G04 APERTURE LIST*
%ADD10C,0.000000*%
%ADD11R,0.350000X0.800000*%
%ADD12R,0.600000X2.600000*%
%ADD13R,0.500000X0.375000*%
%ADD14R,0.650000X0.300000*%
%ADD15R,0.280000X0.530000*%
%ADD16R,0.900000X1.000000*%
%ADD17R,0.800000X0.200000*%
%ADD18R,0.200000X0.800000*%
%ADD19R,1.800000X1.800000*%
%ADD20R,1.450000X0.300000*%
%ADD21R,1.450000X0.600000*%
%ADD22R,1.450000X0.550000*%
G04 APERTURE END LIST*
D10*
G36*
X36632909Y-18199006D02*
G01*
X36779688Y-18259092D01*
X36905915Y-18355119D01*
X37003193Y-18480811D01*
X37085691Y-18783666D01*
X37064289Y-18941178D01*
X37002987Y-19087455D01*
X36905915Y-19212881D01*
X36779688Y-19308908D01*
X36632909Y-19368994D01*
X36475917Y-19389000D01*
X35875262Y-19389000D01*
X35719715Y-19367860D01*
X35574645Y-19307057D01*
X35450255Y-19210780D01*
X35355022Y-19085588D01*
X35295435Y-18940015D01*
X35275560Y-18784000D01*
X35295435Y-18627985D01*
X35355022Y-18482412D01*
X35450255Y-18357220D01*
X35574911Y-18260737D01*
X35874931Y-18179000D01*
X36475917Y-18179000D01*
X36632909Y-18199006D01*
G37*
G36*
X36632909Y-26835006D02*
G01*
X36779688Y-26895092D01*
X36905915Y-26991119D01*
X37003193Y-27116811D01*
X37085691Y-27419666D01*
X37064289Y-27577178D01*
X37002987Y-27723455D01*
X36905915Y-27848881D01*
X36779688Y-27944908D01*
X36632909Y-28004994D01*
X36475917Y-28025000D01*
X35875262Y-28025000D01*
X35719715Y-28003860D01*
X35574645Y-27943057D01*
X35450255Y-27846780D01*
X35355022Y-27721588D01*
X35295435Y-27576015D01*
X35275560Y-27420000D01*
X35295435Y-27263985D01*
X35355022Y-27118412D01*
X35450255Y-26993220D01*
X35574911Y-26896737D01*
X35874931Y-26815000D01*
X36475917Y-26815000D01*
X36632909Y-26835006D01*
G37*
G36*
X41105795Y-18200684D02*
G01*
X41244026Y-18264354D01*
X41361066Y-18361632D01*
X41449137Y-18486161D01*
X41515652Y-18779669D01*
X41501664Y-18931350D01*
X41448942Y-19074114D01*
X41361066Y-19198368D01*
X41244026Y-19295646D01*
X41105795Y-19359316D01*
X40956026Y-19385000D01*
X39755152Y-19385000D01*
X39606826Y-19358178D01*
X39470306Y-19293791D01*
X39355103Y-19196264D01*
X39269067Y-19072243D01*
X39218062Y-18930181D01*
X39205583Y-18780000D01*
X39218062Y-18629819D01*
X39269067Y-18487757D01*
X39355103Y-18363736D01*
X39470562Y-18265991D01*
X39754819Y-18175000D01*
X40956026Y-18175000D01*
X41105795Y-18200684D01*
G37*
G36*
X41105795Y-26840684D02*
G01*
X41244026Y-26904354D01*
X41361066Y-27001632D01*
X41449137Y-27126161D01*
X41515652Y-27419669D01*
X41501664Y-27571350D01*
X41448942Y-27714114D01*
X41361066Y-27838368D01*
X41244026Y-27935646D01*
X41105795Y-27999316D01*
X40956026Y-28025000D01*
X39755152Y-28025000D01*
X39606826Y-27998178D01*
X39470306Y-27933791D01*
X39355103Y-27836264D01*
X39269067Y-27712243D01*
X39218062Y-27570181D01*
X39205583Y-27420000D01*
X39218062Y-27269819D01*
X39269067Y-27127757D01*
X39355103Y-27003736D01*
X39470562Y-26905991D01*
X39754819Y-26815000D01*
X40956026Y-26815000D01*
X41105795Y-26840684D01*
G37*
D11*
X47750000Y-41562500D03*
X48250000Y-41562500D03*
X48750000Y-41562500D03*
X49250000Y-41562500D03*
X49750000Y-41562500D03*
X50250000Y-41562500D03*
X50750000Y-41562500D03*
X51250000Y-41562500D03*
X51750000Y-41562500D03*
X52250000Y-41562500D03*
D12*
X53130000Y-39162500D03*
X46880000Y-39162500D03*
G36*
G01*
X50957500Y-53665000D02*
X51442500Y-53665000D01*
G75*
G02*
X51685000Y-53907500I0J-242500D01*
G01*
X51685000Y-54392500D01*
G75*
G02*
X51442500Y-54635000I-242500J0D01*
G01*
X50957500Y-54635000D01*
G75*
G02*
X50715000Y-54392500I0J242500D01*
G01*
X50715000Y-53907500D01*
G75*
G02*
X50957500Y-53665000I242500J0D01*
G01*
G37*
G36*
G01*
X49757500Y-53665000D02*
X50242500Y-53665000D01*
G75*
G02*
X50485000Y-53907500I0J-242500D01*
G01*
X50485000Y-54392500D01*
G75*
G02*
X50242500Y-54635000I-242500J0D01*
G01*
X49757500Y-54635000D01*
G75*
G02*
X49515000Y-54392500I0J242500D01*
G01*
X49515000Y-53907500D01*
G75*
G02*
X49757500Y-53665000I242500J0D01*
G01*
G37*
G36*
G01*
X48557500Y-53665000D02*
X49042500Y-53665000D01*
G75*
G02*
X49285000Y-53907500I0J-242500D01*
G01*
X49285000Y-54392500D01*
G75*
G02*
X49042500Y-54635000I-242500J0D01*
G01*
X48557500Y-54635000D01*
G75*
G02*
X48315000Y-54392500I0J242500D01*
G01*
X48315000Y-53907500D01*
G75*
G02*
X48557500Y-53665000I242500J0D01*
G01*
G37*
G36*
G01*
X50957500Y-54865000D02*
X51442500Y-54865000D01*
G75*
G02*
X51685000Y-55107500I0J-242500D01*
G01*
X51685000Y-55592500D01*
G75*
G02*
X51442500Y-55835000I-242500J0D01*
G01*
X50957500Y-55835000D01*
G75*
G02*
X50715000Y-55592500I0J242500D01*
G01*
X50715000Y-55107500D01*
G75*
G02*
X50957500Y-54865000I242500J0D01*
G01*
G37*
G36*
G01*
X49757500Y-54865000D02*
X50242500Y-54865000D01*
G75*
G02*
X50485000Y-55107500I0J-242500D01*
G01*
X50485000Y-55592500D01*
G75*
G02*
X50242500Y-55835000I-242500J0D01*
G01*
X49757500Y-55835000D01*
G75*
G02*
X49515000Y-55592500I0J242500D01*
G01*
X49515000Y-55107500D01*
G75*
G02*
X49757500Y-54865000I242500J0D01*
G01*
G37*
G36*
G01*
X48557500Y-54865000D02*
X49042500Y-54865000D01*
G75*
G02*
X49285000Y-55107500I0J-242500D01*
G01*
X49285000Y-55592500D01*
G75*
G02*
X49042500Y-55835000I-242500J0D01*
G01*
X48557500Y-55835000D01*
G75*
G02*
X48315000Y-55592500I0J242500D01*
G01*
X48315000Y-55107500D01*
G75*
G02*
X48557500Y-54865000I242500J0D01*
G01*
G37*
G36*
G01*
X50957500Y-56065000D02*
X51442500Y-56065000D01*
G75*
G02*
X51685000Y-56307500I0J-242500D01*
G01*
X51685000Y-56792500D01*
G75*
G02*
X51442500Y-57035000I-242500J0D01*
G01*
X50957500Y-57035000D01*
G75*
G02*
X50715000Y-56792500I0J242500D01*
G01*
X50715000Y-56307500D01*
G75*
G02*
X50957500Y-56065000I242500J0D01*
G01*
G37*
G36*
G01*
X49757500Y-56065000D02*
X50242500Y-56065000D01*
G75*
G02*
X50485000Y-56307500I0J-242500D01*
G01*
X50485000Y-56792500D01*
G75*
G02*
X50242500Y-57035000I-242500J0D01*
G01*
X49757500Y-57035000D01*
G75*
G02*
X49515000Y-56792500I0J242500D01*
G01*
X49515000Y-56307500D01*
G75*
G02*
X49757500Y-56065000I242500J0D01*
G01*
G37*
G36*
G01*
X48557500Y-56065000D02*
X49042500Y-56065000D01*
G75*
G02*
X49285000Y-56307500I0J-242500D01*
G01*
X49285000Y-56792500D01*
G75*
G02*
X49042500Y-57035000I-242500J0D01*
G01*
X48557500Y-57035000D01*
G75*
G02*
X48315000Y-56792500I0J242500D01*
G01*
X48315000Y-56307500D01*
G75*
G02*
X48557500Y-56065000I242500J0D01*
G01*
G37*
G36*
G01*
X51687500Y-52500000D02*
X51812500Y-52500000D01*
G75*
G02*
X51875000Y-52562500I0J-62500D01*
G01*
X51875000Y-53237500D01*
G75*
G02*
X51812500Y-53300000I-62500J0D01*
G01*
X51687500Y-53300000D01*
G75*
G02*
X51625000Y-53237500I0J62500D01*
G01*
X51625000Y-52562500D01*
G75*
G02*
X51687500Y-52500000I62500J0D01*
G01*
G37*
G36*
G01*
X51187500Y-52500000D02*
X51312500Y-52500000D01*
G75*
G02*
X51375000Y-52562500I0J-62500D01*
G01*
X51375000Y-53237500D01*
G75*
G02*
X51312500Y-53300000I-62500J0D01*
G01*
X51187500Y-53300000D01*
G75*
G02*
X51125000Y-53237500I0J62500D01*
G01*
X51125000Y-52562500D01*
G75*
G02*
X51187500Y-52500000I62500J0D01*
G01*
G37*
G36*
G01*
X50687500Y-52500000D02*
X50812500Y-52500000D01*
G75*
G02*
X50875000Y-52562500I0J-62500D01*
G01*
X50875000Y-53237500D01*
G75*
G02*
X50812500Y-53300000I-62500J0D01*
G01*
X50687500Y-53300000D01*
G75*
G02*
X50625000Y-53237500I0J62500D01*
G01*
X50625000Y-52562500D01*
G75*
G02*
X50687500Y-52500000I62500J0D01*
G01*
G37*
G36*
G01*
X50187500Y-52500000D02*
X50312500Y-52500000D01*
G75*
G02*
X50375000Y-52562500I0J-62500D01*
G01*
X50375000Y-53237500D01*
G75*
G02*
X50312500Y-53300000I-62500J0D01*
G01*
X50187500Y-53300000D01*
G75*
G02*
X50125000Y-53237500I0J62500D01*
G01*
X50125000Y-52562500D01*
G75*
G02*
X50187500Y-52500000I62500J0D01*
G01*
G37*
G36*
G01*
X49687500Y-52500000D02*
X49812500Y-52500000D01*
G75*
G02*
X49875000Y-52562500I0J-62500D01*
G01*
X49875000Y-53237500D01*
G75*
G02*
X49812500Y-53300000I-62500J0D01*
G01*
X49687500Y-53300000D01*
G75*
G02*
X49625000Y-53237500I0J62500D01*
G01*
X49625000Y-52562500D01*
G75*
G02*
X49687500Y-52500000I62500J0D01*
G01*
G37*
G36*
G01*
X49187500Y-52500000D02*
X49312500Y-52500000D01*
G75*
G02*
X49375000Y-52562500I0J-62500D01*
G01*
X49375000Y-53237500D01*
G75*
G02*
X49312500Y-53300000I-62500J0D01*
G01*
X49187500Y-53300000D01*
G75*
G02*
X49125000Y-53237500I0J62500D01*
G01*
X49125000Y-52562500D01*
G75*
G02*
X49187500Y-52500000I62500J0D01*
G01*
G37*
G36*
G01*
X48687500Y-52500000D02*
X48812500Y-52500000D01*
G75*
G02*
X48875000Y-52562500I0J-62500D01*
G01*
X48875000Y-53237500D01*
G75*
G02*
X48812500Y-53300000I-62500J0D01*
G01*
X48687500Y-53300000D01*
G75*
G02*
X48625000Y-53237500I0J62500D01*
G01*
X48625000Y-52562500D01*
G75*
G02*
X48687500Y-52500000I62500J0D01*
G01*
G37*
G36*
G01*
X48187500Y-52500000D02*
X48312500Y-52500000D01*
G75*
G02*
X48375000Y-52562500I0J-62500D01*
G01*
X48375000Y-53237500D01*
G75*
G02*
X48312500Y-53300000I-62500J0D01*
G01*
X48187500Y-53300000D01*
G75*
G02*
X48125000Y-53237500I0J62500D01*
G01*
X48125000Y-52562500D01*
G75*
G02*
X48187500Y-52500000I62500J0D01*
G01*
G37*
G36*
G01*
X47212500Y-53475000D02*
X47887500Y-53475000D01*
G75*
G02*
X47950000Y-53537500I0J-62500D01*
G01*
X47950000Y-53662500D01*
G75*
G02*
X47887500Y-53725000I-62500J0D01*
G01*
X47212500Y-53725000D01*
G75*
G02*
X47150000Y-53662500I0J62500D01*
G01*
X47150000Y-53537500D01*
G75*
G02*
X47212500Y-53475000I62500J0D01*
G01*
G37*
G36*
G01*
X47212500Y-53975000D02*
X47887500Y-53975000D01*
G75*
G02*
X47950000Y-54037500I0J-62500D01*
G01*
X47950000Y-54162500D01*
G75*
G02*
X47887500Y-54225000I-62500J0D01*
G01*
X47212500Y-54225000D01*
G75*
G02*
X47150000Y-54162500I0J62500D01*
G01*
X47150000Y-54037500D01*
G75*
G02*
X47212500Y-53975000I62500J0D01*
G01*
G37*
G36*
G01*
X47212500Y-54475000D02*
X47887500Y-54475000D01*
G75*
G02*
X47950000Y-54537500I0J-62500D01*
G01*
X47950000Y-54662500D01*
G75*
G02*
X47887500Y-54725000I-62500J0D01*
G01*
X47212500Y-54725000D01*
G75*
G02*
X47150000Y-54662500I0J62500D01*
G01*
X47150000Y-54537500D01*
G75*
G02*
X47212500Y-54475000I62500J0D01*
G01*
G37*
G36*
G01*
X47212500Y-54975000D02*
X47887500Y-54975000D01*
G75*
G02*
X47950000Y-55037500I0J-62500D01*
G01*
X47950000Y-55162500D01*
G75*
G02*
X47887500Y-55225000I-62500J0D01*
G01*
X47212500Y-55225000D01*
G75*
G02*
X47150000Y-55162500I0J62500D01*
G01*
X47150000Y-55037500D01*
G75*
G02*
X47212500Y-54975000I62500J0D01*
G01*
G37*
G36*
G01*
X47212500Y-55475000D02*
X47887500Y-55475000D01*
G75*
G02*
X47950000Y-55537500I0J-62500D01*
G01*
X47950000Y-55662500D01*
G75*
G02*
X47887500Y-55725000I-62500J0D01*
G01*
X47212500Y-55725000D01*
G75*
G02*
X47150000Y-55662500I0J62500D01*
G01*
X47150000Y-55537500D01*
G75*
G02*
X47212500Y-55475000I62500J0D01*
G01*
G37*
G36*
G01*
X47212500Y-55975000D02*
X47887500Y-55975000D01*
G75*
G02*
X47950000Y-56037500I0J-62500D01*
G01*
X47950000Y-56162500D01*
G75*
G02*
X47887500Y-56225000I-62500J0D01*
G01*
X47212500Y-56225000D01*
G75*
G02*
X47150000Y-56162500I0J62500D01*
G01*
X47150000Y-56037500D01*
G75*
G02*
X47212500Y-55975000I62500J0D01*
G01*
G37*
G36*
G01*
X47212500Y-56475000D02*
X47887500Y-56475000D01*
G75*
G02*
X47950000Y-56537500I0J-62500D01*
G01*
X47950000Y-56662500D01*
G75*
G02*
X47887500Y-56725000I-62500J0D01*
G01*
X47212500Y-56725000D01*
G75*
G02*
X47150000Y-56662500I0J62500D01*
G01*
X47150000Y-56537500D01*
G75*
G02*
X47212500Y-56475000I62500J0D01*
G01*
G37*
G36*
G01*
X47212500Y-56975000D02*
X47887500Y-56975000D01*
G75*
G02*
X47950000Y-57037500I0J-62500D01*
G01*
X47950000Y-57162500D01*
G75*
G02*
X47887500Y-57225000I-62500J0D01*
G01*
X47212500Y-57225000D01*
G75*
G02*
X47150000Y-57162500I0J62500D01*
G01*
X47150000Y-57037500D01*
G75*
G02*
X47212500Y-56975000I62500J0D01*
G01*
G37*
G36*
G01*
X48187500Y-57400000D02*
X48312500Y-57400000D01*
G75*
G02*
X48375000Y-57462500I0J-62500D01*
G01*
X48375000Y-58137500D01*
G75*
G02*
X48312500Y-58200000I-62500J0D01*
G01*
X48187500Y-58200000D01*
G75*
G02*
X48125000Y-58137500I0J62500D01*
G01*
X48125000Y-57462500D01*
G75*
G02*
X48187500Y-57400000I62500J0D01*
G01*
G37*
G36*
G01*
X48687500Y-57400000D02*
X48812500Y-57400000D01*
G75*
G02*
X48875000Y-57462500I0J-62500D01*
G01*
X48875000Y-58137500D01*
G75*
G02*
X48812500Y-58200000I-62500J0D01*
G01*
X48687500Y-58200000D01*
G75*
G02*
X48625000Y-58137500I0J62500D01*
G01*
X48625000Y-57462500D01*
G75*
G02*
X48687500Y-57400000I62500J0D01*
G01*
G37*
G36*
G01*
X49187500Y-57400000D02*
X49312500Y-57400000D01*
G75*
G02*
X49375000Y-57462500I0J-62500D01*
G01*
X49375000Y-58137500D01*
G75*
G02*
X49312500Y-58200000I-62500J0D01*
G01*
X49187500Y-58200000D01*
G75*
G02*
X49125000Y-58137500I0J62500D01*
G01*
X49125000Y-57462500D01*
G75*
G02*
X49187500Y-57400000I62500J0D01*
G01*
G37*
G36*
G01*
X49687500Y-57400000D02*
X49812500Y-57400000D01*
G75*
G02*
X49875000Y-57462500I0J-62500D01*
G01*
X49875000Y-58137500D01*
G75*
G02*
X49812500Y-58200000I-62500J0D01*
G01*
X49687500Y-58200000D01*
G75*
G02*
X49625000Y-58137500I0J62500D01*
G01*
X49625000Y-57462500D01*
G75*
G02*
X49687500Y-57400000I62500J0D01*
G01*
G37*
G36*
G01*
X50187500Y-57400000D02*
X50312500Y-57400000D01*
G75*
G02*
X50375000Y-57462500I0J-62500D01*
G01*
X50375000Y-58137500D01*
G75*
G02*
X50312500Y-58200000I-62500J0D01*
G01*
X50187500Y-58200000D01*
G75*
G02*
X50125000Y-58137500I0J62500D01*
G01*
X50125000Y-57462500D01*
G75*
G02*
X50187500Y-57400000I62500J0D01*
G01*
G37*
G36*
G01*
X50687500Y-57400000D02*
X50812500Y-57400000D01*
G75*
G02*
X50875000Y-57462500I0J-62500D01*
G01*
X50875000Y-58137500D01*
G75*
G02*
X50812500Y-58200000I-62500J0D01*
G01*
X50687500Y-58200000D01*
G75*
G02*
X50625000Y-58137500I0J62500D01*
G01*
X50625000Y-57462500D01*
G75*
G02*
X50687500Y-57400000I62500J0D01*
G01*
G37*
G36*
G01*
X51187500Y-57400000D02*
X51312500Y-57400000D01*
G75*
G02*
X51375000Y-57462500I0J-62500D01*
G01*
X51375000Y-58137500D01*
G75*
G02*
X51312500Y-58200000I-62500J0D01*
G01*
X51187500Y-58200000D01*
G75*
G02*
X51125000Y-58137500I0J62500D01*
G01*
X51125000Y-57462500D01*
G75*
G02*
X51187500Y-57400000I62500J0D01*
G01*
G37*
G36*
G01*
X51687500Y-57400000D02*
X51812500Y-57400000D01*
G75*
G02*
X51875000Y-57462500I0J-62500D01*
G01*
X51875000Y-58137500D01*
G75*
G02*
X51812500Y-58200000I-62500J0D01*
G01*
X51687500Y-58200000D01*
G75*
G02*
X51625000Y-58137500I0J62500D01*
G01*
X51625000Y-57462500D01*
G75*
G02*
X51687500Y-57400000I62500J0D01*
G01*
G37*
G36*
G01*
X52112500Y-56975000D02*
X52787500Y-56975000D01*
G75*
G02*
X52850000Y-57037500I0J-62500D01*
G01*
X52850000Y-57162500D01*
G75*
G02*
X52787500Y-57225000I-62500J0D01*
G01*
X52112500Y-57225000D01*
G75*
G02*
X52050000Y-57162500I0J62500D01*
G01*
X52050000Y-57037500D01*
G75*
G02*
X52112500Y-56975000I62500J0D01*
G01*
G37*
G36*
G01*
X52112500Y-56475000D02*
X52787500Y-56475000D01*
G75*
G02*
X52850000Y-56537500I0J-62500D01*
G01*
X52850000Y-56662500D01*
G75*
G02*
X52787500Y-56725000I-62500J0D01*
G01*
X52112500Y-56725000D01*
G75*
G02*
X52050000Y-56662500I0J62500D01*
G01*
X52050000Y-56537500D01*
G75*
G02*
X52112500Y-56475000I62500J0D01*
G01*
G37*
G36*
G01*
X52112500Y-55975000D02*
X52787500Y-55975000D01*
G75*
G02*
X52850000Y-56037500I0J-62500D01*
G01*
X52850000Y-56162500D01*
G75*
G02*
X52787500Y-56225000I-62500J0D01*
G01*
X52112500Y-56225000D01*
G75*
G02*
X52050000Y-56162500I0J62500D01*
G01*
X52050000Y-56037500D01*
G75*
G02*
X52112500Y-55975000I62500J0D01*
G01*
G37*
G36*
G01*
X52112500Y-55475000D02*
X52787500Y-55475000D01*
G75*
G02*
X52850000Y-55537500I0J-62500D01*
G01*
X52850000Y-55662500D01*
G75*
G02*
X52787500Y-55725000I-62500J0D01*
G01*
X52112500Y-55725000D01*
G75*
G02*
X52050000Y-55662500I0J62500D01*
G01*
X52050000Y-55537500D01*
G75*
G02*
X52112500Y-55475000I62500J0D01*
G01*
G37*
G36*
G01*
X52112500Y-54975000D02*
X52787500Y-54975000D01*
G75*
G02*
X52850000Y-55037500I0J-62500D01*
G01*
X52850000Y-55162500D01*
G75*
G02*
X52787500Y-55225000I-62500J0D01*
G01*
X52112500Y-55225000D01*
G75*
G02*
X52050000Y-55162500I0J62500D01*
G01*
X52050000Y-55037500D01*
G75*
G02*
X52112500Y-54975000I62500J0D01*
G01*
G37*
G36*
G01*
X52112500Y-54475000D02*
X52787500Y-54475000D01*
G75*
G02*
X52850000Y-54537500I0J-62500D01*
G01*
X52850000Y-54662500D01*
G75*
G02*
X52787500Y-54725000I-62500J0D01*
G01*
X52112500Y-54725000D01*
G75*
G02*
X52050000Y-54662500I0J62500D01*
G01*
X52050000Y-54537500D01*
G75*
G02*
X52112500Y-54475000I62500J0D01*
G01*
G37*
G36*
G01*
X52112500Y-53975000D02*
X52787500Y-53975000D01*
G75*
G02*
X52850000Y-54037500I0J-62500D01*
G01*
X52850000Y-54162500D01*
G75*
G02*
X52787500Y-54225000I-62500J0D01*
G01*
X52112500Y-54225000D01*
G75*
G02*
X52050000Y-54162500I0J62500D01*
G01*
X52050000Y-54037500D01*
G75*
G02*
X52112500Y-53975000I62500J0D01*
G01*
G37*
G36*
G01*
X52112500Y-53475000D02*
X52787500Y-53475000D01*
G75*
G02*
X52850000Y-53537500I0J-62500D01*
G01*
X52850000Y-53662500D01*
G75*
G02*
X52787500Y-53725000I-62500J0D01*
G01*
X52112500Y-53725000D01*
G75*
G02*
X52050000Y-53662500I0J62500D01*
G01*
X52050000Y-53537500D01*
G75*
G02*
X52112500Y-53475000I62500J0D01*
G01*
G37*
D13*
X46350000Y-23637500D03*
D14*
X46425000Y-23100000D03*
D13*
X46350000Y-22562500D03*
X44650000Y-22562500D03*
D14*
X44575000Y-23100000D03*
D13*
X44650000Y-23637500D03*
D15*
X55700000Y-50500000D03*
X56100000Y-50500000D03*
X56500000Y-50500000D03*
X56500000Y-49764000D03*
X56100000Y-49764000D03*
X55700000Y-49764000D03*
G36*
G01*
X55260000Y-56080000D02*
X55260000Y-56420000D01*
G75*
G02*
X55120000Y-56560000I-140000J0D01*
G01*
X54840000Y-56560000D01*
G75*
G02*
X54700000Y-56420000I0J140000D01*
G01*
X54700000Y-56080000D01*
G75*
G02*
X54840000Y-55940000I140000J0D01*
G01*
X55120000Y-55940000D01*
G75*
G02*
X55260000Y-56080000I0J-140000D01*
G01*
G37*
G36*
G01*
X54300000Y-56080000D02*
X54300000Y-56420000D01*
G75*
G02*
X54160000Y-56560000I-140000J0D01*
G01*
X53880000Y-56560000D01*
G75*
G02*
X53740000Y-56420000I0J140000D01*
G01*
X53740000Y-56080000D01*
G75*
G02*
X53880000Y-55940000I140000J0D01*
G01*
X54160000Y-55940000D01*
G75*
G02*
X54300000Y-56080000I0J-140000D01*
G01*
G37*
D16*
X47900000Y-21150000D03*
X52000000Y-21150000D03*
X52000000Y-19550000D03*
X47900000Y-19550000D03*
G36*
G01*
X56860000Y-51462000D02*
X56860000Y-51802000D01*
G75*
G02*
X56720000Y-51942000I-140000J0D01*
G01*
X56440000Y-51942000D01*
G75*
G02*
X56300000Y-51802000I0J140000D01*
G01*
X56300000Y-51462000D01*
G75*
G02*
X56440000Y-51322000I140000J0D01*
G01*
X56720000Y-51322000D01*
G75*
G02*
X56860000Y-51462000I0J-140000D01*
G01*
G37*
G36*
G01*
X55900000Y-51462000D02*
X55900000Y-51802000D01*
G75*
G02*
X55760000Y-51942000I-140000J0D01*
G01*
X55480000Y-51942000D01*
G75*
G02*
X55340000Y-51802000I0J140000D01*
G01*
X55340000Y-51462000D01*
G75*
G02*
X55480000Y-51322000I140000J0D01*
G01*
X55760000Y-51322000D01*
G75*
G02*
X55900000Y-51462000I0J-140000D01*
G01*
G37*
G36*
G01*
X49785000Y-50650000D02*
X49495000Y-50650000D01*
G75*
G02*
X49350000Y-50505000I0J145000D01*
G01*
X49350000Y-50215000D01*
G75*
G02*
X49495000Y-50070000I145000J0D01*
G01*
X49785000Y-50070000D01*
G75*
G02*
X49930000Y-50215000I0J-145000D01*
G01*
X49930000Y-50505000D01*
G75*
G02*
X49785000Y-50650000I-145000J0D01*
G01*
G37*
G36*
G01*
X50505000Y-50650000D02*
X50215000Y-50650000D01*
G75*
G02*
X50070000Y-50505000I0J145000D01*
G01*
X50070000Y-50215000D01*
G75*
G02*
X50215000Y-50070000I145000J0D01*
G01*
X50505000Y-50070000D01*
G75*
G02*
X50650000Y-50215000I0J-145000D01*
G01*
X50650000Y-50505000D01*
G75*
G02*
X50505000Y-50650000I-145000J0D01*
G01*
G37*
G36*
G01*
X49785000Y-49930000D02*
X49495000Y-49930000D01*
G75*
G02*
X49350000Y-49785000I0J145000D01*
G01*
X49350000Y-49495000D01*
G75*
G02*
X49495000Y-49350000I145000J0D01*
G01*
X49785000Y-49350000D01*
G75*
G02*
X49930000Y-49495000I0J-145000D01*
G01*
X49930000Y-49785000D01*
G75*
G02*
X49785000Y-49930000I-145000J0D01*
G01*
G37*
G36*
G01*
X50505000Y-49930000D02*
X50215000Y-49930000D01*
G75*
G02*
X50070000Y-49785000I0J145000D01*
G01*
X50070000Y-49495000D01*
G75*
G02*
X50215000Y-49350000I145000J0D01*
G01*
X50505000Y-49350000D01*
G75*
G02*
X50650000Y-49495000I0J-145000D01*
G01*
X50650000Y-49785000D01*
G75*
G02*
X50505000Y-49930000I-145000J0D01*
G01*
G37*
G36*
G01*
X49312500Y-51875000D02*
X49187500Y-51875000D01*
G75*
G02*
X49125000Y-51812500I0J62500D01*
G01*
X49125000Y-51062500D01*
G75*
G02*
X49187500Y-51000000I62500J0D01*
G01*
X49312500Y-51000000D01*
G75*
G02*
X49375000Y-51062500I0J-62500D01*
G01*
X49375000Y-51812500D01*
G75*
G02*
X49312500Y-51875000I-62500J0D01*
G01*
G37*
G36*
G01*
X49812500Y-51875000D02*
X49687500Y-51875000D01*
G75*
G02*
X49625000Y-51812500I0J62500D01*
G01*
X49625000Y-51062500D01*
G75*
G02*
X49687500Y-51000000I62500J0D01*
G01*
X49812500Y-51000000D01*
G75*
G02*
X49875000Y-51062500I0J-62500D01*
G01*
X49875000Y-51812500D01*
G75*
G02*
X49812500Y-51875000I-62500J0D01*
G01*
G37*
G36*
G01*
X50312500Y-51875000D02*
X50187500Y-51875000D01*
G75*
G02*
X50125000Y-51812500I0J62500D01*
G01*
X50125000Y-51062500D01*
G75*
G02*
X50187500Y-51000000I62500J0D01*
G01*
X50312500Y-51000000D01*
G75*
G02*
X50375000Y-51062500I0J-62500D01*
G01*
X50375000Y-51812500D01*
G75*
G02*
X50312500Y-51875000I-62500J0D01*
G01*
G37*
G36*
G01*
X50812500Y-51875000D02*
X50687500Y-51875000D01*
G75*
G02*
X50625000Y-51812500I0J62500D01*
G01*
X50625000Y-51062500D01*
G75*
G02*
X50687500Y-51000000I62500J0D01*
G01*
X50812500Y-51000000D01*
G75*
G02*
X50875000Y-51062500I0J-62500D01*
G01*
X50875000Y-51812500D01*
G75*
G02*
X50812500Y-51875000I-62500J0D01*
G01*
G37*
G36*
G01*
X51812500Y-50875000D02*
X51062500Y-50875000D01*
G75*
G02*
X51000000Y-50812500I0J62500D01*
G01*
X51000000Y-50687500D01*
G75*
G02*
X51062500Y-50625000I62500J0D01*
G01*
X51812500Y-50625000D01*
G75*
G02*
X51875000Y-50687500I0J-62500D01*
G01*
X51875000Y-50812500D01*
G75*
G02*
X51812500Y-50875000I-62500J0D01*
G01*
G37*
G36*
G01*
X51812500Y-50375000D02*
X51062500Y-50375000D01*
G75*
G02*
X51000000Y-50312500I0J62500D01*
G01*
X51000000Y-50187500D01*
G75*
G02*
X51062500Y-50125000I62500J0D01*
G01*
X51812500Y-50125000D01*
G75*
G02*
X51875000Y-50187500I0J-62500D01*
G01*
X51875000Y-50312500D01*
G75*
G02*
X51812500Y-50375000I-62500J0D01*
G01*
G37*
G36*
G01*
X51812500Y-49875000D02*
X51062500Y-49875000D01*
G75*
G02*
X51000000Y-49812500I0J62500D01*
G01*
X51000000Y-49687500D01*
G75*
G02*
X51062500Y-49625000I62500J0D01*
G01*
X51812500Y-49625000D01*
G75*
G02*
X51875000Y-49687500I0J-62500D01*
G01*
X51875000Y-49812500D01*
G75*
G02*
X51812500Y-49875000I-62500J0D01*
G01*
G37*
G36*
G01*
X51812500Y-49375000D02*
X51062500Y-49375000D01*
G75*
G02*
X51000000Y-49312500I0J62500D01*
G01*
X51000000Y-49187500D01*
G75*
G02*
X51062500Y-49125000I62500J0D01*
G01*
X51812500Y-49125000D01*
G75*
G02*
X51875000Y-49187500I0J-62500D01*
G01*
X51875000Y-49312500D01*
G75*
G02*
X51812500Y-49375000I-62500J0D01*
G01*
G37*
G36*
G01*
X50812500Y-49000000D02*
X50687500Y-49000000D01*
G75*
G02*
X50625000Y-48937500I0J62500D01*
G01*
X50625000Y-48187500D01*
G75*
G02*
X50687500Y-48125000I62500J0D01*
G01*
X50812500Y-48125000D01*
G75*
G02*
X50875000Y-48187500I0J-62500D01*
G01*
X50875000Y-48937500D01*
G75*
G02*
X50812500Y-49000000I-62500J0D01*
G01*
G37*
G36*
G01*
X50312500Y-49000000D02*
X50187500Y-49000000D01*
G75*
G02*
X50125000Y-48937500I0J62500D01*
G01*
X50125000Y-48187500D01*
G75*
G02*
X50187500Y-48125000I62500J0D01*
G01*
X50312500Y-48125000D01*
G75*
G02*
X50375000Y-48187500I0J-62500D01*
G01*
X50375000Y-48937500D01*
G75*
G02*
X50312500Y-49000000I-62500J0D01*
G01*
G37*
G36*
G01*
X49812500Y-49000000D02*
X49687500Y-49000000D01*
G75*
G02*
X49625000Y-48937500I0J62500D01*
G01*
X49625000Y-48187500D01*
G75*
G02*
X49687500Y-48125000I62500J0D01*
G01*
X49812500Y-48125000D01*
G75*
G02*
X49875000Y-48187500I0J-62500D01*
G01*
X49875000Y-48937500D01*
G75*
G02*
X49812500Y-49000000I-62500J0D01*
G01*
G37*
G36*
G01*
X49312500Y-49000000D02*
X49187500Y-49000000D01*
G75*
G02*
X49125000Y-48937500I0J62500D01*
G01*
X49125000Y-48187500D01*
G75*
G02*
X49187500Y-48125000I62500J0D01*
G01*
X49312500Y-48125000D01*
G75*
G02*
X49375000Y-48187500I0J-62500D01*
G01*
X49375000Y-48937500D01*
G75*
G02*
X49312500Y-49000000I-62500J0D01*
G01*
G37*
G36*
G01*
X48937500Y-49375000D02*
X48187500Y-49375000D01*
G75*
G02*
X48125000Y-49312500I0J62500D01*
G01*
X48125000Y-49187500D01*
G75*
G02*
X48187500Y-49125000I62500J0D01*
G01*
X48937500Y-49125000D01*
G75*
G02*
X49000000Y-49187500I0J-62500D01*
G01*
X49000000Y-49312500D01*
G75*
G02*
X48937500Y-49375000I-62500J0D01*
G01*
G37*
G36*
G01*
X48937500Y-49875000D02*
X48187500Y-49875000D01*
G75*
G02*
X48125000Y-49812500I0J62500D01*
G01*
X48125000Y-49687500D01*
G75*
G02*
X48187500Y-49625000I62500J0D01*
G01*
X48937500Y-49625000D01*
G75*
G02*
X49000000Y-49687500I0J-62500D01*
G01*
X49000000Y-49812500D01*
G75*
G02*
X48937500Y-49875000I-62500J0D01*
G01*
G37*
G36*
G01*
X48937500Y-50375000D02*
X48187500Y-50375000D01*
G75*
G02*
X48125000Y-50312500I0J62500D01*
G01*
X48125000Y-50187500D01*
G75*
G02*
X48187500Y-50125000I62500J0D01*
G01*
X48937500Y-50125000D01*
G75*
G02*
X49000000Y-50187500I0J-62500D01*
G01*
X49000000Y-50312500D01*
G75*
G02*
X48937500Y-50375000I-62500J0D01*
G01*
G37*
G36*
G01*
X48937500Y-50875000D02*
X48187500Y-50875000D01*
G75*
G02*
X48125000Y-50812500I0J62500D01*
G01*
X48125000Y-50687500D01*
G75*
G02*
X48187500Y-50625000I62500J0D01*
G01*
X48937500Y-50625000D01*
G75*
G02*
X49000000Y-50687500I0J-62500D01*
G01*
X49000000Y-50812500D01*
G75*
G02*
X48937500Y-50875000I-62500J0D01*
G01*
G37*
G36*
G01*
X47170000Y-50510000D02*
X46830000Y-50510000D01*
G75*
G02*
X46690000Y-50370000I0J140000D01*
G01*
X46690000Y-50090000D01*
G75*
G02*
X46830000Y-49950000I140000J0D01*
G01*
X47170000Y-49950000D01*
G75*
G02*
X47310000Y-50090000I0J-140000D01*
G01*
X47310000Y-50370000D01*
G75*
G02*
X47170000Y-50510000I-140000J0D01*
G01*
G37*
G36*
G01*
X47170000Y-49550000D02*
X46830000Y-49550000D01*
G75*
G02*
X46690000Y-49410000I0J140000D01*
G01*
X46690000Y-49130000D01*
G75*
G02*
X46830000Y-48990000I140000J0D01*
G01*
X47170000Y-48990000D01*
G75*
G02*
X47310000Y-49130000I0J-140000D01*
G01*
X47310000Y-49410000D01*
G75*
G02*
X47170000Y-49550000I-140000J0D01*
G01*
G37*
D17*
X42500000Y-49200000D03*
X42500000Y-49600000D03*
X42500000Y-50000000D03*
X42500000Y-50400000D03*
X42500000Y-50800000D03*
D18*
X43200000Y-51500000D03*
X43600000Y-51500000D03*
X44000000Y-51500000D03*
X44400000Y-51500000D03*
X44800000Y-51500000D03*
D17*
X45500000Y-50800000D03*
X45500000Y-50400000D03*
X45500000Y-50000000D03*
X45500000Y-49600000D03*
X45500000Y-49200000D03*
D18*
X44800000Y-48500000D03*
X44400000Y-48500000D03*
X44000000Y-48500000D03*
X43600000Y-48500000D03*
X43200000Y-48500000D03*
D19*
X44000000Y-50000000D03*
G36*
G01*
X55280000Y-53315000D02*
X55280000Y-53685000D01*
G75*
G02*
X55145000Y-53820000I-135000J0D01*
G01*
X54875000Y-53820000D01*
G75*
G02*
X54740000Y-53685000I0J135000D01*
G01*
X54740000Y-53315000D01*
G75*
G02*
X54875000Y-53180000I135000J0D01*
G01*
X55145000Y-53180000D01*
G75*
G02*
X55280000Y-53315000I0J-135000D01*
G01*
G37*
G36*
G01*
X54260000Y-53315000D02*
X54260000Y-53685000D01*
G75*
G02*
X54125000Y-53820000I-135000J0D01*
G01*
X53855000Y-53820000D01*
G75*
G02*
X53720000Y-53685000I0J135000D01*
G01*
X53720000Y-53315000D01*
G75*
G02*
X53855000Y-53180000I135000J0D01*
G01*
X54125000Y-53180000D01*
G75*
G02*
X54260000Y-53315000I0J-135000D01*
G01*
G37*
D20*
X41275600Y-21850000D03*
X41275600Y-22850000D03*
X41275600Y-23350000D03*
X41275600Y-24350000D03*
X41275600Y-24850000D03*
X41275600Y-23850000D03*
X41275600Y-22350000D03*
X41275600Y-21350000D03*
D21*
X41275600Y-19875000D03*
X41275600Y-26325000D03*
D22*
X41275600Y-20650000D03*
X41275600Y-25550000D03*
D11*
X52250000Y-30987500D03*
X51750000Y-30987500D03*
X51250000Y-30987500D03*
X50750000Y-30987500D03*
X50250000Y-30987500D03*
X49750000Y-30987500D03*
X49250000Y-30987500D03*
X48750000Y-30987500D03*
X48250000Y-30987500D03*
X47750000Y-30987500D03*
D12*
X46870000Y-33387500D03*
X53120000Y-33387500D03*
G36*
G01*
X44160000Y-46970000D02*
X44160000Y-46630000D01*
G75*
G02*
X44300000Y-46490000I140000J0D01*
G01*
X44580000Y-46490000D01*
G75*
G02*
X44720000Y-46630000I0J-140000D01*
G01*
X44720000Y-46970000D01*
G75*
G02*
X44580000Y-47110000I-140000J0D01*
G01*
X44300000Y-47110000D01*
G75*
G02*
X44160000Y-46970000I0J140000D01*
G01*
G37*
G36*
G01*
X45120000Y-46970000D02*
X45120000Y-46630000D01*
G75*
G02*
X45260000Y-46490000I140000J0D01*
G01*
X45540000Y-46490000D01*
G75*
G02*
X45680000Y-46630000I0J-140000D01*
G01*
X45680000Y-46970000D01*
G75*
G02*
X45540000Y-47110000I-140000J0D01*
G01*
X45260000Y-47110000D01*
G75*
G02*
X45120000Y-46970000I0J140000D01*
G01*
G37*
G36*
G01*
X56860000Y-48380000D02*
X56860000Y-48720000D01*
G75*
G02*
X56720000Y-48860000I-140000J0D01*
G01*
X56440000Y-48860000D01*
G75*
G02*
X56300000Y-48720000I0J140000D01*
G01*
X56300000Y-48380000D01*
G75*
G02*
X56440000Y-48240000I140000J0D01*
G01*
X56720000Y-48240000D01*
G75*
G02*
X56860000Y-48380000I0J-140000D01*
G01*
G37*
G36*
G01*
X55900000Y-48380000D02*
X55900000Y-48720000D01*
G75*
G02*
X55760000Y-48860000I-140000J0D01*
G01*
X55480000Y-48860000D01*
G75*
G02*
X55340000Y-48720000I0J140000D01*
G01*
X55340000Y-48380000D01*
G75*
G02*
X55480000Y-48240000I140000J0D01*
G01*
X55760000Y-48240000D01*
G75*
G02*
X55900000Y-48380000I0J-140000D01*
G01*
G37*
G36*
G01*
X44490000Y-21285000D02*
X44490000Y-20915000D01*
G75*
G02*
X44625000Y-20780000I135000J0D01*
G01*
X44895000Y-20780000D01*
G75*
G02*
X45030000Y-20915000I0J-135000D01*
G01*
X45030000Y-21285000D01*
G75*
G02*
X44895000Y-21420000I-135000J0D01*
G01*
X44625000Y-21420000D01*
G75*
G02*
X44490000Y-21285000I0J135000D01*
G01*
G37*
G36*
G01*
X43470000Y-21285000D02*
X43470000Y-20915000D01*
G75*
G02*
X43605000Y-20780000I135000J0D01*
G01*
X43875000Y-20780000D01*
G75*
G02*
X44010000Y-20915000I0J-135000D01*
G01*
X44010000Y-21285000D01*
G75*
G02*
X43875000Y-21420000I-135000J0D01*
G01*
X43605000Y-21420000D01*
G75*
G02*
X43470000Y-21285000I0J135000D01*
G01*
G37*
G36*
G01*
X53740000Y-55170000D02*
X53740000Y-54830000D01*
G75*
G02*
X53880000Y-54690000I140000J0D01*
G01*
X54160000Y-54690000D01*
G75*
G02*
X54300000Y-54830000I0J-140000D01*
G01*
X54300000Y-55170000D01*
G75*
G02*
X54160000Y-55310000I-140000J0D01*
G01*
X53880000Y-55310000D01*
G75*
G02*
X53740000Y-55170000I0J140000D01*
G01*
G37*
G36*
G01*
X54700000Y-55170000D02*
X54700000Y-54830000D01*
G75*
G02*
X54840000Y-54690000I140000J0D01*
G01*
X55120000Y-54690000D01*
G75*
G02*
X55260000Y-54830000I0J-140000D01*
G01*
X55260000Y-55170000D01*
G75*
G02*
X55120000Y-55310000I-140000J0D01*
G01*
X54840000Y-55310000D01*
G75*
G02*
X54700000Y-55170000I0J140000D01*
G01*
G37*
G36*
G01*
X44490000Y-25035000D02*
X44490000Y-24665000D01*
G75*
G02*
X44625000Y-24530000I135000J0D01*
G01*
X44895000Y-24530000D01*
G75*
G02*
X45030000Y-24665000I0J-135000D01*
G01*
X45030000Y-25035000D01*
G75*
G02*
X44895000Y-25170000I-135000J0D01*
G01*
X44625000Y-25170000D01*
G75*
G02*
X44490000Y-25035000I0J135000D01*
G01*
G37*
G36*
G01*
X43470000Y-25035000D02*
X43470000Y-24665000D01*
G75*
G02*
X43605000Y-24530000I135000J0D01*
G01*
X43875000Y-24530000D01*
G75*
G02*
X44010000Y-24665000I0J-135000D01*
G01*
X44010000Y-25035000D01*
G75*
G02*
X43875000Y-25170000I-135000J0D01*
G01*
X43605000Y-25170000D01*
G75*
G02*
X43470000Y-25035000I0J135000D01*
G01*
G37*
G36*
G01*
X47900000Y-59534277D02*
X47900000Y-58984277D01*
G75*
G02*
X48050000Y-58834277I150000J0D01*
G01*
X48350000Y-58834277D01*
G75*
G02*
X48500000Y-58984277I0J-150000D01*
G01*
X48500000Y-59534277D01*
G75*
G02*
X48350000Y-59684277I-150000J0D01*
G01*
X48050000Y-59684277D01*
G75*
G02*
X47900000Y-59534277I0J150000D01*
G01*
G37*
G36*
G01*
X49100000Y-59534277D02*
X49100000Y-58984277D01*
G75*
G02*
X49250000Y-58834277I150000J0D01*
G01*
X49550000Y-58834277D01*
G75*
G02*
X49700000Y-58984277I0J-150000D01*
G01*
X49700000Y-59534277D01*
G75*
G02*
X49550000Y-59684277I-150000J0D01*
G01*
X49250000Y-59684277D01*
G75*
G02*
X49100000Y-59534277I0J150000D01*
G01*
G37*
G36*
G01*
X50300000Y-59534277D02*
X50300000Y-58984277D01*
G75*
G02*
X50450000Y-58834277I150000J0D01*
G01*
X50750000Y-58834277D01*
G75*
G02*
X50900000Y-58984277I0J-150000D01*
G01*
X50900000Y-59534277D01*
G75*
G02*
X50750000Y-59684277I-150000J0D01*
G01*
X50450000Y-59684277D01*
G75*
G02*
X50300000Y-59534277I0J150000D01*
G01*
G37*
G36*
G01*
X51500000Y-59534277D02*
X51500000Y-58984277D01*
G75*
G02*
X51650000Y-58834277I150000J0D01*
G01*
X51950000Y-58834277D01*
G75*
G02*
X52100000Y-58984277I0J-150000D01*
G01*
X52100000Y-59534277D01*
G75*
G02*
X51950000Y-59684277I-150000J0D01*
G01*
X51650000Y-59684277D01*
G75*
G02*
X51500000Y-59534277I0J150000D01*
G01*
G37*
G36*
G01*
X46700000Y-63259277D02*
X46700000Y-62809277D01*
G75*
G02*
X46875000Y-62634277I175000J0D01*
G01*
X47225000Y-62634277D01*
G75*
G02*
X47400000Y-62809277I0J-175000D01*
G01*
X47400000Y-63259277D01*
G75*
G02*
X47225000Y-63434277I-175000J0D01*
G01*
X46875000Y-63434277D01*
G75*
G02*
X46700000Y-63259277I0J175000D01*
G01*
G37*
G36*
G01*
X52600000Y-63259277D02*
X52600000Y-62809277D01*
G75*
G02*
X52775000Y-62634277I175000J0D01*
G01*
X53125000Y-62634277D01*
G75*
G02*
X53300000Y-62809277I0J-175000D01*
G01*
X53300000Y-63259277D01*
G75*
G02*
X53125000Y-63434277I-175000J0D01*
G01*
X52775000Y-63434277D01*
G75*
G02*
X52600000Y-63259277I0J175000D01*
G01*
G37*
G36*
G01*
X45660000Y-45380000D02*
X45660000Y-45720000D01*
G75*
G02*
X45520000Y-45860000I-140000J0D01*
G01*
X45240000Y-45860000D01*
G75*
G02*
X45100000Y-45720000I0J140000D01*
G01*
X45100000Y-45380000D01*
G75*
G02*
X45240000Y-45240000I140000J0D01*
G01*
X45520000Y-45240000D01*
G75*
G02*
X45660000Y-45380000I0J-140000D01*
G01*
G37*
G36*
G01*
X44700000Y-45380000D02*
X44700000Y-45720000D01*
G75*
G02*
X44560000Y-45860000I-140000J0D01*
G01*
X44280000Y-45860000D01*
G75*
G02*
X44140000Y-45720000I0J140000D01*
G01*
X44140000Y-45380000D01*
G75*
G02*
X44280000Y-45240000I140000J0D01*
G01*
X44560000Y-45240000D01*
G75*
G02*
X44700000Y-45380000I0J-140000D01*
G01*
G37*
M02*
